<svg width="346" height="216" viewBox="0 0 346 216" fill="none" xmlns="http://www.w3.org/2000/svg">
<path d="M113.728 212V203.88H114.876V212H113.728ZM113.728 202.368V201.22H114.876V202.368H113.728ZM124.949 212V202.914C124.949 202.438 125.112 202.037 125.439 201.71C125.765 201.383 126.167 201.22 126.643 201.22H129.611V202.368H126.643C126.493 202.368 126.363 202.424 126.251 202.536C126.148 202.639 126.097 202.765 126.097 202.914V203.88H129.611V205.028H126.097V212H124.949ZM132.876 212V203.88H134.024V212H132.876ZM132.876 202.368V201.22H134.024V202.368H132.876ZM139.372 215.206V214.044H144.44C144.589 214.044 144.715 213.988 144.818 213.876C144.93 213.773 144.986 213.647 144.986 213.498V212H139.568C139.101 212 138.7 211.837 138.364 211.51C138.037 211.174 137.874 210.773 137.874 210.306V205.574C137.874 205.107 138.037 204.711 138.364 204.384C138.7 204.048 139.101 203.88 139.568 203.88H144.44C144.916 203.88 145.317 204.048 145.644 204.384C145.971 204.711 146.134 205.107 146.134 205.574V213.498C146.134 213.974 145.971 214.375 145.644 214.702C145.317 215.038 144.916 215.206 144.44 215.206H139.372ZM139.568 210.852H144.44C144.589 210.852 144.715 210.801 144.818 210.698C144.93 210.586 144.986 210.455 144.986 210.306V205.574C144.986 205.425 144.93 205.299 144.818 205.196C144.715 205.084 144.589 205.028 144.44 205.028H139.568C139.419 205.028 139.288 205.084 139.176 205.196C139.073 205.299 139.022 205.425 139.022 205.574V210.306C139.022 210.455 139.073 210.586 139.176 210.698C139.288 210.801 139.419 210.852 139.568 210.852ZM149.852 212V201.22H151V203.88H156.432C156.89 203.88 157.286 204.048 157.622 204.384C157.958 204.711 158.126 205.107 158.126 205.574V212H156.978V205.574C156.978 205.425 156.922 205.299 156.81 205.196C156.708 205.084 156.582 205.028 156.432 205.028H151.56C151.411 205.028 151.28 205.084 151.168 205.196C151.056 205.299 151 205.425 151 205.574V212H149.852ZM163.124 212C162.648 212 162.247 211.837 161.92 211.51C161.593 211.174 161.43 210.773 161.43 210.306V201.22H162.578V203.88H166.092V205.028H162.578V210.306C162.578 210.455 162.629 210.586 162.732 210.698C162.844 210.801 162.975 210.852 163.124 210.852H166.092V212H163.124ZM175.467 212V202.914C175.467 202.438 175.63 202.037 175.957 201.71C176.283 201.383 176.685 201.22 177.161 201.22H180.129V202.368H177.161C177.011 202.368 176.881 202.424 176.769 202.536C176.666 202.639 176.615 202.765 176.615 202.914V203.88H180.129V205.028H176.615V212H175.467ZM185.074 212C184.607 212 184.206 211.837 183.87 211.51C183.543 211.174 183.38 210.773 183.38 210.306V205.574C183.38 205.107 183.543 204.711 183.87 204.384C184.206 204.048 184.607 203.88 185.074 203.88H189.946C190.422 203.88 190.823 204.048 191.15 204.384C191.486 204.711 191.654 205.107 191.654 205.574V210.306C191.654 210.773 191.486 211.174 191.15 211.51C190.823 211.837 190.422 212 189.946 212H185.074ZM185.074 210.852H189.946C190.095 210.852 190.221 210.801 190.324 210.698C190.436 210.586 190.492 210.455 190.492 210.306V205.574C190.492 205.425 190.436 205.299 190.324 205.196C190.221 205.084 190.095 205.028 189.946 205.028H185.074C184.925 205.028 184.794 205.084 184.682 205.196C184.579 205.299 184.528 205.425 184.528 205.574V210.306C184.528 210.455 184.579 210.586 184.682 210.698C184.794 210.801 184.925 210.852 185.074 210.852ZM195.191 212V205.574C195.191 205.107 195.354 204.711 195.681 204.384C196.017 204.048 196.418 203.88 196.885 203.88H201.449V205.028H196.885C196.735 205.028 196.605 205.084 196.493 205.196C196.39 205.299 196.339 205.425 196.339 205.574V212H195.191ZM212.357 212C211.881 212 211.48 211.837 211.153 211.51C210.826 211.174 210.663 210.773 210.663 210.306V201.22H211.811V203.88H215.325V205.028H211.811V210.306C211.811 210.455 211.862 210.586 211.965 210.698C212.077 210.801 212.208 210.852 212.357 210.852H215.325V212H212.357ZM218.728 212V201.22H219.876V203.88H225.308C225.765 203.88 226.162 204.048 226.498 204.384C226.834 204.711 227.002 205.107 227.002 205.574V212H225.854V205.574C225.854 205.425 225.798 205.299 225.686 205.196C225.583 205.084 225.457 205.028 225.308 205.028H220.436C220.286 205.028 220.156 205.084 220.044 205.196C219.932 205.299 219.876 205.425 219.876 205.574V212H218.728ZM231.971 212C231.504 212 231.103 211.837 230.767 211.51C230.44 211.174 230.277 210.773 230.277 210.306V205.574C230.277 205.107 230.44 204.711 230.767 204.384C231.103 204.048 231.504 203.88 231.971 203.88H236.843C237.319 203.88 237.72 204.048 238.047 204.384C238.383 204.711 238.551 205.107 238.551 205.574V208.514H231.425V210.306C231.425 210.455 231.476 210.586 231.579 210.698C231.691 210.801 231.822 210.852 231.971 210.852H238.551V212H231.971ZM231.425 207.366H237.389V205.574C237.389 205.425 237.333 205.299 237.221 205.196C237.118 205.084 236.992 205.028 236.843 205.028H231.971C231.822 205.028 231.691 205.084 231.579 205.196C231.476 205.299 231.425 205.425 231.425 205.574V207.366ZM249.987 212C249.52 212 249.119 211.837 248.783 211.51C248.456 211.174 248.293 210.773 248.293 210.306V203.88H249.441V210.306C249.441 210.455 249.492 210.586 249.595 210.698C249.707 210.801 249.838 210.852 249.987 210.852H254.859C255.008 210.852 255.139 210.801 255.251 210.698C255.363 210.586 255.419 210.455 255.419 210.306V203.88H256.567V210.306C256.567 210.773 256.399 211.174 256.063 211.51C255.736 211.837 255.335 212 254.859 212H249.987ZM261.686 212C261.22 212 260.818 211.837 260.482 211.51C260.156 211.174 259.992 210.773 259.992 210.306V210.194H261.14V210.306C261.14 210.455 261.192 210.586 261.294 210.698C261.406 210.801 261.537 210.852 261.686 210.852H266.558C266.708 210.852 266.834 210.801 266.936 210.698C267.048 210.586 267.104 210.455 267.104 210.306V209.06C267.104 208.911 267.048 208.785 266.936 208.682C266.834 208.57 266.708 208.514 266.558 208.514H261.686C261.22 208.514 260.818 208.351 260.482 208.024C260.156 207.688 259.992 207.287 259.992 206.82V205.574C259.992 205.107 260.156 204.711 260.482 204.384C260.818 204.048 261.22 203.88 261.686 203.88H266.558C267.034 203.88 267.436 204.048 267.762 204.384C268.098 204.711 268.266 205.107 268.266 205.574V205.686H267.104V205.574C267.104 205.425 267.048 205.299 266.936 205.196C266.834 205.084 266.708 205.028 266.558 205.028H261.686C261.537 205.028 261.406 205.084 261.294 205.196C261.192 205.299 261.14 205.425 261.14 205.574V206.82C261.14 206.969 261.192 207.1 261.294 207.212C261.406 207.315 261.537 207.366 261.686 207.366H266.558C267.034 207.366 267.436 207.534 267.762 207.87C268.098 208.197 268.266 208.593 268.266 209.06V210.306C268.266 210.773 268.098 211.174 267.762 211.51C267.436 211.837 267.034 212 266.558 212H261.686ZM273.361 212C272.894 212 272.493 211.837 272.157 211.51C271.83 211.174 271.667 210.773 271.667 210.306V205.574C271.667 205.107 271.83 204.711 272.157 204.384C272.493 204.048 272.894 203.88 273.361 203.88H278.233C278.709 203.88 279.11 204.048 279.437 204.384C279.773 204.711 279.941 205.107 279.941 205.574V208.514H272.815V210.306C272.815 210.455 272.866 210.586 272.969 210.698C273.081 210.801 273.211 210.852 273.361 210.852H279.941V212H273.361ZM272.815 207.366H278.779V205.574C278.779 205.425 278.723 205.299 278.611 205.196C278.508 205.084 278.382 205.028 278.233 205.028H273.361C273.211 205.028 273.081 205.084 272.969 205.196C272.866 205.299 272.815 205.425 272.815 205.574V207.366ZM283.546 212V205.574C283.546 205.107 283.709 204.711 284.036 204.384C284.372 204.048 284.773 203.88 285.24 203.88H289.804V205.028H285.24C285.09 205.028 284.96 205.084 284.848 205.196C284.745 205.299 284.694 205.425 284.694 205.574V212H283.546Z" fill="#15F1FF"/>
<path d="M13.1538 55V27.3088H19.3074L28.6916 38.5007L38.0374 27.3088H44.2294V55H38.2297V36.4238L28.6916 47.808L19.1151 36.4623V55H13.1538ZM56.4495 55V32.6932H62.3339V55H56.4495ZM77.8282 55C76.2898 55 74.9693 54.4487 73.8668 53.3462C72.7899 52.2437 72.2515 50.9361 72.2515 49.4233V38.2699C72.2515 36.7315 72.7899 35.411 73.8668 34.3085C74.9693 33.206 76.2898 32.6547 77.8282 32.6547H94.8275V38.5391H79.405C78.5589 38.5391 78.1358 38.5391 78.1358 38.5391C78.1358 38.5391 78.1358 38.9622 78.1358 39.8083V47.8464C78.1358 48.6926 78.1358 49.1156 78.1358 49.1156C78.1358 49.1156 78.5589 49.1156 79.405 49.1156H94.8275V55H77.8282ZM106.802 55V32.6932H112.687V40.8852H124.148V32.6932H130.071V55H124.148V46.808H112.687V55H106.802ZM141.947 55V38.2699C141.947 36.7571 142.498 35.4495 143.601 34.347C144.703 33.2445 146.024 32.6932 147.562 32.6932H160.062C161.6 32.6932 162.908 33.2445 163.985 34.347C165.087 35.4495 165.638 36.7571 165.638 38.2699V55H159.754V49.6925H147.831V55H141.947ZM147.831 43.8081H159.754V39.8468C159.754 39.0006 159.754 38.5776 159.754 38.5776C159.754 38.5776 159.331 38.5776 158.485 38.5776H149.101C148.254 38.5776 147.831 38.5776 147.831 38.5776C147.831 38.5776 147.831 39.0006 147.831 39.8468V43.8081ZM177.546 55V32.6547H198.122V38.5391H183.43V40.8852H194.391V46.808H183.43V49.1156H198.122V55H177.546ZM209.764 55V32.6932H215.648V49.1156H232.763V55H209.764ZM13.1922 135V107.27H19.1535V129H40.8834V135H13.1922ZM56.2019 135C54.6892 135 53.3815 134.449 52.279 133.346C51.1765 132.244 50.6252 130.936 50.6252 129.423V118.27C50.6252 116.757 51.1765 115.45 52.279 114.347C53.3815 113.244 54.6892 112.693 56.2019 112.693H67.663C69.2014 112.693 70.509 113.244 71.5859 114.347C72.6884 115.45 73.2397 116.757 73.2397 118.27V129.423C73.2397 130.936 72.6884 132.244 71.5859 133.346C70.509 134.449 69.2014 135 67.663 135H56.2019ZM57.7788 129.116H66.0861C66.9323 129.116 67.3553 129.116 67.3553 129.116C67.3553 129.116 67.3553 128.693 67.3553 127.846V119.847C67.3553 119.001 67.3553 118.578 67.3553 118.578C67.3553 118.578 66.9323 118.578 66.0861 118.578H57.7788C56.9327 118.578 56.5096 118.578 56.5096 118.578C56.5096 118.578 56.5096 119.001 56.5096 119.847V127.846C56.5096 128.693 56.5096 129.116 56.5096 129.116C56.5096 129.116 56.9327 129.116 57.7788 129.116ZM93.2152 135L84.2924 112.693H90.523L95.4843 124.385L100.676 112.693H106.061L111.599 124.424L116.214 112.693H122.522L113.907 135H109.445L103.407 121.962L97.6381 135H93.2152ZM134.256 135V112.655H154.832V118.539H140.14V120.885H151.101V126.808H140.14V129.116H154.832V135H134.256ZM166.474 135V112.693H172.358V129.116H189.473V135H166.474ZM199.518 135V112.693H205.402V129.116H222.517V135H199.518Z" fill="url(#paint0_linear)"/>
<g filter="url(#filter0_b)">
<path fill-rule="evenodd" clip-rule="evenodd" d="M0.999969 106.17C0.999969 106.17 231.951 98.919 250.539 105.112C244.313 107.664 239.91 113.953 239.91 121.307C239.91 127.519 243.052 132.972 247.781 136.053C248.289 136.438 248.818 136.794 249.367 137.118L0.999969 137.118V106.17Z" fill="url(#paint1_linear)" fill-opacity="0.5"/>
<path d="M250.539 105.112L250.721 104.565C250.95 104.641 251.107 104.852 251.115 105.093C251.123 105.334 250.98 105.554 250.757 105.646L250.539 105.112ZM0.999969 106.17H0.423203C0.423203 105.858 0.670532 105.603 0.981857 105.593L0.999969 106.17ZM247.781 136.053L248.096 135.57C248.108 135.577 248.119 135.585 248.13 135.594L247.781 136.053ZM249.367 137.118L249.661 136.622C249.884 136.754 249.992 137.02 249.923 137.271C249.855 137.521 249.627 137.695 249.367 137.695L249.367 137.118ZM0.999969 137.118V137.695C0.847 137.695 0.700302 137.634 0.592133 137.526C0.483963 137.418 0.423203 137.271 0.423203 137.118H0.999969ZM250.356 105.659C249.26 105.294 247.324 104.964 244.612 104.677C241.915 104.391 238.493 104.152 234.451 103.955C226.369 103.562 215.832 103.337 203.702 103.241C179.444 103.05 148.838 103.376 118.809 103.895C88.7807 104.414 59.3328 105.127 37.3918 105.71C26.4214 106.002 17.3278 106.261 10.9768 106.447C7.80138 106.54 5.3116 106.615 3.61572 106.666C2.76779 106.692 2.11833 106.712 1.68088 106.726C1.46214 106.732 1.29642 106.738 1.18539 106.741C1.12987 106.743 1.08803 106.744 1.06007 106.745C1.0461 106.745 1.03558 106.746 1.02858 106.746C1.02507 106.746 1.02245 106.746 1.02069 106.746C1.01894 106.746 1.01807 106.746 0.999969 106.17C0.981857 105.593 0.982758 105.593 0.984528 105.593C0.986282 105.593 0.988922 105.593 0.992447 105.593C0.999481 105.593 1.01001 105.592 1.024 105.592C1.05202 105.591 1.0939 105.59 1.14946 105.588C1.26059 105.585 1.42641 105.579 1.64522 105.573C2.08287 105.559 2.73251 105.539 3.58066 105.513C5.27692 105.462 7.76714 105.387 10.943 105.294C17.2949 105.108 26.3895 104.849 37.3612 104.557C59.3043 103.974 88.7559 103.261 118.789 102.742C148.821 102.223 179.438 101.897 203.711 102.088C215.847 102.183 226.402 102.408 234.508 102.803C238.56 103.001 242.006 103.241 244.734 103.53C247.447 103.817 249.494 104.156 250.721 104.565L250.356 105.659ZM239.333 121.307C239.333 113.72 243.877 107.219 250.32 104.578L250.757 105.646C244.75 108.108 240.487 114.185 240.487 121.307H239.333ZM247.466 136.536C242.576 133.35 239.333 127.717 239.333 121.307H240.487C240.487 127.322 243.529 132.594 248.096 135.57L247.466 136.536ZM249.073 137.615C248.506 137.279 247.958 136.911 247.433 136.513L248.13 135.594C248.62 135.965 249.131 136.309 249.661 136.622L249.073 137.615ZM0.999969 136.542L249.367 136.542L249.367 137.695L0.999969 137.695V136.542ZM1.57672 106.17V137.118H0.423203V106.17H1.57672Z" fill="url(#paint2_linear)"/>
</g>
<g filter="url(#filter1_d)">
<path fill-rule="evenodd" clip-rule="evenodd" d="M327.962 104.767C328.433 105.019 328.829 105.252 329.139 105.444C329.388 105.432 329.639 105.425 329.891 105.425C332.887 105.425 335.694 106.328 338.073 107.894C335.505 105.906 332.337 104.735 328.926 104.735C328.602 104.735 328.281 104.746 327.962 104.767ZM271.778 110.125C272.222 110.223 272.695 110.323 273.194 110.423C273.364 110.457 273.536 110.491 273.712 110.525C277.732 111.3 283.159 112.005 287.528 111.334C294.182 110.312 303.975 107.812 312.568 103.657C317.56 101.243 322.61 102.413 325.965 103.816C326.456 104.022 326.911 104.232 327.324 104.437C327.549 104.549 327.763 104.66 327.962 104.767C327.838 104.775 327.714 104.784 327.591 104.796C328.084 105.02 328.531 105.245 328.927 105.457C328.997 105.452 329.068 105.448 329.139 105.444C329.645 105.758 329.923 105.963 329.923 105.963L329.811 105.956C330.502 106.368 330.888 106.654 330.888 106.654L324.895 106.297C324.172 106.557 323.472 106.873 322.8 107.239L318.168 112.024L315.073 120.903L318.168 130.121L320.96 133.108C320.96 133.108 320.418 132.549 318.072 132.196C318.861 133.18 319.758 134.063 320.743 134.826C323.122 136.392 325.93 137.295 328.926 137.295C337.407 137.295 344.38 130.061 344.38 121.015C344.38 115.608 341.889 110.848 338.073 107.894C342.428 110.762 345.345 115.854 345.345 121.705C345.345 130.751 338.372 137.985 329.891 137.985C326.479 137.985 323.311 136.814 320.743 134.826C319.601 134.074 318.557 133.168 317.639 132.136C317.28 132.09 316.884 132.049 316.447 132.016C315.626 131.952 314.663 131.913 313.533 131.913C308.492 131.913 282.748 133.325 272.861 133.878C272.185 133.916 271.584 133.95 271.068 133.979C268.345 136.477 264.788 137.985 260.916 137.985C257.504 137.985 254.336 136.814 251.769 134.826C247.413 131.958 244.496 126.866 244.496 121.015C244.496 111.969 251.469 104.735 259.951 104.735C263.363 104.735 266.531 105.906 269.098 107.894C270.069 108.533 270.967 109.282 271.778 110.125ZM271.359 110.032C271.495 110.063 271.635 110.094 271.778 110.125C271.965 110.32 272.147 110.519 272.324 110.722C272.884 110.849 273.5 110.981 274.159 111.113C278.221 111.927 283.934 112.725 288.493 112.024C295.147 111.002 304.94 108.502 313.533 104.347C318.525 101.934 323.574 103.103 326.929 104.506C327.158 104.602 327.379 104.699 327.591 104.796C326.323 104.91 325.096 105.187 323.931 105.606L326.709 105.772C327.432 105.612 328.172 105.506 328.927 105.457C329.26 105.635 329.556 105.804 329.811 105.956L326.709 105.772C326.09 105.908 325.485 106.084 324.895 106.297L323.776 106.23L322.8 107.239C320.039 108.743 317.756 111.1 316.277 113.988L314.772 118.307C314.583 119.247 314.471 120.217 314.443 121.211L317.203 129.431L319.995 132.417C319.995 132.417 319.532 131.94 317.609 131.589C317.759 131.795 317.913 131.998 318.072 132.196C317.934 132.175 317.79 132.155 317.639 132.136C317.457 131.931 317.279 131.721 317.107 131.506C316.78 131.457 316.419 131.411 316.019 131.372C315.847 131.355 315.668 131.34 315.482 131.325C314.661 131.262 313.697 131.223 312.568 131.223C307.786 131.223 284.376 132.493 273.542 133.096L271.896 133.188L271.869 133.189C271.611 133.462 271.344 133.725 271.068 133.979C270.118 134.032 269.458 134.069 269.162 134.086C266.583 136.105 263.391 137.295 259.951 137.295C256.955 137.295 254.147 136.392 251.769 134.826C247.953 131.872 245.462 127.112 245.462 121.705C245.462 112.659 252.435 105.425 260.916 105.425C263.912 105.425 266.72 106.328 269.098 107.894C269.917 108.528 270.674 109.244 271.359 110.032ZM271.735 126.893L272.85 124.939V116.883L268.022 109.192C268.022 109.192 269.325 109.573 271.359 110.032C271.523 110.221 271.683 110.414 271.839 110.611C271.995 110.648 272.157 110.685 272.324 110.722C274.833 113.61 276.37 117.457 276.37 121.705C276.37 126.203 274.646 130.254 271.869 133.189C271.205 133.226 270.613 133.259 270.104 133.288C269.8 133.567 269.486 133.833 269.162 134.086L268.987 134.096L269.426 133.326C268.525 133.377 268.022 133.406 268.022 133.406L270.395 129.243C268.224 132.247 264.786 134.187 260.916 134.187C258.227 134.187 255.747 133.25 253.755 131.671C250.339 129.478 248.059 125.526 248.059 121.015C248.059 114.2 253.263 108.661 259.728 108.536C259.802 108.534 259.876 108.534 259.951 108.534C260.027 108.534 260.102 108.534 260.178 108.536C262.779 108.587 265.176 109.515 267.112 111.049C270.528 113.242 272.808 117.194 272.808 121.705C272.808 123.556 272.424 125.313 271.735 126.893ZM266.406 110.63C266.646 110.762 266.882 110.902 267.112 111.049C267.353 111.241 267.588 111.442 267.814 111.651C270.663 113.885 272.572 117.485 272.572 121.705C272.572 128.829 267.129 134.187 260.916 134.187C258.572 134.187 256.338 133.424 254.464 132.092C254.222 131.96 253.986 131.819 253.755 131.671C253.512 131.479 253.277 131.277 253.049 131.066C250.203 128.832 248.295 125.233 248.295 121.015C248.295 113.977 253.608 108.662 259.728 108.536C259.802 108.534 259.876 108.534 259.951 108.534C260.027 108.534 260.102 108.534 260.178 108.536C262.44 108.583 264.592 109.34 266.406 110.63ZM261.142 109.226C263.039 109.263 264.826 109.766 266.406 110.63C266.575 110.75 266.74 110.875 266.903 111.004C267.216 111.205 267.52 111.421 267.814 111.651C270.285 113.939 271.843 117.286 271.843 121.015C271.843 127.909 266.519 133.497 259.951 133.497C257.972 133.497 256.105 132.989 254.464 132.092C254.294 131.971 254.128 131.846 253.964 131.716C253.65 131.515 253.345 131.298 253.049 131.066C250.581 128.779 249.024 125.433 249.024 121.705C249.024 114.89 254.228 109.351 260.693 109.226C260.767 109.224 260.841 109.223 260.916 109.223C260.992 109.223 261.067 109.224 261.142 109.226ZM261.142 109.226C261.067 109.224 260.992 109.224 260.916 109.224C260.841 109.224 260.767 109.224 260.693 109.226C254.573 109.352 249.26 114.667 249.26 121.705C249.26 125.898 251.146 129.479 253.964 131.716C255.738 132.853 257.798 133.497 259.951 133.497C266.164 133.497 271.607 128.139 271.607 121.015C271.607 116.822 269.722 113.241 266.903 111.004C265.192 109.907 263.213 109.269 261.142 109.226ZM270.395 129.243L271.735 126.893C271.37 127.73 270.92 128.518 270.395 129.243ZM269.426 133.326L270.104 133.288C273.346 130.313 275.405 125.932 275.405 121.015C275.405 117.045 274.063 113.425 271.839 110.611C270.085 110.203 268.987 109.882 268.987 109.882L273.815 117.574V125.629L269.426 133.326ZM321.834 106.549L322.135 106.239L322.811 105.54L323.467 105.579L323.931 105.606C323.207 105.867 322.506 106.183 321.834 106.549ZM321.834 106.549C316.882 109.248 313.471 114.688 313.471 121.015C313.471 125.026 314.842 128.68 317.107 131.506C317.284 131.532 317.451 131.56 317.609 131.589C315.621 128.856 314.436 125.434 314.436 121.705C314.436 121.54 314.438 121.375 314.443 121.211L314.108 120.213L314.772 118.307C315.081 116.775 315.593 115.325 316.277 113.988L317.203 111.334L321.834 106.549ZM250.661 119.539C250.661 119.539 251.158 118.702 251.151 119.636C251.143 120.571 251.136 120.985 251.136 120.985L251.137 122.136L251.139 122.668L251.153 123.246L250.733 123.253C251.32 126.011 252.971 128.301 255.166 129.672C252.932 127.855 251.464 124.996 251.464 121.705C251.464 116.047 255.806 111.664 260.916 111.664C262.645 111.664 264.286 112.166 265.7 113.049C264.093 111.741 262.089 110.974 259.951 110.974C254.841 110.974 250.499 115.357 250.499 121.015C250.499 121.656 250.555 122.281 250.661 122.884V119.539ZM265.7 113.049C268.467 114.776 270.368 117.961 270.368 121.705C270.368 127.363 266.026 131.746 260.916 131.746C258.778 131.746 256.774 130.979 255.166 129.672C256.581 130.555 258.222 131.056 259.951 131.056C265.061 131.056 269.403 126.673 269.403 121.015C269.403 117.725 267.934 114.865 265.7 113.049ZM250.661 122.884V123.254L250.733 123.253C250.707 123.131 250.683 123.008 250.661 122.884ZM319.474 121.015C319.474 124.759 321.375 127.945 324.141 129.672C321.907 127.855 320.439 124.996 320.439 121.705C320.439 116.047 324.78 111.664 329.891 111.664C331.62 111.664 333.26 112.166 334.675 113.049C333.068 111.741 331.064 110.974 328.926 110.974C323.815 110.974 319.474 115.357 319.474 121.015ZM339.342 121.705C339.342 117.961 337.442 114.776 334.675 113.049C336.909 114.865 338.377 117.725 338.377 121.015C338.377 126.673 334.036 131.056 328.926 131.056C327.197 131.056 325.556 130.555 324.141 129.672C325.749 130.979 327.752 131.746 329.891 131.746C335.001 131.746 339.342 127.363 339.342 121.705ZM317.033 121.015C317.033 125.526 319.313 129.478 322.73 131.671C322.487 131.479 322.252 131.277 322.025 131.067C319.178 128.833 317.269 125.234 317.269 121.015C317.269 113.978 322.581 108.664 328.7 108.536C322.236 108.662 317.033 114.201 317.033 121.015ZM329.15 108.536C329.075 108.534 329 108.534 328.926 108.534C328.85 108.534 328.775 108.534 328.7 108.536C328.775 108.534 328.85 108.534 328.926 108.534C329 108.534 329.075 108.534 329.15 108.536ZM335.38 110.63C333.565 109.339 331.413 108.583 329.15 108.536C331.752 108.586 334.15 109.514 336.087 111.049C339.503 113.242 341.783 117.194 341.783 121.705C341.783 128.599 336.459 134.187 329.891 134.187C327.202 134.187 324.722 133.25 322.73 131.671C322.961 131.819 323.197 131.96 323.438 132.091C323.268 131.971 323.102 131.846 322.939 131.716C322.625 131.515 322.32 131.298 322.025 131.067C319.556 128.78 317.998 125.433 317.998 121.705C317.998 114.891 323.201 109.352 329.665 109.226C329.74 109.224 329.815 109.223 329.891 109.223C329.965 109.223 330.04 109.224 330.114 109.226C332.011 109.262 333.8 109.765 335.38 110.63ZM335.877 111.004C335.714 110.875 335.549 110.75 335.38 110.63C335.62 110.761 335.856 110.901 336.087 111.049C336.328 111.241 336.563 111.442 336.79 111.652C339.638 113.886 341.547 117.486 341.547 121.705C341.547 128.829 336.103 134.187 329.891 134.187C327.546 134.187 325.312 133.424 323.438 132.091C325.08 132.989 326.946 133.497 328.926 133.497C335.493 133.497 340.818 127.909 340.818 121.015C340.818 117.286 339.26 113.939 336.79 111.652C336.495 111.421 336.191 111.205 335.877 111.004ZM335.877 111.004C338.696 113.241 340.582 116.822 340.582 121.015C340.582 128.139 335.138 133.497 328.926 133.497C326.773 133.497 324.712 132.853 322.939 131.716C320.12 129.479 318.234 125.898 318.234 121.705C318.234 114.668 323.547 109.354 329.665 109.226C329.74 109.224 329.815 109.224 329.891 109.224C329.965 109.224 330.04 109.224 330.114 109.226C332.186 109.269 334.165 109.906 335.877 111.004ZM308.709 110.323L308.987 111.199L309.674 111.013L310.269 112.885L295.403 118.814L279.349 120.686L280.051 119.802L278.384 119.996L279.87 118.124L308.709 110.323ZM280.051 119.802L280.835 118.814L308.987 111.199L309.303 112.195L294.438 118.124L280.051 119.802ZM308.987 119.936L308.709 119.06L279.87 126.861L278.384 128.733L280.051 128.539L280.835 127.551L308.987 119.936ZM308.987 119.936L309.674 119.75L310.269 121.622L295.403 127.551L279.349 129.423L280.051 128.539L294.438 126.861L309.303 120.932L308.987 119.936Z" fill="#15F1FF"/>
<path d="M273.194 110.423L273.225 110.269L273.194 110.423ZM273.712 110.525L273.682 110.679L273.712 110.525ZM287.528 111.334L287.552 111.489L287.528 111.334ZM312.568 103.657L312.499 103.515L312.568 103.657ZM325.965 103.816L325.904 103.961L325.965 103.816ZM327.324 104.437L327.254 104.578L327.324 104.437ZM329.923 105.963L330.017 105.837C330.073 105.878 330.095 105.951 330.071 106.017C330.048 106.082 329.984 106.124 329.914 106.12L329.923 105.963ZM330.888 106.654L330.982 106.527C331.038 106.568 331.06 106.642 331.036 106.707C331.013 106.773 330.949 106.815 330.879 106.811L330.888 106.654ZM318.168 112.024L318.019 111.972C318.027 111.951 318.039 111.931 318.055 111.915L318.168 112.024ZM315.073 120.903L314.924 120.953C314.913 120.92 314.913 120.885 314.925 120.852L315.073 120.903ZM318.168 130.121L318.053 130.229C318.037 130.212 318.026 130.193 318.018 130.171L318.168 130.121ZM320.96 133.108L321.074 133C321.133 133.063 321.131 133.162 321.068 133.222C321.006 133.281 320.907 133.279 320.847 133.217L320.96 133.108ZM316.447 132.016L316.459 131.859L316.447 132.016ZM272.861 133.878L272.852 133.721L272.861 133.878ZM274.159 111.113L274.19 110.959L274.159 111.113ZM288.493 112.024L288.517 112.18L288.493 112.024ZM313.533 104.347L313.465 104.206L313.533 104.347ZM326.929 104.506L326.99 104.361H326.99L326.929 104.506ZM323.776 106.23L323.663 106.121C323.695 106.088 323.74 106.07 323.786 106.073L323.776 106.23ZM317.203 129.431L317.088 129.538C317.072 129.522 317.061 129.502 317.053 129.481L317.203 129.431ZM319.995 132.417L320.109 132.31C320.168 132.373 320.166 132.472 320.103 132.531C320.04 132.591 319.942 132.589 319.882 132.527L319.995 132.417ZM316.019 131.372L316.004 131.529H316.004L316.019 131.372ZM315.482 131.325L315.494 131.168L315.482 131.325ZM273.542 133.096L273.533 132.939L273.533 132.939L273.542 133.096ZM271.896 133.188L271.887 133.03H271.887L271.896 133.188ZM272.85 124.939H273.007C273.007 124.966 273 124.993 272.986 125.017L272.85 124.939ZM272.85 116.883L272.983 116.8C272.999 116.825 273.007 116.854 273.007 116.883H272.85ZM268.022 109.192L267.888 109.275C267.854 109.22 267.857 109.149 267.896 109.097C267.936 109.045 268.003 109.022 268.066 109.041L268.022 109.192ZM268.987 134.096L268.996 134.253C268.938 134.257 268.883 134.228 268.853 134.179C268.823 134.13 268.821 134.068 268.85 134.018L268.987 134.096ZM268.022 133.406L268.031 133.563C267.973 133.566 267.918 133.538 267.888 133.489C267.858 133.44 267.856 133.378 267.885 133.328L268.022 133.406ZM268.987 109.882L268.853 109.966C268.819 109.91 268.822 109.839 268.861 109.787C268.901 109.735 268.968 109.713 269.031 109.731L268.987 109.882ZM273.815 117.574L273.948 117.49C273.964 117.515 273.972 117.544 273.972 117.574H273.815ZM273.815 125.629H273.972C273.972 125.657 273.965 125.684 273.951 125.707L273.815 125.629ZM322.135 106.239L322.248 106.348L322.135 106.239ZM322.811 105.54L322.698 105.43C322.73 105.397 322.775 105.38 322.821 105.383L322.811 105.54ZM323.467 105.579L323.477 105.422L323.467 105.579ZM314.108 120.213L313.959 120.263C313.948 120.23 313.948 120.194 313.96 120.161L314.108 120.213ZM317.203 111.334L317.054 111.282C317.061 111.26 317.074 111.241 317.089 111.224L317.203 111.334ZM251.151 119.636L250.993 119.635L251.151 119.636ZM250.661 119.539H250.504C250.504 119.51 250.511 119.483 250.526 119.458L250.661 119.539ZM251.136 120.985L250.978 120.985L250.978 120.982L251.136 120.985ZM251.137 122.136L250.98 122.137V122.136L251.137 122.136ZM251.139 122.668L250.982 122.672L250.982 122.668L251.139 122.668ZM251.153 123.246L251.31 123.242C251.311 123.284 251.295 123.325 251.266 123.355C251.237 123.385 251.197 123.403 251.155 123.403L251.153 123.246ZM250.661 123.254L250.664 123.412C250.621 123.412 250.581 123.396 250.551 123.366C250.521 123.337 250.504 123.297 250.504 123.254H250.661ZM308.709 110.323L308.668 110.171C308.749 110.149 308.833 110.195 308.859 110.275L308.709 110.323ZM309.674 111.013L309.633 110.861C309.714 110.839 309.798 110.885 309.824 110.966L309.674 111.013ZM310.269 112.885L310.418 112.838C310.443 112.916 310.403 113.001 310.327 113.032L310.269 112.885ZM295.403 118.814L295.462 118.96C295.449 118.965 295.435 118.969 295.422 118.97L295.403 118.814ZM279.349 120.686L279.367 120.843C279.304 120.85 279.242 120.819 279.211 120.763C279.18 120.707 279.186 120.638 279.226 120.589L279.349 120.686ZM278.384 119.996L278.402 120.152C278.339 120.16 278.277 120.128 278.246 120.073C278.215 120.017 278.221 119.948 278.261 119.898L278.384 119.996ZM279.87 118.124L279.747 118.026C279.768 118 279.797 117.981 279.829 117.972L279.87 118.124ZM280.835 118.814L280.712 118.716C280.733 118.69 280.762 118.671 280.794 118.662L280.835 118.814ZM309.303 112.195L309.453 112.147C309.478 112.226 309.438 112.311 309.362 112.341L309.303 112.195ZM294.438 118.124L294.497 118.27C294.484 118.275 294.47 118.278 294.456 118.28L294.438 118.124ZM308.709 119.06L308.668 118.908C308.749 118.886 308.833 118.932 308.859 119.012L308.709 119.06ZM279.87 126.861L279.747 126.763C279.768 126.737 279.797 126.718 279.829 126.709L279.87 126.861ZM278.384 128.733L278.402 128.889C278.339 128.897 278.277 128.865 278.246 128.81C278.215 128.754 278.221 128.685 278.261 128.635L278.384 128.733ZM280.835 127.551L280.712 127.453C280.733 127.427 280.762 127.408 280.794 127.399L280.835 127.551ZM309.674 119.75L309.633 119.598C309.714 119.576 309.798 119.622 309.824 119.702L309.674 119.75ZM310.269 121.622L310.418 121.574C310.443 121.653 310.403 121.738 310.327 121.768L310.269 121.622ZM295.403 127.551L295.462 127.697C295.449 127.702 295.435 127.706 295.422 127.707L295.403 127.551ZM279.349 129.423L279.367 129.579C279.304 129.587 279.242 129.555 279.211 129.5C279.18 129.444 279.186 129.375 279.226 129.325L279.349 129.423ZM294.438 126.861L294.497 127.007C294.484 127.012 294.47 127.016 294.456 127.017L294.438 126.861ZM309.303 120.932L309.453 120.885C309.478 120.963 309.438 121.048 309.362 121.078L309.303 120.932ZM329.056 105.578C328.748 105.387 328.355 105.155 327.888 104.905L328.037 104.628C328.51 104.882 328.909 105.117 329.222 105.311L329.056 105.578ZM329.131 105.287C329.383 105.274 329.636 105.268 329.891 105.268V105.583C329.641 105.583 329.394 105.589 329.147 105.601L329.131 105.287ZM329.891 105.268C332.919 105.268 335.756 106.18 338.159 107.763L337.986 108.025C335.632 106.475 332.854 105.583 329.891 105.583V105.268ZM337.977 108.018C335.435 106.05 332.301 104.893 328.926 104.893V104.578C332.374 104.578 335.575 105.761 338.169 107.77L337.977 108.018ZM328.926 104.893C328.606 104.893 328.288 104.903 327.973 104.924L327.952 104.61C328.274 104.589 328.599 104.578 328.926 104.578V104.893ZM273.163 110.577C272.663 110.477 272.189 110.377 271.745 110.279L271.812 109.972C272.255 110.069 272.727 110.169 273.225 110.269L273.163 110.577ZM273.682 110.679C273.506 110.645 273.333 110.611 273.163 110.577L273.225 110.269C273.394 110.303 273.567 110.336 273.742 110.37L273.682 110.679ZM287.552 111.489C283.155 112.165 277.705 111.456 273.682 110.679L273.742 110.37C277.758 111.145 283.163 111.845 287.504 111.178L287.552 111.489ZM312.636 103.799C304.026 107.962 294.217 110.465 287.552 111.489L287.504 111.178C294.146 110.158 303.924 107.662 312.499 103.515L312.636 103.799ZM325.904 103.961C322.567 102.565 317.57 101.413 312.636 103.799L312.499 103.515C317.55 101.073 322.652 102.26 326.026 103.671L325.904 103.961ZM327.254 104.578C326.844 104.374 326.392 104.165 325.904 103.961L326.026 103.671C326.52 103.878 326.978 104.09 327.394 104.296L327.254 104.578ZM327.888 104.905C327.69 104.799 327.478 104.689 327.254 104.578L327.394 104.296C327.621 104.409 327.835 104.52 328.037 104.628L327.888 104.905ZM327.973 104.924C327.85 104.932 327.727 104.941 327.605 104.952L327.577 104.639C327.702 104.628 327.827 104.618 327.952 104.61L327.973 104.924ZM327.656 104.652C328.152 104.879 328.603 105.105 329.001 105.318L328.852 105.595C328.46 105.385 328.015 105.162 327.526 104.939L327.656 104.652ZM328.916 105.3C328.988 105.295 329.059 105.291 329.131 105.287L329.147 105.601C329.077 105.605 329.007 105.609 328.937 105.614L328.916 105.3ZM329.923 105.963C329.83 106.09 329.83 106.09 329.83 106.09C329.83 106.09 329.83 106.09 329.83 106.09C329.83 106.09 329.83 106.09 329.83 106.09C329.83 106.09 329.83 106.09 329.83 106.09C329.83 106.09 329.83 106.09 329.829 106.089C329.829 106.089 329.828 106.089 329.827 106.088C329.825 106.086 329.822 106.084 329.818 106.081C329.81 106.075 329.797 106.066 329.781 106.054C329.748 106.031 329.698 105.996 329.632 105.951C329.501 105.862 329.307 105.734 329.056 105.578L329.222 105.311C329.477 105.469 329.675 105.6 329.81 105.691C329.877 105.737 329.928 105.773 329.963 105.798C329.98 105.81 329.994 105.82 330.003 105.826C330.007 105.83 330.011 105.832 330.013 105.834C330.014 105.835 330.015 105.835 330.016 105.836C330.016 105.836 330.016 105.836 330.016 105.836C330.016 105.836 330.016 105.836 330.017 105.836C330.017 105.836 330.017 105.836 330.017 105.836C330.017 105.837 330.017 105.837 330.017 105.837C330.017 105.837 330.017 105.837 329.923 105.963ZM329.82 105.799L329.933 105.806L329.914 106.12L329.802 106.114L329.82 105.799ZM330.888 106.654C330.795 106.78 330.795 106.78 330.795 106.78C330.795 106.78 330.795 106.78 330.795 106.78C330.795 106.78 330.795 106.78 330.795 106.78C330.795 106.78 330.795 106.78 330.795 106.78C330.795 106.78 330.795 106.78 330.794 106.78C330.794 106.779 330.793 106.778 330.791 106.777C330.788 106.775 330.784 106.772 330.778 106.768C330.767 106.76 330.75 106.747 330.727 106.731C330.68 106.699 330.611 106.651 330.521 106.59C330.34 106.469 330.073 106.296 329.73 106.092L329.892 105.821C330.24 106.029 330.511 106.205 330.696 106.329C330.789 106.391 330.86 106.44 330.908 106.474C330.932 106.491 330.95 106.504 330.962 106.513C330.969 106.517 330.973 106.521 330.977 106.523C330.978 106.524 330.979 106.525 330.98 106.526C330.981 106.526 330.981 106.526 330.981 106.527C330.981 106.527 330.981 106.527 330.982 106.527C330.982 106.527 330.982 106.527 330.982 106.527C330.982 106.527 330.982 106.527 330.982 106.527C330.982 106.527 330.982 106.527 330.888 106.654ZM324.904 106.14L330.898 106.496L330.879 106.811L324.886 106.454L324.904 106.14ZM324.948 106.445C324.232 106.702 323.54 107.015 322.875 107.377L322.725 107.1C323.403 106.731 324.111 106.412 324.842 106.149L324.948 106.445ZM322.913 107.348L318.281 112.134L318.055 111.915L322.687 107.129L322.913 107.348ZM318.316 112.076L315.222 120.955L314.925 120.852L318.019 111.972L318.316 112.076ZM315.222 120.853L318.317 130.071L318.018 130.171L314.924 120.953L315.222 120.853ZM318.282 130.014L321.074 133L320.845 133.215L318.053 130.229L318.282 130.014ZM320.96 133.108C320.847 133.217 320.847 133.217 320.847 133.218C320.847 133.218 320.847 133.218 320.847 133.218C320.847 133.218 320.847 133.218 320.847 133.218C320.847 133.218 320.848 133.218 320.848 133.219C320.848 133.219 320.848 133.219 320.848 133.219C320.848 133.219 320.848 133.218 320.846 133.217C320.844 133.215 320.839 133.211 320.832 133.205C320.817 133.192 320.791 133.172 320.751 133.146C320.673 133.094 320.54 133.018 320.334 132.929C319.92 132.752 319.212 132.527 318.049 132.352L318.096 132.041C319.278 132.219 320.014 132.45 320.458 132.64C320.68 132.735 320.829 132.82 320.925 132.884C320.973 132.916 321.008 132.942 321.032 132.962C321.044 132.971 321.053 132.98 321.059 132.986C321.063 132.989 321.066 132.991 321.068 132.994C321.069 132.995 321.07 132.995 321.071 132.996C321.071 132.997 321.071 132.997 321.072 132.997C321.072 132.998 321.072 132.998 321.072 132.998C321.072 132.998 321.072 132.998 321.072 132.998C321.072 132.998 321.073 132.998 320.96 133.108ZM318.195 132.098C318.976 133.072 319.864 133.946 320.84 134.702L320.647 134.95C319.652 134.18 318.746 133.288 317.949 132.295L318.195 132.098ZM320.83 134.695C323.184 136.245 325.962 137.137 328.926 137.137V137.452C325.897 137.452 323.06 136.54 320.657 134.957L320.83 134.695ZM328.926 137.137C337.313 137.137 344.223 129.981 344.223 121.015H344.537C344.537 130.141 337.501 137.452 328.926 137.452V137.137ZM344.223 121.015C344.223 115.657 341.754 110.943 337.977 108.018L338.169 107.77C342.023 110.754 344.537 115.559 344.537 121.015H344.223ZM338.159 107.763C342.559 110.659 345.502 115.801 345.502 121.705H345.188C345.188 115.907 342.298 110.864 337.986 108.025L338.159 107.763ZM345.502 121.705C345.502 130.831 338.466 138.142 329.891 138.142V137.827C338.278 137.827 345.188 130.671 345.188 121.705H345.502ZM329.891 138.142C326.442 138.142 323.241 136.959 320.647 134.95L320.84 134.702C323.381 136.67 326.516 137.827 329.891 137.827V138.142ZM320.657 134.957C319.502 134.197 318.448 133.283 317.521 132.241L317.757 132.032C318.666 133.054 319.699 133.95 320.83 134.695L320.657 134.957ZM317.619 132.292C317.263 132.247 316.869 132.206 316.435 132.172L316.459 131.859C316.898 131.893 317.297 131.934 317.659 131.98L317.619 132.292ZM316.435 132.172C315.619 132.109 314.659 132.071 313.533 132.071V131.756C314.666 131.756 315.634 131.795 316.459 131.859L316.435 132.172ZM313.533 132.071C308.498 132.071 282.76 133.482 272.869 134.035L272.852 133.721C282.735 133.168 308.486 131.756 313.533 131.756V132.071ZM272.869 134.035C272.194 134.073 271.593 134.107 271.077 134.136L271.059 133.821C271.575 133.792 272.176 133.759 272.852 133.721L272.869 134.035ZM271.174 134.094C268.424 136.618 264.829 138.142 260.916 138.142V137.827C264.746 137.827 268.266 136.337 270.962 133.863L271.174 134.094ZM260.916 138.142C257.467 138.142 254.266 136.959 251.672 134.95L251.865 134.702C254.407 136.67 257.541 137.827 260.916 137.827V138.142ZM251.682 134.957C247.283 132.061 244.339 126.919 244.339 121.015H244.654C244.654 126.813 247.544 131.856 251.855 134.695L251.682 134.957ZM244.339 121.015C244.339 111.889 251.376 104.578 259.951 104.578V104.893C251.563 104.893 244.654 112.049 244.654 121.015H244.339ZM259.951 104.578C263.4 104.578 266.601 105.761 269.195 107.77L269.002 108.019C266.46 106.051 263.326 104.893 259.951 104.893V104.578ZM269.185 107.763C270.165 108.408 271.073 109.165 271.892 110.016L271.665 110.235C270.862 109.399 269.972 108.658 269.012 108.026L269.185 107.763ZM271.745 110.279C271.601 110.248 271.461 110.216 271.324 110.185L271.393 109.878C271.53 109.909 271.669 109.94 271.812 109.972L271.745 110.279ZM271.892 110.016C272.08 110.212 272.264 110.413 272.443 110.619L272.205 110.826C272.03 110.624 271.85 110.427 271.665 110.235L271.892 110.016ZM272.359 110.569C272.918 110.695 273.532 110.827 274.19 110.959L274.128 111.268C273.468 111.135 272.851 111.003 272.29 110.876L272.359 110.569ZM274.19 110.959C278.249 111.772 283.939 112.565 288.47 111.869L288.517 112.18C283.929 112.885 278.193 112.082 274.128 111.268L274.19 110.959ZM288.47 111.869C295.111 110.848 304.889 108.352 313.465 104.206L313.601 104.489C304.992 108.652 295.182 111.156 288.517 112.18L288.47 111.869ZM313.465 104.206C318.515 101.764 323.616 102.95 326.99 104.361L326.868 104.651C323.532 103.255 318.535 102.104 313.601 104.489L313.465 104.206ZM326.99 104.361C327.22 104.458 327.442 104.555 327.656 104.652L327.526 104.939C327.315 104.843 327.096 104.746 326.868 104.651L326.99 104.361ZM327.605 104.952C326.35 105.066 325.137 105.339 323.985 105.754L323.878 105.458C325.055 105.034 326.295 104.755 327.577 104.639L327.605 104.952ZM323.941 105.449L326.719 105.615L326.7 105.929L323.922 105.763L323.941 105.449ZM326.675 105.618C327.406 105.457 328.154 105.349 328.916 105.3L328.937 105.614C328.19 105.662 327.458 105.767 326.743 105.925L326.675 105.618ZM329.001 105.318C329.337 105.498 329.635 105.668 329.892 105.821L329.73 106.092C329.478 105.941 329.184 105.773 328.852 105.595L329.001 105.318ZM329.802 106.114L326.7 105.929L326.719 105.615L329.82 105.799L329.802 106.114ZM326.743 105.925C326.131 106.061 325.532 106.234 324.948 106.445L324.842 106.149C325.438 105.934 326.05 105.756 326.675 105.618L326.743 105.925ZM323.786 106.073L324.904 106.14L324.886 106.454L323.767 106.387L323.786 106.073ZM322.687 107.129L323.663 106.121L323.889 106.339L322.913 107.348L322.687 107.129ZM316.137 113.917C317.63 111.001 319.935 108.621 322.725 107.1L322.875 107.377C320.142 108.866 317.882 111.199 316.417 114.06L316.137 113.917ZM316.426 114.04L314.921 118.359L314.624 118.255L316.129 113.936L316.426 114.04ZM314.286 121.206C314.314 120.204 314.427 119.224 314.618 118.276L314.927 118.338C314.739 119.269 314.628 120.23 314.6 121.215L314.286 121.206ZM317.053 129.481L314.294 121.261L314.592 121.161L317.352 129.381L317.053 129.481ZM319.88 132.525L317.088 129.538L317.317 129.324L320.109 132.31L319.88 132.525ZM317.637 131.434C318.608 131.612 319.218 131.822 319.588 131.992C319.774 132.077 319.899 132.152 319.981 132.208C320.022 132.235 320.051 132.258 320.072 132.276C320.082 132.284 320.09 132.291 320.096 132.297C320.099 132.299 320.101 132.302 320.103 132.304C320.104 132.305 320.105 132.305 320.106 132.306C320.106 132.306 320.106 132.307 320.107 132.307C320.107 132.307 320.107 132.307 320.107 132.308C320.107 132.308 320.107 132.308 320.107 132.308C320.107 132.308 320.107 132.308 319.995 132.417C319.882 132.527 319.882 132.527 319.882 132.527C319.882 132.527 319.882 132.527 319.882 132.527C319.882 132.527 319.882 132.528 319.882 132.528C319.882 132.528 319.883 132.528 319.883 132.528C319.883 132.528 319.883 132.528 319.883 132.529C319.883 132.529 319.883 132.528 319.882 132.527C319.88 132.526 319.876 132.522 319.87 132.517C319.858 132.507 319.836 132.49 319.803 132.467C319.738 132.423 319.628 132.356 319.457 132.278C319.116 132.121 318.532 131.918 317.58 131.744L317.637 131.434ZM317.736 131.496C317.884 131.701 318.037 131.901 318.195 132.098L317.949 132.295C317.789 132.094 317.633 131.89 317.481 131.682L317.736 131.496ZM318.049 132.352C317.912 132.331 317.769 132.311 317.619 132.292L317.659 131.98C317.811 131.999 317.956 132.02 318.096 132.041L318.049 132.352ZM317.521 132.241C317.337 132.033 317.158 131.821 316.984 131.604L317.229 131.407C317.4 131.62 317.576 131.828 317.757 132.032L317.521 132.241ZM316.035 131.216C316.437 131.255 316.801 131.301 317.13 131.35L317.083 131.661C316.76 131.613 316.401 131.568 316.004 131.529L316.035 131.216ZM315.494 131.168C315.681 131.183 315.862 131.199 316.035 131.216L316.004 131.529C315.833 131.512 315.655 131.496 315.47 131.482L315.494 131.168ZM312.568 131.066C313.701 131.066 314.669 131.104 315.494 131.168L315.47 131.482C314.653 131.419 313.694 131.38 312.568 131.38V131.066ZM273.533 132.939C284.364 132.336 307.78 131.066 312.568 131.066V131.38C307.792 131.38 284.388 132.65 273.551 133.253L273.533 132.939ZM271.887 133.03L273.533 132.939L273.551 133.253L271.905 133.345L271.887 133.03ZM271.861 133.032L271.887 133.03L271.905 133.345L271.878 133.346L271.861 133.032ZM271.984 133.297C271.723 133.573 271.453 133.839 271.174 134.094L270.962 133.863C271.235 133.612 271.5 133.351 271.755 133.081L271.984 133.297ZM271.077 134.136C270.127 134.189 269.467 134.226 269.171 134.243L269.154 133.929C269.449 133.912 270.109 133.875 271.059 133.821L271.077 134.136ZM269.259 134.21C266.654 136.249 263.428 137.452 259.951 137.452V137.137C263.354 137.137 266.512 135.96 269.066 133.962L269.259 134.21ZM259.951 137.452C256.923 137.452 254.085 136.54 251.682 134.957L251.855 134.695C254.209 136.245 256.987 137.137 259.951 137.137V137.452ZM251.672 134.95C247.818 131.966 245.304 127.161 245.304 121.705H245.619C245.619 127.063 248.087 131.777 251.865 134.702L251.672 134.95ZM245.304 121.705C245.304 112.579 252.341 105.268 260.916 105.268V105.583C252.528 105.583 245.619 112.739 245.619 121.705H245.304ZM260.916 105.268C263.944 105.268 266.782 106.18 269.185 107.763L269.012 108.026C266.658 106.475 263.88 105.583 260.916 105.583V105.268ZM269.195 107.77C270.021 108.41 270.786 109.133 271.477 109.929L271.24 110.135C270.562 109.355 269.812 108.646 269.002 108.019L269.195 107.77ZM272.986 125.017L271.872 126.971L271.599 126.815L272.713 124.861L272.986 125.017ZM273.007 116.883V124.939H272.692V116.883H273.007ZM268.155 109.108L272.983 116.8L272.716 116.967L267.888 109.275L268.155 109.108ZM271.324 110.185C270.305 109.955 269.469 109.745 268.887 109.592C268.597 109.515 268.369 109.453 268.215 109.41C268.137 109.388 268.078 109.372 268.038 109.36C268.018 109.355 268.003 109.35 267.993 109.347C267.988 109.346 267.984 109.345 267.981 109.344C267.98 109.344 267.979 109.343 267.979 109.343C267.978 109.343 267.978 109.343 267.978 109.343C267.978 109.343 267.978 109.343 267.978 109.343C267.978 109.343 267.978 109.343 267.978 109.343C267.977 109.343 267.977 109.343 268.022 109.192C268.066 109.041 268.066 109.041 268.066 109.041C268.066 109.041 268.066 109.041 268.066 109.041C268.066 109.041 268.066 109.041 268.066 109.041C268.066 109.041 268.066 109.041 268.067 109.041C268.067 109.041 268.068 109.041 268.069 109.042C268.072 109.042 268.076 109.044 268.08 109.045C268.09 109.048 268.105 109.052 268.125 109.058C268.164 109.069 268.223 109.086 268.299 109.107C268.453 109.15 268.678 109.211 268.968 109.288C269.546 109.44 270.378 109.649 271.393 109.878L271.324 110.185ZM271.477 109.929C271.643 110.12 271.805 110.315 271.962 110.514L271.715 110.709C271.561 110.514 271.403 110.322 271.24 110.135L271.477 109.929ZM271.874 110.458C272.031 110.494 272.192 110.531 272.359 110.569L272.29 110.876C272.122 110.838 271.96 110.801 271.803 110.764L271.874 110.458ZM272.443 110.619C274.976 113.535 276.528 117.419 276.528 121.705H276.213C276.213 117.496 274.69 113.685 272.205 110.826L272.443 110.619ZM276.528 121.705C276.528 126.244 274.788 130.333 271.984 133.297L271.755 133.081C274.505 130.174 276.213 126.163 276.213 121.705H276.528ZM270.095 133.131C270.604 133.102 271.196 133.069 271.861 133.032L271.878 133.346C271.214 133.383 270.621 133.417 270.112 133.445L270.095 133.131ZM269.066 133.962C269.386 133.712 269.697 133.448 269.997 133.172L270.21 133.404C269.903 133.685 269.586 133.954 269.259 134.21L269.066 133.962ZM268.978 133.939L269.154 133.929L269.171 134.243L268.996 134.253L268.978 133.939ZM269.562 133.404L269.123 134.174L268.85 134.018L269.289 133.248L269.562 133.404ZM268.022 133.406C268.013 133.249 268.013 133.249 268.013 133.249C268.013 133.249 268.013 133.249 268.013 133.249C268.013 133.249 268.013 133.249 268.013 133.249C268.013 133.249 268.013 133.249 268.013 133.249C268.013 133.249 268.014 133.249 268.014 133.249C268.015 133.249 268.017 133.249 268.019 133.248C268.022 133.248 268.028 133.248 268.036 133.247C268.052 133.247 268.075 133.245 268.105 133.243C268.167 133.24 268.258 133.235 268.377 133.228C268.615 133.215 268.966 133.195 269.417 133.169L269.435 133.483C268.984 133.509 268.633 133.529 268.395 133.542C268.276 133.549 268.185 133.554 268.123 133.558C268.093 133.559 268.069 133.561 268.054 133.562C268.046 133.562 268.04 133.562 268.036 133.563C268.034 133.563 268.033 133.563 268.032 133.563C268.032 133.563 268.031 133.563 268.031 133.563C268.031 133.563 268.031 133.563 268.031 133.563C268.031 133.563 268.031 133.563 268.031 133.563C268.031 133.563 268.031 133.563 268.031 133.563C268.031 133.563 268.031 133.563 268.022 133.406ZM270.532 129.321L268.158 133.484L267.885 133.328L270.259 129.165L270.532 129.321ZM260.916 134.029C264.731 134.029 268.123 132.117 270.268 129.151L270.523 129.335C268.324 132.377 264.84 134.344 260.916 134.344V134.029ZM253.853 131.548C255.818 133.106 258.265 134.029 260.916 134.029V134.344C258.19 134.344 255.675 133.394 253.657 131.794L253.853 131.548ZM253.67 131.803C250.208 129.581 247.901 125.58 247.901 121.015H248.216C248.216 125.473 250.469 129.375 253.84 131.539L253.67 131.803ZM247.901 121.015C247.901 114.121 253.167 108.505 259.725 108.379L259.731 108.693C253.358 108.816 248.216 114.279 248.216 121.015H247.901ZM259.724 108.379C259.8 108.377 259.875 108.376 259.951 108.376V108.691C259.877 108.691 259.804 108.692 259.731 108.693L259.724 108.379ZM259.951 108.376C260.028 108.376 260.104 108.377 260.181 108.379L260.174 108.693C260.1 108.692 260.026 108.691 259.951 108.691V108.376ZM260.181 108.379C262.818 108.43 265.248 109.371 267.21 110.926L267.014 111.173C265.104 109.658 262.74 108.744 260.175 108.693L260.181 108.379ZM272.651 121.705C272.651 117.248 270.398 113.346 267.027 111.182L267.197 110.917C270.658 113.139 272.965 117.141 272.965 121.705H272.651ZM271.591 126.83C272.271 125.27 272.651 123.534 272.651 121.705H272.965C272.965 123.578 272.577 125.356 271.88 126.956L271.591 126.83ZM267.027 111.182C266.8 111.036 266.567 110.898 266.33 110.768L266.481 110.492C266.725 110.626 266.964 110.767 267.197 110.917L267.027 111.182ZM267.21 110.926C267.454 111.12 267.692 111.323 267.921 111.536L267.707 111.767C267.484 111.56 267.252 111.362 267.014 111.173L267.21 110.926ZM267.911 111.528C270.797 113.791 272.73 117.437 272.73 121.705H272.415C272.415 117.534 270.528 113.98 267.717 111.775L267.911 111.528ZM272.73 121.705C272.73 128.909 267.222 134.344 260.916 134.344V134.029C267.036 134.029 272.415 128.748 272.415 121.705H272.73ZM260.916 134.344C258.538 134.344 256.272 133.57 254.373 132.22L254.555 131.963C256.404 133.278 258.607 134.029 260.916 134.029V134.344ZM254.388 132.23C254.144 132.096 253.904 131.954 253.67 131.803L253.84 131.539C254.068 131.685 254.301 131.824 254.539 131.954L254.388 132.23ZM253.156 130.951C253.381 131.159 253.613 131.358 253.853 131.548L253.657 131.794C253.411 131.599 253.173 131.395 252.942 131.181L253.156 130.951ZM252.952 131.19C250.068 128.926 248.137 125.282 248.137 121.015H248.452C248.452 125.184 250.338 128.738 253.146 130.942L252.952 131.19ZM248.137 121.015C248.137 113.897 253.514 108.507 259.724 108.379L259.731 108.693C253.703 108.818 248.452 114.057 248.452 121.015H248.137ZM259.725 108.379C259.8 108.377 259.875 108.376 259.951 108.376V108.691C259.877 108.691 259.804 108.692 259.731 108.693L259.725 108.379ZM259.951 108.376C260.028 108.376 260.104 108.377 260.181 108.379L260.175 108.693C260.1 108.692 260.026 108.691 259.951 108.691V108.376ZM260.181 108.379C262.477 108.427 264.659 109.194 266.497 110.502L266.315 110.759C264.525 109.485 262.403 108.74 260.174 108.693L260.181 108.379ZM266.33 110.768C264.772 109.916 263.009 109.42 261.139 109.383L261.145 109.068C263.068 109.106 264.88 109.616 266.481 110.492L266.33 110.768ZM266.497 110.502C266.668 110.624 266.836 110.75 267.001 110.881L266.805 111.127C266.645 111 266.481 110.877 266.315 110.759L266.497 110.502ZM266.988 110.872C267.305 111.075 267.613 111.294 267.911 111.528L267.717 111.775C267.427 111.548 267.127 111.334 266.818 111.136L266.988 110.872ZM267.921 111.536C270.423 113.853 272 117.242 272 121.015H271.686C271.686 117.33 270.146 114.025 267.707 111.767L267.921 111.536ZM272 121.015C272 127.988 266.613 133.654 259.951 133.654V133.34C266.425 133.34 271.686 127.829 271.686 121.015H272ZM259.951 133.654C257.944 133.654 256.052 133.14 254.388 132.23L254.539 131.954C256.159 132.839 257.999 133.34 259.951 133.34V133.654ZM254.373 132.22C254.201 132.098 254.032 131.971 253.866 131.84L254.062 131.593C254.223 131.721 254.388 131.845 254.555 131.963L254.373 132.22ZM253.879 131.849C253.561 131.644 253.251 131.425 252.952 131.19L253.146 130.942C253.438 131.171 253.739 131.385 254.049 131.584L253.879 131.849ZM249.181 121.705C249.181 125.389 250.719 128.693 253.156 130.951L252.942 131.181C250.442 128.865 248.866 125.477 248.866 121.705H249.181ZM260.696 109.383C254.323 109.506 249.181 114.969 249.181 121.705H248.866C248.866 114.811 254.132 109.195 260.69 109.068L260.696 109.383ZM260.916 109.381C260.843 109.381 260.769 109.381 260.696 109.383L260.69 109.068C260.765 109.067 260.84 109.066 260.916 109.066V109.381ZM261.139 109.383C261.065 109.381 260.99 109.381 260.916 109.381V109.066C260.993 109.066 261.069 109.067 261.146 109.068L261.139 109.383ZM260.916 109.066C260.993 109.066 261.069 109.067 261.145 109.068L261.139 109.383C261.065 109.382 260.991 109.381 260.916 109.381V109.066ZM260.69 109.068C260.765 109.067 260.84 109.066 260.916 109.066V109.381C260.842 109.381 260.769 109.382 260.696 109.383L260.69 109.068ZM249.102 121.705C249.102 114.587 254.479 109.197 260.69 109.068L260.696 109.383C254.668 109.508 249.417 114.746 249.417 121.705H249.102ZM253.866 131.84C251.01 129.573 249.102 125.946 249.102 121.705H249.417C249.417 125.85 251.281 129.386 254.062 131.593L253.866 131.84ZM259.951 133.654C257.766 133.654 255.677 133.001 253.879 131.849L254.049 131.584C255.799 132.706 257.83 133.339 259.951 133.339V133.654ZM271.765 121.015C271.765 128.219 266.257 133.654 259.951 133.654V133.339C266.071 133.339 271.45 128.058 271.45 121.015H271.765ZM267.001 110.881C269.857 113.147 271.765 116.774 271.765 121.015H271.45C271.45 116.87 269.586 113.335 266.805 111.127L267.001 110.881ZM261.146 109.068C263.247 109.113 265.253 109.759 266.988 110.872L266.818 111.136C265.13 110.054 263.179 109.426 261.139 109.383L261.146 109.068ZM270.259 129.165L271.599 126.815L271.872 126.971L270.532 129.321L270.259 129.165ZM271.88 126.956C271.51 127.803 271.054 128.601 270.523 129.335L270.268 129.151C270.786 128.435 271.231 127.657 271.591 126.83L271.88 126.956ZM270.112 133.445L269.435 133.483L269.417 133.169L270.095 133.131L270.112 133.445ZM275.563 121.015C275.563 125.976 273.484 130.399 270.21 133.404L269.997 133.172C273.207 130.226 275.248 125.887 275.248 121.015H275.563ZM271.962 110.514C274.208 113.355 275.563 117.009 275.563 121.015H275.248C275.248 117.081 273.918 113.495 271.715 110.709L271.962 110.514ZM268.987 109.882C269.031 109.731 269.031 109.731 269.031 109.731C269.031 109.731 269.031 109.731 269.031 109.731C269.031 109.731 269.031 109.731 269.031 109.731C269.031 109.731 269.031 109.731 269.032 109.731C269.032 109.731 269.033 109.732 269.034 109.732C269.036 109.733 269.039 109.734 269.043 109.735C269.051 109.737 269.064 109.741 269.081 109.745C269.114 109.755 269.163 109.769 269.228 109.787C269.358 109.823 269.549 109.876 269.796 109.942C270.288 110.073 270.999 110.254 271.874 110.458L271.803 110.764C270.925 110.56 270.21 110.377 269.715 110.246C269.467 110.18 269.274 110.127 269.143 110.09C269.078 110.072 269.028 110.058 268.994 110.048C268.977 110.043 268.964 110.039 268.956 110.037C268.951 110.036 268.948 110.035 268.946 110.034C268.945 110.034 268.944 110.034 268.943 110.033C268.943 110.033 268.943 110.033 268.943 110.033C268.943 110.033 268.943 110.033 268.943 110.033C268.943 110.033 268.943 110.033 268.943 110.033C268.943 110.033 268.943 110.033 268.987 109.882ZM273.681 117.657L268.853 109.966L269.12 109.798L273.948 117.49L273.681 117.657ZM273.657 125.629V117.574H273.972V125.629H273.657ZM269.289 133.248L273.678 125.552L273.951 125.707L269.562 133.404L269.289 133.248ZM321.721 106.44L322.022 106.129L322.248 106.348L321.947 106.659L321.721 106.44ZM322.022 106.129L322.698 105.43L322.924 105.649L322.248 106.348L322.022 106.129ZM322.821 105.383L323.477 105.422L323.458 105.736L322.802 105.697L322.821 105.383ZM323.477 105.422L323.941 105.449L323.922 105.763L323.458 105.736L323.477 105.422ZM323.985 105.754C323.268 106.012 322.575 106.325 321.909 106.687L321.759 106.411C322.438 106.041 323.146 105.722 323.878 105.458L323.985 105.754ZM313.314 121.015C313.314 114.631 316.756 109.138 321.759 106.411L321.909 106.687C317.008 109.359 313.628 114.746 313.628 121.015H313.314ZM316.984 131.604C314.697 128.751 313.314 125.062 313.314 121.015H313.628C313.628 124.989 314.986 128.609 317.229 131.407L316.984 131.604ZM317.13 131.35C317.309 131.377 317.478 131.405 317.637 131.434L317.58 131.744C317.425 131.715 317.259 131.688 317.083 131.661L317.13 131.35ZM314.593 121.705C314.593 125.401 315.768 128.79 317.736 131.496L317.481 131.682C315.475 128.922 314.279 125.468 314.279 121.705H314.593ZM314.6 121.215C314.596 121.378 314.593 121.541 314.593 121.705H314.279C314.279 121.538 314.281 121.372 314.286 121.206L314.6 121.215ZM314.257 120.163L314.592 121.161L314.294 121.261L313.959 120.263L314.257 120.163ZM314.921 118.359L314.257 120.265L313.96 120.161L314.624 118.255L314.921 118.359ZM314.618 118.276C314.929 116.73 315.446 115.266 316.137 113.917L316.417 114.06C315.739 115.384 315.232 116.82 314.927 118.338L314.618 118.276ZM317.351 111.386L316.426 114.04L316.129 113.936L317.054 111.282L317.351 111.386ZM321.947 106.659L317.316 111.443L317.089 111.224L321.721 106.44L321.947 106.659ZM250.993 119.635C250.994 119.524 250.988 119.446 250.977 119.394C250.967 119.338 250.955 119.326 250.958 119.33C250.969 119.343 250.994 119.354 251.018 119.351C251.029 119.35 251.025 119.347 251.003 119.363C250.961 119.395 250.911 119.454 250.866 119.515C250.845 119.544 250.827 119.571 250.814 119.59C250.808 119.599 250.804 119.607 250.8 119.612C250.799 119.615 250.798 119.617 250.797 119.618C250.797 119.618 250.796 119.619 250.796 119.619C250.796 119.619 250.796 119.619 250.796 119.619C250.796 119.619 250.796 119.619 250.796 119.619C250.796 119.619 250.796 119.619 250.796 119.619C250.796 119.619 250.796 119.619 250.661 119.539C250.526 119.458 250.526 119.458 250.526 119.458C250.526 119.458 250.526 119.458 250.526 119.458C250.526 119.458 250.526 119.458 250.526 119.458C250.526 119.458 250.526 119.457 250.526 119.457C250.527 119.457 250.527 119.456 250.528 119.455C250.529 119.453 250.531 119.45 250.533 119.447C250.537 119.44 250.543 119.431 250.55 119.419C250.565 119.396 250.586 119.365 250.611 119.33C250.66 119.264 250.733 119.172 250.814 119.111C250.854 119.081 250.912 119.047 250.981 119.039C251.062 119.029 251.14 119.059 251.197 119.124C251.245 119.181 251.271 119.257 251.286 119.334C251.302 119.415 251.309 119.515 251.308 119.638L250.993 119.635ZM251.136 120.985C250.978 120.982 250.978 120.982 250.978 120.982C250.978 120.982 250.978 120.982 250.978 120.982C250.978 120.982 250.978 120.982 250.978 120.982C250.978 120.982 250.978 120.982 250.978 120.982C250.978 120.982 250.978 120.981 250.978 120.981C250.978 120.98 250.978 120.979 250.978 120.977C250.978 120.974 250.978 120.969 250.979 120.963C250.979 120.95 250.979 120.93 250.98 120.903C250.98 120.85 250.981 120.769 250.983 120.659C250.986 120.439 250.989 120.102 250.993 119.635L251.308 119.638C251.304 120.105 251.3 120.443 251.298 120.663C251.296 120.773 251.295 120.855 251.294 120.908C251.294 120.935 251.293 120.955 251.293 120.968C251.293 120.975 251.293 120.98 251.293 120.983C251.293 120.985 251.293 120.986 251.293 120.987C251.293 120.987 251.293 120.987 251.293 120.988C251.293 120.988 251.293 120.988 251.293 120.988C251.293 120.988 251.293 120.988 251.293 120.988C251.293 120.988 251.293 120.988 251.293 120.988C251.293 120.988 251.293 120.988 251.136 120.985ZM250.98 122.136L250.978 120.985L251.293 120.985L251.295 122.136L250.98 122.136ZM250.982 122.668L250.98 122.137L251.295 122.136L251.296 122.667L250.982 122.668ZM250.995 123.25L250.982 122.672L251.296 122.664L251.31 123.242L250.995 123.25ZM250.73 123.096L251.15 123.089L251.155 123.403L250.735 123.41L250.73 123.096ZM255.083 129.805C252.851 128.412 251.175 126.086 250.579 123.286L250.887 123.22C251.465 125.937 253.09 128.19 255.25 129.538L255.083 129.805ZM255.067 129.794C252.797 127.947 251.307 125.043 251.307 121.705H251.621C251.621 124.948 253.068 127.763 255.266 129.55L255.067 129.794ZM251.307 121.705C251.307 115.967 255.712 111.507 260.916 111.507V111.821C255.899 111.821 251.621 116.127 251.621 121.705H251.307ZM260.916 111.507C262.676 111.507 264.345 112.017 265.784 112.915L265.617 113.182C264.226 112.314 262.614 111.821 260.916 111.821V111.507ZM259.951 110.817C262.128 110.817 264.166 111.598 265.8 112.927L265.601 113.171C264.02 111.885 262.051 111.131 259.951 111.131V110.817ZM250.342 121.015C250.342 115.277 254.747 110.817 259.951 110.817V111.131C254.934 111.131 250.656 115.437 250.656 121.015H250.342ZM250.506 122.911C250.398 122.299 250.342 121.665 250.342 121.015H250.656C250.656 121.647 250.711 122.262 250.816 122.857L250.506 122.911ZM250.818 119.539V122.884H250.504V119.539H250.818ZM265.784 112.915C268.596 114.671 270.525 117.907 270.525 121.705H270.21C270.21 118.016 268.338 114.88 265.617 113.182L265.784 112.915ZM270.525 121.705C270.525 127.444 266.12 131.904 260.916 131.904V131.589C265.933 131.589 270.21 127.283 270.21 121.705H270.525ZM260.916 131.904C258.739 131.904 256.701 131.122 255.067 129.794L255.266 129.55C256.847 130.835 258.816 131.589 260.916 131.589V131.904ZM259.951 131.214C258.191 131.214 256.521 130.703 255.083 129.805L255.25 129.538C256.641 130.406 258.253 130.899 259.951 130.899V131.214ZM269.56 121.015C269.56 126.754 265.154 131.214 259.951 131.214V130.899C264.968 130.899 269.245 126.593 269.245 121.015H269.56ZM265.8 112.927C268.07 114.773 269.56 117.677 269.56 121.015H269.245C269.245 117.772 267.799 114.958 265.601 113.171L265.8 112.927ZM250.504 123.254V122.884H250.818V123.254H250.504ZM250.735 123.41L250.664 123.412L250.658 123.097L250.73 123.096L250.735 123.41ZM250.816 122.857C250.837 122.979 250.861 123.1 250.887 123.22L250.579 123.286C250.552 123.162 250.528 123.037 250.506 122.911L250.816 122.857ZM324.058 129.805C321.245 128.049 319.316 124.813 319.316 121.015H319.631C319.631 124.705 321.504 127.84 324.224 129.538L324.058 129.805ZM320.596 121.705C320.596 124.948 322.043 127.763 324.24 129.55L324.042 129.794C321.771 127.947 320.282 125.043 320.282 121.705H320.596ZM329.891 111.821C324.874 111.821 320.596 116.127 320.596 121.705H320.282C320.282 115.967 324.687 111.507 329.891 111.507V111.821ZM334.592 113.182C333.201 112.314 331.589 111.821 329.891 111.821V111.507C331.65 111.507 333.32 112.017 334.758 112.915L334.592 113.182ZM328.926 110.817C331.102 110.817 333.141 111.598 334.774 112.927L334.576 113.171C332.995 111.885 331.026 111.131 328.926 111.131V110.817ZM319.316 121.015C319.316 115.277 323.722 110.817 328.926 110.817V111.131C323.909 111.131 319.631 115.437 319.631 121.015H319.316ZM334.758 112.915C337.571 114.671 339.5 117.907 339.5 121.705H339.185C339.185 118.016 337.312 114.88 334.592 113.182L334.758 112.915ZM338.22 121.015C338.22 117.772 336.773 114.958 334.576 113.171L334.774 112.927C337.045 114.773 338.535 117.677 338.535 121.015H338.22ZM328.926 130.899C333.942 130.899 338.22 126.593 338.22 121.015H338.535C338.535 126.754 334.129 131.214 328.926 131.214V130.899ZM324.224 129.538C325.615 130.406 327.228 130.899 328.926 130.899V131.214C327.166 131.214 325.496 130.703 324.058 129.805L324.224 129.538ZM329.891 131.904C327.714 131.904 325.676 131.122 324.042 129.794L324.24 129.55C325.822 130.835 327.791 131.589 329.891 131.589V131.904ZM339.5 121.705C339.5 127.444 335.094 131.904 329.891 131.904V131.589C334.907 131.589 339.185 127.283 339.185 121.705H339.5ZM322.645 131.803C319.183 129.581 316.876 125.58 316.876 121.015H317.191C317.191 125.473 319.443 129.375 322.815 131.539L322.645 131.803ZM322.632 131.794C322.386 131.6 322.148 131.396 321.918 131.182L322.132 130.951C322.356 131.159 322.588 131.358 322.827 131.548L322.632 131.794ZM321.928 131.191C319.043 128.927 317.112 125.282 317.112 121.015H317.426C317.426 125.185 319.313 128.739 322.122 130.943L321.928 131.191ZM317.112 121.015C317.112 113.898 322.487 108.508 328.696 108.379L328.703 108.693C322.676 108.819 317.426 114.058 317.426 121.015H317.112ZM316.876 121.015C316.876 114.122 322.141 108.507 328.697 108.379L328.703 108.693C322.331 108.818 317.191 114.28 317.191 121.015H316.876ZM328.926 108.376C329.001 108.376 329.077 108.377 329.153 108.379L329.147 108.693C329.073 108.692 328.999 108.691 328.926 108.691V108.376ZM328.697 108.379C328.773 108.377 328.849 108.376 328.926 108.376V108.691C328.851 108.691 328.777 108.692 328.703 108.693L328.697 108.379ZM328.696 108.379C328.773 108.377 328.849 108.376 328.926 108.376V108.691C328.851 108.691 328.777 108.692 328.703 108.693L328.696 108.379ZM328.926 108.376C329.001 108.376 329.077 108.377 329.153 108.379L329.146 108.693C329.073 108.692 328.999 108.691 328.926 108.691V108.376ZM329.153 108.379C331.449 108.426 333.632 109.194 335.471 110.502L335.289 110.758C333.498 109.485 331.376 108.739 329.146 108.693L329.153 108.379ZM329.153 108.379C331.791 108.43 334.222 109.371 336.184 110.926L335.989 111.173C334.078 109.658 331.713 108.743 329.147 108.693L329.153 108.379ZM336.172 110.917C339.633 113.139 341.94 117.141 341.94 121.705H341.625C341.625 117.248 339.373 113.346 336.002 111.182L336.172 110.917ZM341.94 121.705C341.94 128.678 336.552 134.344 329.891 134.344V134.029C336.365 134.029 341.625 128.519 341.625 121.705H341.94ZM329.891 134.344C327.164 134.344 324.65 133.394 322.632 131.794L322.827 131.548C324.793 133.106 327.239 134.029 329.891 134.029V134.344ZM323.362 132.229C323.118 132.096 322.879 131.954 322.645 131.803L322.815 131.539C323.042 131.685 323.276 131.823 323.513 131.953L323.362 132.229ZM323.347 132.22C323.175 132.098 323.006 131.971 322.841 131.84L323.037 131.593C323.198 131.721 323.362 131.844 323.529 131.963L323.347 132.22ZM322.854 131.849C322.536 131.645 322.227 131.425 321.928 131.191L322.122 130.943C322.413 131.171 322.714 131.385 323.024 131.584L322.854 131.849ZM321.918 131.182C319.417 128.866 317.841 125.478 317.841 121.705H318.156C318.156 125.389 319.695 128.694 322.132 130.951L321.918 131.182ZM317.841 121.705C317.841 114.812 323.106 109.196 329.662 109.068L329.668 109.383C323.297 109.507 318.156 114.97 318.156 121.705H317.841ZM329.662 109.068C329.738 109.067 329.814 109.066 329.891 109.066V109.381C329.816 109.381 329.742 109.381 329.668 109.383L329.662 109.068ZM329.891 109.066C329.966 109.066 330.042 109.067 330.118 109.068L330.111 109.383C330.038 109.381 329.964 109.381 329.891 109.381V109.066ZM330.118 109.068C332.041 109.106 333.854 109.616 335.455 110.492L335.304 110.768C333.746 109.915 331.982 109.419 330.111 109.383L330.118 109.068ZM335.471 110.502C335.642 110.623 335.81 110.75 335.975 110.881L335.779 111.127C335.619 111 335.455 110.876 335.289 110.758L335.471 110.502ZM335.455 110.492C335.699 110.625 335.938 110.767 336.172 110.917L336.002 111.182C335.774 111.036 335.542 110.898 335.304 110.768L335.455 110.492ZM336.184 110.926C336.429 111.12 336.667 111.324 336.897 111.537L336.683 111.768C336.459 111.56 336.227 111.362 335.989 111.173L336.184 110.926ZM336.887 111.528C339.772 113.792 341.704 117.437 341.704 121.705H341.39C341.39 117.535 339.503 113.98 336.693 111.776L336.887 111.528ZM341.704 121.705C341.704 128.909 336.196 134.344 329.891 134.344V134.029C336.01 134.029 341.39 128.748 341.39 121.705H341.704ZM329.891 134.344C327.512 134.344 325.246 133.57 323.347 132.22L323.529 131.963C325.378 133.278 327.581 134.029 329.891 134.029V134.344ZM328.926 133.654C326.919 133.654 325.026 133.139 323.362 132.229L323.513 131.953C325.133 132.839 326.973 133.34 328.926 133.34V133.654ZM340.975 121.015C340.975 127.988 335.587 133.654 328.926 133.654V133.34C335.399 133.34 340.66 127.829 340.66 121.015H340.975ZM336.897 111.537C339.398 113.853 340.975 117.242 340.975 121.015H340.66C340.66 117.331 339.121 114.025 336.683 111.768L336.897 111.537ZM335.962 110.871C336.28 111.075 336.588 111.294 336.887 111.528L336.693 111.776C336.402 111.548 336.102 111.334 335.792 111.136L335.962 110.871ZM335.975 110.881C338.831 113.147 340.739 116.774 340.739 121.015H340.425C340.425 116.87 338.561 113.334 335.779 111.127L335.975 110.881ZM340.739 121.015C340.739 128.219 335.231 133.654 328.926 133.654V133.339C335.045 133.339 340.425 128.058 340.425 121.015H340.739ZM328.926 133.654C326.741 133.654 324.651 133.001 322.854 131.849L323.024 131.584C324.773 132.706 326.805 133.339 328.926 133.339V133.654ZM322.841 131.84C319.985 129.573 318.077 125.946 318.077 121.705H318.391C318.391 125.85 320.255 129.386 323.037 131.593L322.841 131.84ZM318.077 121.705C318.077 114.588 323.452 109.198 329.662 109.068L329.668 109.383C323.641 109.509 318.391 114.747 318.391 121.705H318.077ZM329.662 109.068C329.738 109.067 329.814 109.066 329.891 109.066V109.381C329.816 109.381 329.742 109.382 329.668 109.383L329.662 109.068ZM329.891 109.066C329.966 109.066 330.042 109.067 330.118 109.068L330.111 109.383C330.038 109.382 329.964 109.381 329.891 109.381V109.066ZM330.118 109.068C332.22 109.112 334.227 109.759 335.962 110.871L335.792 111.136C334.103 110.053 332.152 109.425 330.111 109.383L330.118 109.068ZM308.837 111.247L308.559 110.37L308.859 110.275L309.137 111.151L308.837 111.247ZM308.946 111.047L309.633 110.861L309.715 111.165L309.028 111.351L308.946 111.047ZM309.824 110.966L310.418 112.838L310.119 112.933L309.524 111.061L309.824 110.966ZM310.327 113.032L295.462 118.96L295.345 118.668L310.21 112.739L310.327 113.032ZM295.422 118.97L279.367 120.843L279.331 120.53L295.385 118.658L295.422 118.97ZM279.226 120.589L279.928 119.704L280.175 119.899L279.472 120.784L279.226 120.589ZM278.366 119.84L280.033 119.645L280.07 119.958L278.402 120.152L278.366 119.84ZM279.994 118.222L278.507 120.094L278.261 119.898L279.747 118.026L279.994 118.222ZM308.75 110.475L279.911 118.276L279.829 117.972L308.668 110.171L308.75 110.475ZM279.928 119.704L280.712 118.716L280.959 118.912L280.175 119.899L279.928 119.704ZM280.794 118.662L308.946 111.047L309.028 111.351L280.876 118.966L280.794 118.662ZM309.154 112.243L308.837 111.247L309.137 111.151L309.453 112.147L309.154 112.243ZM294.38 117.978L309.245 112.049L309.362 112.341L294.497 118.27L294.38 117.978ZM280.033 119.645L294.42 117.968L294.456 118.28L280.07 119.958L280.033 119.645ZM308.859 119.012L309.137 119.888L308.837 119.983L308.559 119.108L308.859 119.012ZM279.829 126.709L308.668 118.908L308.75 119.212L279.911 127.013L279.829 126.709ZM278.261 128.635L279.747 126.763L279.994 126.959L278.507 128.831L278.261 128.635ZM280.069 128.695L278.402 128.889L278.366 128.577L280.033 128.383L280.069 128.695ZM280.959 127.649L280.174 128.637L279.928 128.441L280.712 127.453L280.959 127.649ZM309.028 120.088L280.876 127.703L280.794 127.399L308.946 119.784L309.028 120.088ZM309.715 119.902L309.028 120.088L308.946 119.784L309.633 119.598L309.715 119.902ZM310.119 121.67L309.524 119.797L309.824 119.702L310.418 121.574L310.119 121.67ZM295.345 127.405L310.21 121.476L310.327 121.768L295.462 127.697L295.345 127.405ZM279.331 129.267L295.385 127.395L295.422 127.707L279.367 129.579L279.331 129.267ZM280.174 128.637L279.472 129.521L279.226 129.325L279.928 128.441L280.174 128.637ZM294.456 127.017L280.069 128.695L280.033 128.383L294.42 126.705L294.456 127.017ZM309.362 121.078L294.497 127.007L294.38 126.715L309.245 120.786L309.362 121.078ZM309.137 119.888L309.453 120.885L309.154 120.98L308.837 119.983L309.137 119.888Z" fill="#15F1FF"/>
</g>
<g opacity="0.8">
<g filter="url(#filter2_b)">
<path fill-rule="evenodd" clip-rule="evenodd" d="M319.606 103.556C316.231 102.149 311.152 100.977 306.131 103.397C297.488 107.561 287.637 110.067 280.945 111.091C276.55 111.764 271.091 111.058 267.047 110.28C267.201 110.473 267.351 110.67 267.497 110.87C271.583 111.685 277.329 112.485 281.915 111.783C288.608 110.759 298.458 108.253 307.101 104.089C311.41 102.012 315.761 102.581 319.042 103.673C319.229 103.631 319.417 103.592 319.606 103.556Z" fill="url(#paint3_linear)" fill-opacity="0.5"/>
<path d="M306.131 103.397L306.381 103.916L306.131 103.397ZM319.606 103.556L319.828 103.024C320.063 103.122 320.206 103.363 320.18 103.617C320.153 103.87 319.963 104.076 319.712 104.123L319.606 103.556ZM280.945 111.091L281.032 111.661L280.945 111.091ZM267.047 110.28L266.596 110.64C266.446 110.451 266.429 110.188 266.554 109.982C266.679 109.775 266.919 109.668 267.156 109.714L267.047 110.28ZM267.497 110.87L267.384 111.436C267.243 111.407 267.117 111.327 267.031 111.21L267.497 110.87ZM281.915 111.783L281.828 111.213L281.915 111.783ZM307.101 104.089L306.851 103.569L307.101 104.089ZM319.042 103.673L319.168 104.235C319.066 104.258 318.959 104.253 318.859 104.22L319.042 103.673ZM305.88 102.877C311.117 100.354 316.386 101.589 319.828 103.024L319.384 104.089C316.076 102.709 311.187 101.6 306.381 103.916L305.88 102.877ZM280.857 110.521C287.507 109.503 297.3 107.011 305.88 102.877L306.381 103.916C297.675 108.111 287.767 110.63 281.032 111.661L280.857 110.521ZM267.156 109.714C271.188 110.489 276.566 111.178 280.857 110.521L281.032 111.661C276.534 112.35 270.994 111.626 266.939 110.847L267.156 109.714ZM267.031 111.21C266.89 111.017 266.745 110.826 266.596 110.64L267.499 109.921C267.658 110.12 267.812 110.323 267.963 110.53L267.031 111.21ZM282.003 112.353C277.31 113.071 271.48 112.253 267.384 111.436L267.61 110.304C271.686 111.118 277.348 111.899 281.828 111.213L282.003 112.353ZM307.352 104.608C298.646 108.803 288.738 111.322 282.003 112.353L281.828 111.213C288.478 110.195 298.271 107.703 306.851 103.569L307.352 104.608ZM318.859 104.22C315.658 103.154 311.476 102.621 307.352 104.608L306.851 103.569C311.344 101.404 315.864 102.007 319.224 103.126L318.859 104.22ZM319.712 104.123C319.53 104.157 319.349 104.195 319.168 104.235L318.915 103.11C319.109 103.066 319.304 103.026 319.5 102.989L319.712 104.123Z" fill="url(#paint4_linear)"/>
</g>
</g>
<defs>
<filter id="filter0_b" x="-5.31569" y="96.2933" width="262.17" height="47.1404" filterUnits="userSpaceOnUse" color-interpolation-filters="sRGB">
<feFlood flood-opacity="0" result="BackgroundImageFix"/>
<feGaussianBlur in="BackgroundImage" stdDeviation="2.86945"/>
<feComposite in2="SourceAlpha" operator="in" result="effect1_backgroundBlur"/>
<feBlend mode="normal" in="SourceGraphic" in2="effect1_backgroundBlur" result="shape"/>
</filter>
<filter id="filter1_d" x="240.614" y="100.919" width="104.888" height="39.4251" filterUnits="userSpaceOnUse" color-interpolation-filters="sRGB">
<feFlood flood-opacity="0" result="BackgroundImageFix"/>
<feColorMatrix in="SourceAlpha" type="matrix" values="0 0 0 0 0 0 0 0 0 0 0 0 0 0 0 0 0 0 127 0"/>
<feOffset dx="-2.03003" dy="0.507507"/>
<feGaussianBlur stdDeviation="0.847355"/>
<feColorMatrix type="matrix" values="0 0 0 0 0.0823529 0 0 0 0 0.945098 0 0 0 0 1 0 0 0 0.8 0"/>
<feBlend mode="normal" in2="BackgroundImageFix" result="effect1_dropShadow"/>
<feBlend mode="normal" in="SourceGraphic" in2="effect1_dropShadow" result="shape"/>
</filter>
<filter id="filter2_b" x="260.732" y="95.684" width="65.1898" height="22.6838" filterUnits="userSpaceOnUse" color-interpolation-filters="sRGB">
<feFlood flood-opacity="0" result="BackgroundImageFix"/>
<feGaussianBlur in="BackgroundImage" stdDeviation="2.86945"/>
<feComposite in2="SourceAlpha" operator="in" result="effect1_backgroundBlur"/>
<feBlend mode="normal" in="SourceGraphic" in2="effect1_backgroundBlur" result="shape"/>
</filter>
<linearGradient id="paint0_linear" x1="-45.5627" y1="1118.17" x2="204.709" y2="1118.18" gradientUnits="userSpaceOnUse">
<stop stop-color="#15F1FF" stop-opacity="0"/>
<stop offset="1" stop-color="#15F1FF"/>
</linearGradient>
<linearGradient id="paint1_linear" x1="245.5" y1="122.029" x2="7.90279" y2="121.409" gradientUnits="userSpaceOnUse">
<stop offset="0.1875" stop-color="#15F1FF"/>
<stop offset="1" stop-color="#15F1FF" stop-opacity="0"/>
</linearGradient>
<linearGradient id="paint2_linear" x1="244.256" y1="122.024" x2="7.72745" y2="120.44" gradientUnits="userSpaceOnUse">
<stop offset="0.510417" stop-color="#15F1FF"/>
<stop offset="1" stop-color="#15F1FF" stop-opacity="0"/>
</linearGradient>
<linearGradient id="paint3_linear" x1="318.322" y1="107.644" x2="256.152" y2="107.632" gradientUnits="userSpaceOnUse">
<stop offset="0.1875" stop-color="#15F1FF"/>
<stop offset="1" stop-color="#15F1FF" stop-opacity="0"/>
</linearGradient>
<linearGradient id="paint4_linear" x1="318.012" y1="107.642" x2="259.111" y2="107.304" gradientUnits="userSpaceOnUse">
<stop offset="0.510417" stop-color="#15F1FF"/>
<stop offset="1" stop-color="#15F1FF" stop-opacity="0"/>
</linearGradient>
</defs>
</svg>
