<svg width="1261" height="199" viewBox="0 0 1261 199" fill="none" xmlns="http://www.w3.org/2000/svg">
<g opacity="0.9">
<path d="M3.79755 64.1475V15.3219H14.6477L31.1941 35.0556L47.6728 15.3219H58.5907V64.1475H48.0118V31.3937L31.1941 51.4664L14.3086 31.4615V64.1475H3.79755ZM80.1374 64.1475V24.8158H90.5128V64.1475H80.1374ZM117.833 64.1475C115.12 64.1475 112.792 63.1755 110.848 61.2315C108.949 59.2876 108 56.9819 108 54.3146V34.6487C108 31.9362 108.949 29.6079 110.848 27.6639C112.792 25.7199 115.12 24.748 117.833 24.748H147.806V35.1234H120.613C119.121 35.1234 118.375 35.1234 118.375 35.1234C118.375 35.1234 118.375 35.8693 118.375 37.3612V51.5342C118.375 53.0261 118.375 53.7721 118.375 53.7721C118.375 53.7721 119.121 53.7721 120.613 53.7721H147.806V64.1475H117.833ZM168.92 64.1475V24.8158H179.296V39.26H199.504V24.8158H209.947V64.1475H199.504V49.7033H179.296V64.1475H168.92ZM230.888 64.1475V34.6487C230.888 31.9814 231.86 29.6757 233.804 27.7317C235.748 25.7878 238.076 24.8158 240.789 24.8158H262.828C265.541 24.8158 267.846 25.7878 269.745 27.7317C271.689 29.6757 272.661 31.9814 272.661 34.6487V64.1475H262.286V54.7893H241.263V64.1475H230.888ZM241.263 44.4138H262.286V37.429C262.286 35.9372 262.286 35.1912 262.286 35.1912C262.286 35.1912 261.54 35.1912 260.048 35.1912H243.501C242.009 35.1912 241.263 35.1912 241.263 35.1912C241.263 35.1912 241.263 35.9372 241.263 37.429V44.4138ZM293.657 64.1475V24.748H329.937V35.1234H304.032V39.26H323.359V49.7033H304.032V53.7721H329.937V64.1475H293.657ZM350.464 64.1475V24.8158H360.839V53.7721H391.016V64.1475H350.464ZM444.347 64.1475V15.2541H454.859V53.5686H493.173V64.1475H444.347ZM520.183 64.1475C517.516 64.1475 515.21 63.1755 513.266 61.2315C511.322 59.2876 510.35 56.9819 510.35 54.3146V34.6487C510.35 31.9814 511.322 29.6757 513.266 27.7317C515.21 25.7878 517.516 24.8158 520.183 24.8158H540.391C543.104 24.8158 545.41 25.7878 547.308 27.7317C549.252 29.6757 550.224 31.9814 550.224 34.6487V54.3146C550.224 56.9819 549.252 59.2876 547.308 61.2315C545.41 63.1755 543.104 64.1475 540.391 64.1475H520.183ZM522.963 53.7721H537.611C539.103 53.7721 539.849 53.7721 539.849 53.7721C539.849 53.7721 539.849 53.0261 539.849 51.5342V37.429C539.849 35.9372 539.849 35.1912 539.849 35.1912C539.849 35.1912 539.103 35.1912 537.611 35.1912H522.963C521.471 35.1912 520.725 35.1912 520.725 35.1912C520.725 35.1912 520.725 35.9372 520.725 37.429V51.5342C520.725 53.0261 520.725 53.7721 520.725 53.7721C520.725 53.7721 521.471 53.7721 522.963 53.7721ZM585.445 64.1475L569.713 24.8158H580.698L589.446 45.431L598.601 24.8158H608.095L617.86 45.4988L625.998 24.8158H637.119L621.929 64.1475H614.063L603.416 41.1588L593.244 64.1475H585.445ZM657.809 64.1475V24.748H694.089V35.1234H668.185V39.26H687.511V49.7033H668.185V53.7721H694.089V64.1475H657.809ZM714.616 64.1475V24.8158H724.991V53.7721H755.168V64.1475H714.616ZM772.88 64.1475V24.8158H783.255V53.7721H813.432V64.1475H772.88Z" fill="url(#paint0_linear)"/>
<path d="M3.79755 56.2955V7.46992H14.6477L31.1941 27.2036L47.6728 7.46992H58.5907V56.2955H48.0118V23.5417L31.1941 43.6144L14.3086 23.6095V56.2955H3.79755ZM80.1374 56.2955V16.9638H90.5128V56.2955H80.1374ZM117.833 56.2955C115.12 56.2955 112.792 55.3235 110.848 53.3796C108.949 51.4356 108 49.1299 108 46.4626V26.7967C108 24.0842 108.949 21.7559 110.848 19.8119C112.792 17.868 115.12 16.896 117.833 16.896H147.806V27.2714H120.613C119.121 27.2714 118.375 27.2714 118.375 27.2714C118.375 27.2714 118.375 28.0174 118.375 29.5093V43.6822C118.375 45.1741 118.375 45.9201 118.375 45.9201C118.375 45.9201 119.121 45.9201 120.613 45.9201H147.806V56.2955H117.833ZM168.92 56.2955V16.9638H179.296V31.408H199.504V16.9638H209.947V56.2955H199.504V41.8513H179.296V56.2955H168.92ZM230.888 56.2955V26.7967C230.888 24.1294 231.86 21.8237 233.804 19.8798C235.748 17.9358 238.076 16.9638 240.789 16.9638H262.828C265.541 16.9638 267.846 17.9358 269.745 19.8798C271.689 21.8237 272.661 24.1294 272.661 26.7967V56.2955H262.286V46.9373H241.263V56.2955H230.888ZM241.263 36.5618H262.286V29.5771C262.286 28.0852 262.286 27.3392 262.286 27.3392C262.286 27.3392 261.54 27.3392 260.048 27.3392H243.501C242.009 27.3392 241.263 27.3392 241.263 27.3392C241.263 27.3392 241.263 28.0852 241.263 29.5771V36.5618ZM293.657 56.2955V16.896H329.937V27.2714H304.032V31.408H323.359V41.8513H304.032V45.9201H329.937V56.2955H293.657ZM350.464 56.2955V16.9638H360.839V45.9201H391.016V56.2955H350.464Z" fill="url(#paint1_linear)"/>
<path d="M446.9 60.1718V11.2784H457.411V49.593H495.725V60.1718H446.9ZM522.735 60.1718C520.068 60.1718 517.762 59.1999 515.818 57.2559C513.874 55.3119 512.902 53.0062 512.902 50.3389V30.673C512.902 28.0057 513.874 25.7001 515.818 23.7561C517.762 21.8121 520.068 20.8401 522.735 20.8401H542.943C545.656 20.8401 547.962 21.8121 549.86 23.7561C551.804 25.7001 552.776 28.0057 552.776 30.673V50.3389C552.776 53.0062 551.804 55.3119 549.86 57.2559C547.962 59.1999 545.656 60.1718 542.943 60.1718H522.735ZM525.515 49.7964H540.163C541.655 49.7964 542.401 49.7964 542.401 49.7964C542.401 49.7964 542.401 49.0505 542.401 47.5586V33.4534C542.401 31.9615 542.401 31.2155 542.401 31.2155C542.401 31.2155 541.655 31.2155 540.163 31.2155H525.515C524.023 31.2155 523.278 31.2155 523.278 31.2155C523.278 31.2155 523.278 31.9615 523.278 33.4534V47.5586C523.278 49.0505 523.278 49.7964 523.278 49.7964C523.278 49.7964 524.023 49.7964 525.515 49.7964ZM587.997 60.1718L572.265 20.8401H583.25L591.998 41.4554L601.153 20.8401H610.647L620.412 41.5232L628.55 20.8401H639.671L624.481 60.1718H616.615L605.968 37.1831L595.796 60.1718H587.997ZM660.361 60.1718V20.7723H696.641V31.1477H670.737V35.2843H690.063V45.7276H670.737V49.7964H696.641V60.1718H660.361ZM717.168 60.1718V20.8401H727.543V49.7964H757.72V60.1718H717.168ZM775.432 60.1718V20.8401H785.807V49.7964H815.984V60.1718H775.432Z" fill="url(#paint2_linear)"/>
</g>
<g filter="url(#filter0_b)">
<path fill-rule="evenodd" clip-rule="evenodd" d="M412.826 10.1546C412.826 10.1546 1032.22 -3.84417 1078.41 8.33392C1066.78 13.3314 1058.6 25.2034 1058.6 39.0534C1058.6 50.8974 1064.59 61.2949 1073.59 67.1836C1074.57 67.9307 1075.6 68.6212 1076.66 69.2506H412.826V10.1546Z" fill="url(#paint3_linear)" fill-opacity="0.5"/>
<path d="M1078.41 8.33392L1078.69 7.269C1079.15 7.38881 1079.48 7.78379 1079.51 8.25246C1079.55 8.72114 1079.28 9.16023 1078.85 9.34577L1078.41 8.33392ZM412.826 10.1546H411.724C411.724 9.55604 412.202 9.06708 412.801 9.05356L412.826 10.1546ZM1073.59 67.1836L1074.19 66.2619C1074.22 66.2761 1074.24 66.2911 1074.26 66.3069L1073.59 67.1836ZM1076.66 69.2506L1077.22 68.3028C1077.65 68.5556 1077.86 69.0627 1077.73 69.5414C1077.59 70.02 1077.16 70.3519 1076.66 70.3519V69.2506ZM412.826 69.2506V70.3519C412.217 70.3519 411.724 69.8588 411.724 69.2506H412.826ZM1078.13 9.39884C1075.35 8.66576 1070.32 8.01204 1063.24 7.44528C1056.19 6.88064 1047.18 6.40736 1036.51 6.01628C1015.17 5.23418 987.199 4.78211 954.921 4.58206C890.368 4.18196 808.621 4.79001 728.311 5.77869C648.003 6.76737 569.138 8.1366 510.349 9.25867C480.955 9.81971 456.58 10.3189 439.554 10.6779C431.041 10.8574 424.365 11.0018 419.817 11.1014C417.543 11.1512 415.802 11.1897 414.628 11.2158C414.042 11.2289 413.597 11.2388 413.299 11.2455C413.151 11.2489 413.038 11.2514 412.963 11.2531C412.926 11.2539 412.898 11.2546 412.879 11.255C412.869 11.2552 412.862 11.2553 412.858 11.2555C412.853 11.2556 412.851 11.2556 412.826 10.1546C412.801 9.05356 412.803 9.0535 412.808 9.0534C412.813 9.05329 412.82 9.05313 412.829 9.05292C412.848 9.05249 412.876 9.05186 412.914 9.05101C412.989 9.04932 413.101 9.04679 413.25 9.04345C413.548 9.03677 413.993 9.02682 414.579 9.01376C415.753 8.98764 417.495 8.94908 419.769 8.8993C424.317 8.79974 430.994 8.6553 439.507 8.4758C456.535 8.11679 480.911 7.61752 510.307 7.05645C569.099 5.93432 647.969 4.565 728.284 3.57624C808.598 2.5875 890.361 1.97925 954.935 2.37948C987.221 2.57959 1015.22 3.03183 1036.59 3.81514C1047.28 4.20677 1056.32 4.68146 1063.41 5.24969C1070.48 5.81579 1075.7 6.47983 1078.69 7.269L1078.13 9.39884ZM1057.5 39.0534C1057.5 24.7651 1065.94 12.4941 1077.98 7.32208L1078.85 9.34577C1067.62 14.1687 1059.71 25.6416 1059.71 39.0534H1057.5ZM1072.99 68.1054C1063.68 62.0155 1057.5 51.2734 1057.5 39.0534H1059.71C1059.71 50.5214 1065.5 60.5742 1074.19 66.2619L1072.99 68.1054ZM1076.1 70.1984C1075 69.5472 1073.94 68.8329 1072.92 68.0604L1074.26 66.3069C1075.21 67.0285 1076.2 67.6953 1077.22 68.3028L1076.1 70.1984ZM412.826 68.1493H1076.66V70.3519H412.826V68.1493ZM413.927 10.1546V69.2506H411.724V10.1546H413.927Z" fill="url(#paint4_linear)"/>
</g>
<g filter="url(#filter1_d)">
<path fill-rule="evenodd" clip-rule="evenodd" d="M1226.74 7.47405C1227.63 7.95513 1228.39 8.4008 1228.98 8.76841C1229.46 8.74432 1229.94 8.73214 1230.42 8.73214C1236.14 8.73214 1241.5 10.4569 1246.05 13.4496C1241.14 9.65093 1235.09 7.41433 1228.58 7.41433C1227.96 7.41433 1227.34 7.43443 1226.74 7.47405ZM1119.45 17.7069C1120.3 17.8932 1121.21 18.0842 1122.16 18.2748C1122.48 18.3397 1122.81 18.4046 1123.15 18.4692C1130.82 19.9505 1141.19 21.2957 1149.53 20.0141C1162.23 18.0625 1180.93 13.2894 1197.34 5.35568C1206.87 0.746472 1216.52 2.97905 1222.92 5.65946C1223.86 6.05183 1224.73 6.45379 1225.52 6.8453C1225.95 7.05909 1226.35 7.26976 1226.74 7.47405C1226.5 7.48946 1226.26 7.50784 1226.03 7.52913C1226.97 7.95817 1227.82 8.38752 1228.58 8.79186C1228.71 8.78308 1228.85 8.77527 1228.98 8.76841C1229.95 9.36737 1230.48 9.7591 1230.48 9.7591L1230.27 9.74637C1231.59 10.5327 1232.32 11.0769 1232.32 11.0769L1220.88 10.3954C1219.5 10.8931 1218.16 11.496 1216.88 12.1953L1208.03 21.3319L1202.12 38.2867L1208.03 55.8883L1213.36 61.5909C1213.36 61.5909 1212.33 60.5245 1207.85 59.85C1209.36 61.7269 1211.07 63.4123 1212.95 64.8683C1217.49 67.861 1222.85 69.5858 1228.58 69.5858C1244.77 69.5858 1258.09 55.7735 1258.09 38.5C1258.09 28.1775 1253.33 19.091 1246.05 13.4496C1254.36 18.9261 1259.93 28.6484 1259.93 39.8179C1259.93 57.0913 1246.61 70.9036 1230.42 70.9036C1223.9 70.9036 1217.85 68.667 1212.95 64.8683C1210.77 63.4324 1208.78 61.7046 1207.02 59.7354C1206.34 59.648 1205.58 59.57 1204.75 59.5054C1203.18 59.3839 1201.34 59.3098 1199.18 59.3098C1189.56 59.3098 1140.4 62.0058 1121.52 63.0614C1120.23 63.1335 1119.08 63.198 1118.1 63.2534C1112.9 68.0253 1106.11 70.9036 1098.71 70.9036C1092.2 70.9036 1086.14 68.667 1081.24 64.8682C1072.93 59.3918 1067.36 49.6695 1067.36 38.5C1067.36 21.2266 1080.67 7.41433 1096.87 7.41433C1103.39 7.41433 1109.44 9.65095 1114.34 13.4497C1116.19 14.6687 1117.91 16.098 1119.45 17.7069ZM1118.65 17.5284C1118.91 17.5873 1119.18 17.6469 1119.45 17.7069C1119.81 18.0773 1120.16 18.4572 1120.5 18.8462C1121.57 19.0877 1122.74 19.3406 1124 19.5926C1131.76 21.1459 1142.66 22.6694 1151.37 21.3319C1164.08 19.3803 1182.78 14.6072 1199.18 6.67349C1208.72 2.06428 1218.36 4.29686 1224.76 6.97727C1225.2 7.15982 1225.62 7.34445 1226.03 7.52913C1223.61 7.74823 1221.26 8.27666 1219.04 9.07756L1224.34 9.39357C1225.72 9.08873 1227.14 8.88562 1228.58 8.79186C1229.22 9.13289 1229.78 9.45612 1230.27 9.74637L1224.34 9.39357C1223.16 9.65454 1222.01 9.99006 1220.88 10.3954L1218.74 10.2681L1216.88 12.1953C1211.61 15.0688 1207.25 19.5695 1204.42 25.0836L1201.55 33.3289C1201.19 35.1233 1200.98 36.9765 1200.92 38.8744L1206.19 54.5705L1211.52 60.273C1211.52 60.273 1210.64 59.3618 1206.97 58.6912C1207.25 59.085 1207.55 59.4714 1207.85 59.85C1207.59 59.8103 1207.31 59.772 1207.02 59.7354C1206.68 59.3437 1206.34 58.9425 1206.01 58.5322C1205.39 58.4383 1204.7 58.352 1203.93 58.2773C1203.6 58.2451 1203.26 58.2151 1202.91 58.1875C1201.34 58.0661 1199.5 57.992 1197.34 57.992C1188.21 57.992 1143.51 60.4178 1122.82 61.5683C1121.7 61.6307 1120.65 61.6893 1119.68 61.7436L1119.63 61.7464C1119.14 62.2675 1118.62 62.7702 1118.1 63.2534C1116.28 63.3556 1115.02 63.427 1114.46 63.4591C1109.53 67.3133 1103.44 69.5858 1096.87 69.5858C1091.15 69.5858 1085.78 67.861 1081.24 64.8682C1073.96 59.2269 1069.2 50.1404 1069.2 39.8179C1069.2 22.5445 1082.52 8.73214 1098.71 8.73214C1104.44 8.73214 1109.8 10.4569 1114.34 13.4497C1115.9 14.6584 1117.35 16.0252 1118.65 17.5284ZM1119.37 49.7251L1121.5 45.9933V30.6108L1112.28 15.924C1112.28 15.924 1114.77 16.6517 1118.65 17.5284C1118.97 17.8892 1119.27 18.2578 1119.57 18.634C1119.87 18.7035 1120.18 18.7744 1120.5 18.8462C1125.29 24.3592 1128.22 31.707 1128.22 39.8179C1128.22 48.4076 1124.93 56.1414 1119.63 61.7464C1118.36 61.8174 1117.23 61.8809 1116.26 61.9356C1115.68 62.4674 1115.08 62.9757 1114.46 63.4591L1114.12 63.4782L1114.96 62.0085C1113.24 62.1056 1112.28 62.1604 1112.28 62.1604L1116.81 54.211C1112.67 59.9471 1106.1 63.6516 1098.71 63.6516C1093.58 63.6516 1088.84 61.8622 1085.03 58.8449C1078.51 54.6569 1074.16 47.1121 1074.16 38.5005C1074.16 25.5161 1084.05 14.9569 1096.36 14.6729C1096.53 14.6688 1096.7 14.6667 1096.87 14.6667C1097.04 14.6667 1097.21 14.6688 1097.38 14.6729C1102.32 14.7869 1106.87 16.5565 1110.55 19.4739C1117.07 23.6618 1121.42 31.2067 1121.42 39.8183C1121.42 43.3531 1120.69 46.7082 1119.37 49.7251ZM1109.2 18.6728C1109.66 18.9241 1110.11 19.1913 1110.55 19.4739C1111.01 19.8397 1111.46 20.2235 1111.89 20.6244C1117.33 24.8904 1120.97 31.7629 1120.97 39.8179C1120.97 53.4205 1110.58 63.6512 1098.71 63.6512C1094.24 63.6512 1089.97 62.1942 1086.39 59.6486C1085.93 59.3966 1085.48 59.1284 1085.03 58.8449C1084.57 58.4775 1084.12 58.0919 1083.69 57.6891C1078.25 53.4227 1074.61 46.5522 1074.61 38.5C1074.61 25.0922 1084.71 14.9604 1096.36 14.6729C1096.53 14.669 1096.7 14.6671 1096.87 14.6671C1097.04 14.6671 1097.21 14.669 1097.38 14.6729C1101.67 14.7789 1105.75 16.2217 1109.2 18.6728ZM1099.23 15.9909C1102.82 16.0747 1106.2 17.0337 1109.2 18.6728C1109.52 18.902 1109.84 19.1401 1110.15 19.3867C1110.75 19.7704 1111.33 20.1835 1111.89 20.6244C1116.6 24.9916 1119.58 31.3815 1119.58 38.5005C1119.58 51.6633 1109.41 62.3338 1096.87 62.3338C1093.09 62.3338 1089.52 61.3641 1086.39 59.6486C1086.06 59.4183 1085.75 59.1791 1085.43 58.9312C1084.83 58.5463 1084.25 58.1317 1083.69 57.6891C1078.98 53.3221 1076 46.9344 1076 39.8183C1076 26.8339 1085.9 16.2747 1098.2 15.9908C1098.37 15.9866 1098.54 15.9845 1098.71 15.9845C1098.88 15.9845 1099.06 15.9866 1099.23 15.9909ZM1099.23 15.9909C1099.06 15.9869 1098.88 15.9849 1098.71 15.9849C1098.54 15.9849 1098.37 15.9869 1098.2 15.9908C1086.55 16.2782 1076.45 26.41 1076.45 39.8179C1076.45 47.8226 1080.05 54.6596 1085.43 58.9312C1088.82 61.1041 1092.76 62.3334 1096.87 62.3334C1108.73 62.3334 1119.13 52.1027 1119.13 38.5C1119.13 30.4954 1115.53 23.6584 1110.15 19.3867C1106.9 17.3046 1103.15 16.0888 1099.23 15.9909ZM1116.81 54.211L1119.37 49.7251C1118.68 51.3231 1117.81 52.8262 1116.81 54.211ZM1114.96 62.0085L1116.26 61.9356C1122.45 56.2541 1126.38 47.8883 1126.38 38.5C1126.38 30.9199 1123.82 24.0063 1119.57 18.634C1116.22 17.8551 1114.12 17.2418 1114.12 17.2418L1123.34 31.9286V47.3111L1114.96 62.0085ZM1215.04 10.8775L1215.61 10.2854L1216.9 8.95025L1218.15 9.02487L1219.04 9.07756C1217.66 9.57527 1216.32 10.1782 1215.04 10.8775ZM1215.04 10.8775C1205.58 16.0311 1199.07 26.4191 1199.07 38.5C1199.07 46.1585 1201.68 53.1366 1206.01 58.5322C1206.35 58.5832 1206.67 58.6364 1206.97 58.6912C1203.17 53.4718 1200.91 46.939 1200.91 39.8179C1200.91 39.5022 1200.91 39.1877 1200.92 38.8744L1200.28 36.9689L1201.55 33.3289C1202.14 30.404 1203.12 27.6353 1204.42 25.0836L1206.19 20.0141L1215.04 10.8775ZM1079.13 35.6809C1079.13 35.6809 1080.08 34.0835 1080.07 35.8676C1080.05 37.6517 1080.04 38.4426 1080.04 38.4426L1080.04 40.6409L1080.04 41.6559L1080.07 42.7602L1079.27 42.7735C1080.39 48.0392 1083.54 52.4103 1087.73 55.0279C1083.47 51.5587 1080.66 46.1001 1080.66 39.8183C1080.66 29.014 1088.95 20.6448 1098.71 20.6448C1102.02 20.6448 1105.15 21.6035 1107.85 23.2909C1104.78 20.7933 1100.95 19.3269 1096.87 19.3269C1087.11 19.3269 1078.82 27.6962 1078.82 38.5005C1078.82 39.7247 1078.93 40.9176 1079.13 42.0707V35.6809ZM1107.85 23.2909C1113.13 26.589 1116.76 32.6708 1116.76 39.8183C1116.76 50.6225 1108.47 58.9918 1098.71 58.9918C1094.63 58.9918 1090.8 57.5254 1087.73 55.0279C1090.43 56.7152 1093.57 57.674 1096.87 57.674C1106.63 57.674 1114.92 49.3047 1114.92 38.5005C1114.92 32.2187 1112.12 26.76 1107.85 23.2909ZM1079.13 42.0707V42.7758L1079.27 42.7735C1079.22 42.541 1079.17 42.3067 1079.13 42.0707ZM1210.53 38.5005C1210.53 45.6479 1214.16 51.7297 1219.44 55.0278C1215.17 51.5586 1212.37 46.1 1212.37 39.8183C1212.37 29.014 1220.66 20.6448 1230.42 20.6448C1233.72 20.6448 1236.86 21.6035 1239.56 23.2909C1236.49 20.7933 1232.66 19.3269 1228.58 19.3269C1218.82 19.3269 1210.53 27.6962 1210.53 38.5005ZM1248.47 39.8183C1248.47 32.6708 1244.84 26.589 1239.56 23.2909C1243.82 26.76 1246.62 32.2187 1246.62 38.5005C1246.62 49.3047 1238.33 57.674 1228.58 57.674C1225.27 57.674 1222.14 56.7152 1219.44 55.0278C1222.51 57.5254 1226.33 58.9918 1230.42 58.9918C1240.18 58.9918 1248.47 50.6225 1248.47 39.8183ZM1205.87 38.5005C1205.87 47.112 1210.22 54.6568 1216.74 58.8448C1216.28 58.4773 1215.83 58.0917 1215.39 57.6889C1209.96 53.4225 1206.32 46.5521 1206.32 38.5C1206.32 25.0922 1216.42 14.9603 1228.07 14.6729C1215.76 14.9568 1205.87 25.5161 1205.87 38.5005ZM1229.08 14.6729C1228.92 14.669 1228.75 14.6671 1228.58 14.6671C1228.41 14.6671 1228.24 14.669 1228.07 14.6729C1228.24 14.6688 1228.41 14.6667 1228.58 14.6667C1228.75 14.6667 1228.92 14.6688 1229.08 14.6729ZM1240.9 18.6728C1237.46 16.2217 1233.38 14.7789 1229.08 14.6729C1234.02 14.7869 1238.58 16.5565 1242.25 19.4739C1248.77 23.6619 1253.13 31.2067 1253.13 39.8183C1253.13 52.9811 1242.96 63.6516 1230.42 63.6516C1225.28 63.6516 1220.55 61.8621 1216.74 58.8448C1217.18 59.1284 1217.63 59.3966 1218.09 59.6487C1217.77 59.4184 1217.45 59.1791 1217.14 58.9313C1216.54 58.5462 1215.96 58.1316 1215.39 57.6889C1210.68 53.3219 1207.71 46.9343 1207.71 39.8183C1207.71 26.8338 1217.6 16.2745 1229.91 15.9907C1230.08 15.9866 1230.25 15.9845 1230.42 15.9845C1230.59 15.9845 1230.76 15.9866 1230.93 15.9909C1234.52 16.0747 1237.91 17.0337 1240.9 18.6728ZM1241.85 19.3867C1241.54 19.1401 1241.23 18.902 1240.9 18.6728C1241.36 18.9241 1241.81 19.1914 1242.25 19.4739C1242.72 19.8397 1243.16 20.2235 1243.6 20.6244C1249.03 24.8904 1252.68 31.763 1252.68 39.8179C1252.68 53.4205 1242.28 63.6512 1230.42 63.6512C1225.94 63.6512 1221.67 62.1942 1218.09 59.6487C1221.23 61.3641 1224.8 62.3338 1228.58 62.3338C1241.12 62.3338 1251.28 51.6633 1251.28 38.5005C1251.28 31.3815 1248.31 24.9916 1243.6 20.6244C1243.03 20.1835 1242.45 19.7704 1241.85 19.3867ZM1241.85 19.3867C1247.23 23.6583 1250.83 30.4954 1250.83 38.5C1250.83 52.1027 1240.44 62.3334 1228.58 62.3334C1224.46 62.3334 1220.53 61.1041 1217.14 58.9313C1211.76 54.6596 1208.16 47.8226 1208.16 39.8179C1208.16 26.4099 1218.26 16.278 1229.91 15.9907C1230.08 15.9869 1230.25 15.9849 1230.42 15.9849C1230.59 15.9849 1230.76 15.9869 1230.93 15.9909C1234.86 16.0888 1238.61 17.3045 1241.85 19.3867ZM1189.97 18.084L1190.5 19.7566L1191.81 19.4018L1192.95 22.9769L1164.57 34.2977L1133.91 37.8727L1135.25 36.1836L1132.07 36.5549L1134.91 32.9799L1189.97 18.084ZM1135.25 36.1836L1136.75 34.2977L1190.5 19.7566L1191.11 21.659L1162.72 32.9799L1135.25 36.1836ZM1190.5 36.4394L1189.97 34.7669L1134.91 49.6627L1132.07 53.2377L1135.25 52.8664L1136.75 50.9805L1190.5 36.4394ZM1190.5 36.4394L1191.81 36.0847L1192.95 39.6597L1164.57 50.9805L1133.91 54.5555L1135.25 52.8664L1162.72 49.6627L1191.11 38.3419L1190.5 36.4394Z" fill="#15F1FF"/>
<path d="M1122.16 18.2748L1122.1 18.5694H1122.1L1122.16 18.2748ZM1123.15 18.4692L1123.2 18.1743L1123.15 18.4692ZM1149.53 20.0141L1149.48 19.7172L1149.53 20.0141ZM1197.34 5.35568L1197.21 5.08524L1197.34 5.35568ZM1222.92 5.65946L1222.81 5.93658L1222.92 5.65946ZM1225.52 6.8453L1225.65 6.57623V6.57623L1225.52 6.8453ZM1230.48 9.7591L1230.66 9.51732C1230.77 9.59628 1230.81 9.73627 1230.76 9.86137C1230.72 9.98647 1230.6 10.0669 1230.46 10.059L1230.48 9.7591ZM1232.32 11.0769L1232.5 10.8351C1232.61 10.9141 1232.65 11.0541 1232.61 11.1792C1232.56 11.3043 1232.44 11.3847 1232.31 11.3768L1232.32 11.0769ZM1208.03 21.3319L1207.75 21.2331C1207.76 21.1919 1207.79 21.1543 1207.82 21.123L1208.03 21.3319ZM1202.12 38.2867L1201.84 38.3823C1201.82 38.3191 1201.82 38.2507 1201.84 38.1878L1202.12 38.2867ZM1208.03 55.8883L1207.81 56.0934C1207.78 56.062 1207.76 56.0246 1207.75 55.9839L1208.03 55.8883ZM1213.36 61.5909L1213.58 61.3857C1213.7 61.5061 1213.69 61.6948 1213.57 61.8084C1213.45 61.9221 1213.26 61.9183 1213.15 61.7999L1213.36 61.5909ZM1204.75 59.5054L1204.77 59.2059L1204.75 59.5054ZM1121.52 63.0614L1121.5 62.7615L1121.52 63.0614ZM1124 19.5926L1124.06 19.2981L1124 19.5926ZM1151.37 21.3319L1151.42 21.6288L1151.37 21.3319ZM1199.18 6.67349L1199.31 6.94393L1199.18 6.67349ZM1224.76 6.97727L1224.65 7.25439L1224.76 6.97727ZM1218.74 10.2681L1218.53 10.0591C1218.59 9.9962 1218.67 9.96299 1218.76 9.96819L1218.74 10.2681ZM1206.19 54.5705L1205.97 54.7756C1205.94 54.7442 1205.92 54.7068 1205.91 54.6661L1206.19 54.5705ZM1211.52 60.273L1211.74 60.0679C1211.85 60.1883 1211.85 60.3769 1211.73 60.4906C1211.61 60.6043 1211.42 60.6005 1211.31 60.4821L1211.52 60.273ZM1203.93 58.2773L1203.96 57.9783L1203.93 58.2773ZM1202.91 58.1875L1202.88 58.487L1202.91 58.1875ZM1122.82 61.5683L1122.84 61.8683L1122.82 61.5683ZM1119.68 61.7436L1119.7 62.0435L1119.68 61.7436ZM1121.5 45.9933H1121.8C1121.8 46.0455 1121.79 46.0968 1121.76 46.1421L1121.5 45.9933ZM1121.5 30.6108L1121.75 30.4511C1121.78 30.4989 1121.8 30.5543 1121.8 30.6108H1121.5ZM1112.28 15.924L1112.03 16.0837C1111.96 15.978 1111.97 15.8424 1112.04 15.7428C1112.12 15.6433 1112.25 15.6007 1112.37 15.6357L1112.28 15.924ZM1114.12 63.4782L1114.14 63.7781C1114.03 63.7844 1113.93 63.73 1113.87 63.6364C1113.81 63.5428 1113.81 63.425 1113.86 63.3294L1114.12 63.4782ZM1112.28 62.1604L1112.3 62.4603C1112.19 62.4666 1112.08 62.4122 1112.03 62.3186C1111.97 62.225 1111.97 62.1072 1112.02 62.0116L1112.28 62.1604ZM1114.12 17.2418L1113.87 17.4015C1113.8 17.2958 1113.81 17.1602 1113.88 17.0607C1113.96 16.9611 1114.09 16.9185 1114.21 16.9535L1114.12 17.2418ZM1123.34 31.9286L1123.6 31.7689C1123.63 31.8167 1123.64 31.8721 1123.64 31.9286H1123.34ZM1123.34 47.3111H1123.64C1123.64 47.3633 1123.63 47.4146 1123.6 47.4599L1123.34 47.3111ZM1215.61 10.2854L1215.39 10.0765L1215.61 10.2854ZM1216.9 8.95025L1216.69 8.74132C1216.75 8.67839 1216.83 8.64518 1216.92 8.65039L1216.9 8.95025ZM1218.15 9.02487L1218.14 9.32473L1218.15 9.02487ZM1200.28 36.9689L1200 37.0645C1199.98 37.0013 1199.98 36.9329 1200 36.87L1200.28 36.9689ZM1206.19 20.0141L1205.91 19.9153C1205.92 19.8741 1205.94 19.8365 1205.98 19.8052L1206.19 20.0141ZM1079.13 35.6809H1078.83C1078.83 35.6269 1078.85 35.5738 1078.87 35.5274L1079.13 35.6809ZM1080.04 38.4426L1079.74 38.4431L1079.74 38.4373L1080.04 38.4426ZM1080.04 40.6409L1079.74 40.6418L1079.74 40.6413L1080.04 40.6409ZM1080.04 41.6559L1079.74 41.663L1079.74 41.6569L1080.04 41.6559ZM1080.07 42.7602L1080.37 42.7531C1080.37 42.8332 1080.34 42.9106 1080.29 42.9683C1080.23 43.0261 1080.16 43.0593 1080.08 43.0606L1080.07 42.7602ZM1079.13 42.7758L1079.14 43.0761C1079.06 43.0775 1078.98 43.0464 1078.92 42.99C1078.86 42.9335 1078.83 42.8563 1078.83 42.7758H1079.13ZM1189.97 18.084L1189.89 17.7941C1190.05 17.7521 1190.21 17.8398 1190.26 17.9931L1189.97 18.084ZM1191.81 19.4018L1191.74 19.1119C1191.89 19.0699 1192.05 19.1576 1192.1 19.3109L1191.81 19.4018ZM1192.95 22.9769L1193.24 22.8859C1193.28 23.0361 1193.21 23.1975 1193.06 23.2559L1192.95 22.9769ZM1164.57 34.2977L1164.68 34.5767C1164.65 34.5865 1164.63 34.593 1164.6 34.5961L1164.57 34.2977ZM1133.91 37.8727L1133.94 38.1711C1133.82 38.1852 1133.71 38.1251 1133.65 38.0188C1133.59 37.9126 1133.6 37.7812 1133.67 37.6859L1133.91 37.8727ZM1132.07 36.5549L1132.1 36.8533C1131.98 36.8674 1131.86 36.8072 1131.8 36.701C1131.75 36.5948 1131.76 36.4633 1131.83 36.3681L1132.07 36.5549ZM1134.91 32.9799L1134.67 32.7931C1134.71 32.7428 1134.77 32.7067 1134.83 32.6899L1134.91 32.9799ZM1136.75 34.2977L1136.51 34.1109C1136.55 34.0607 1136.61 34.0245 1136.67 34.0077L1136.75 34.2977ZM1191.11 21.659L1191.39 21.5681C1191.44 21.7183 1191.37 21.8797 1191.22 21.9381L1191.11 21.659ZM1162.72 32.9799L1162.83 33.2589C1162.81 33.2687 1162.78 33.2752 1162.76 33.2783L1162.72 32.9799ZM1189.97 34.7669L1189.89 34.4769C1190.05 34.4349 1190.21 34.5226 1190.26 34.6759L1189.97 34.7669ZM1134.91 49.6627L1134.67 49.4759C1134.71 49.4257 1134.77 49.3895 1134.83 49.3727L1134.91 49.6627ZM1132.07 53.2377L1132.1 53.5361C1131.98 53.5502 1131.86 53.4901 1131.8 53.3838C1131.75 53.2776 1131.76 53.1462 1131.83 53.0509L1132.07 53.2377ZM1136.75 50.9805L1136.51 50.7937C1136.55 50.7435 1136.61 50.7073 1136.67 50.6905L1136.75 50.9805ZM1191.81 36.0847L1191.74 35.7947C1191.89 35.7527 1192.05 35.8404 1192.1 35.9937L1191.81 36.0847ZM1192.95 39.6597L1193.24 39.5687C1193.28 39.7189 1193.21 39.8803 1193.06 39.9387L1192.95 39.6597ZM1164.57 50.9805L1164.68 51.2595C1164.65 51.2693 1164.63 51.2758 1164.6 51.2789L1164.57 50.9805ZM1133.91 54.5555L1133.94 54.8539C1133.82 54.868 1133.71 54.8079 1133.65 54.7016C1133.59 54.5954 1133.6 54.464 1133.67 54.3687L1133.91 54.5555ZM1162.72 49.6627L1162.83 49.9417C1162.81 49.9515 1162.78 49.958 1162.76 49.9611L1162.72 49.6627ZM1191.11 38.3419L1191.39 38.2509C1191.44 38.4011 1191.37 38.5625 1191.22 38.6209L1191.11 38.3419ZM1228.83 9.02372C1228.24 8.6591 1227.49 8.21665 1226.59 7.73885L1226.88 7.20925C1227.78 7.69361 1228.54 8.1425 1229.14 8.51311L1228.83 9.02372ZM1228.97 8.4684C1229.45 8.44406 1229.93 8.43175 1230.42 8.43175V9.03254C1229.94 9.03254 1229.47 9.04459 1229 9.06842L1228.97 8.4684ZM1230.42 8.43175C1236.2 8.43175 1241.62 10.1752 1246.21 13.1988L1245.88 13.7005C1241.39 10.7386 1236.08 9.03254 1230.42 9.03254V8.43175ZM1245.86 13.6871C1241.01 9.92693 1235.02 7.71473 1228.58 7.71473V7.11394C1235.16 7.11394 1241.28 9.37493 1246.23 13.2122L1245.86 13.6871ZM1228.58 7.71473C1227.96 7.71473 1227.36 7.73461 1226.76 7.77381L1226.72 7.17429C1227.33 7.13425 1227.95 7.11394 1228.58 7.11394V7.71473ZM1122.1 18.5694C1121.14 18.3784 1120.24 18.1869 1119.39 18.0003L1119.52 17.4135C1120.36 17.5994 1121.27 17.7901 1122.22 17.9803L1122.1 18.5694ZM1123.09 18.7642C1122.75 18.6994 1122.42 18.6344 1122.1 18.5694L1122.22 17.9803C1122.54 18.045 1122.87 18.1098 1123.2 18.1743L1123.09 18.7642ZM1149.57 20.311C1141.18 21.6009 1130.77 20.2466 1123.09 18.7642L1123.2 18.1743C1130.87 19.6543 1141.19 20.9905 1149.48 19.7172L1149.57 20.311ZM1197.47 5.62612C1181.03 13.5757 1162.3 18.356 1149.57 20.311L1149.48 19.7172C1162.17 17.769 1180.84 13.0031 1197.21 5.08524L1197.47 5.62612ZM1222.81 5.93658C1216.43 3.2708 1206.89 1.07119 1197.47 5.62612L1197.21 5.08524C1206.86 0.421752 1216.6 2.68731 1223.04 5.38234L1222.81 5.93658ZM1225.38 7.11437C1224.6 6.72549 1223.74 6.32625 1222.81 5.93658L1223.04 5.38234C1223.98 5.77741 1224.86 6.1821 1225.65 6.57623L1225.38 7.11437ZM1226.59 7.73885C1226.22 7.53596 1225.81 7.32672 1225.38 7.11437L1225.65 6.57623C1226.08 6.79146 1226.49 7.00356 1226.88 7.20925L1226.59 7.73885ZM1226.76 7.77381C1226.52 7.78906 1226.29 7.80724 1226.05 7.82831L1226 7.22996C1226.24 7.20844 1226.48 7.18987 1226.72 7.17429L1226.76 7.77381ZM1226.15 7.25579C1227.1 7.68772 1227.96 8.11996 1228.72 8.52706L1228.44 9.05665C1227.69 8.65508 1226.84 8.22863 1225.9 7.80248L1226.15 7.25579ZM1228.56 8.49209C1228.7 8.48323 1228.83 8.47533 1228.97 8.4684L1229 9.06842C1228.87 9.0752 1228.73 9.08294 1228.6 9.09162L1228.56 8.49209ZM1230.48 9.7591C1230.3 10.0009 1230.3 10.0009 1230.3 10.0009C1230.3 10.0009 1230.3 10.0009 1230.3 10.0009C1230.3 10.0009 1230.3 10.0009 1230.3 10.0009C1230.3 10.0009 1230.3 10.0008 1230.3 10.0008C1230.3 10.0007 1230.3 10.0004 1230.3 10.0001C1230.3 9.99949 1230.3 9.99848 1230.3 9.9971C1230.29 9.99435 1230.29 9.99011 1230.28 9.98443C1230.26 9.97308 1230.24 9.95597 1230.21 9.93346C1230.15 9.88846 1230.05 9.82188 1229.93 9.7366C1229.68 9.56604 1229.3 9.32075 1228.83 9.02372L1229.14 8.51311C1229.63 8.81504 1230.01 9.06509 1230.26 9.24013C1230.39 9.32766 1230.49 9.39644 1230.56 9.4436C1230.59 9.46718 1230.62 9.48535 1230.63 9.49776C1230.64 9.50396 1230.65 9.50873 1230.65 9.512C1230.65 9.51364 1230.66 9.5149 1230.66 9.51579C1230.66 9.51624 1230.66 9.51659 1230.66 9.51684C1230.66 9.51697 1230.66 9.51707 1230.66 9.51715C1230.66 9.51719 1230.66 9.51723 1230.66 9.51725C1230.66 9.51727 1230.66 9.51729 1230.66 9.51729C1230.66 9.51731 1230.66 9.51732 1230.48 9.7591ZM1230.29 9.44651L1230.5 9.45924L1230.46 10.059L1230.25 10.0462L1230.29 9.44651ZM1232.32 11.0769C1232.15 11.3187 1232.15 11.3187 1232.15 11.3187C1232.15 11.3187 1232.15 11.3187 1232.15 11.3187C1232.15 11.3187 1232.15 11.3187 1232.15 11.3187C1232.15 11.3187 1232.15 11.3186 1232.15 11.3185C1232.14 11.3183 1232.14 11.318 1232.14 11.3176C1232.14 11.3167 1232.14 11.3152 1232.14 11.3133C1232.13 11.3094 1232.12 11.3035 1232.11 11.2956C1232.09 11.2798 1232.06 11.2561 1232.01 11.2251C1231.93 11.1631 1231.8 11.0718 1231.62 10.956C1231.28 10.7243 1230.77 10.3945 1230.11 10.0044L1230.42 9.48839C1231.09 9.88452 1231.6 10.22 1231.96 10.4571C1232.13 10.5756 1232.27 10.6695 1232.36 10.7341C1232.41 10.7664 1232.44 10.7913 1232.47 10.8084C1232.48 10.8169 1232.49 10.8234 1232.49 10.8279C1232.5 10.8302 1232.5 10.8319 1232.5 10.8331C1232.5 10.8337 1232.5 10.8342 1232.5 10.8345C1232.5 10.8347 1232.5 10.8348 1232.5 10.8349C1232.5 10.835 1232.5 10.835 1232.5 10.835C1232.5 10.8351 1232.5 10.8351 1232.5 10.8351C1232.5 10.8351 1232.5 10.8351 1232.32 11.0769ZM1220.9 10.0955L1232.34 10.777L1232.31 11.3768L1220.86 10.6952L1220.9 10.0955ZM1220.98 10.678C1219.61 11.1704 1218.29 11.767 1217.02 12.4591L1216.73 11.9315C1218.03 11.225 1219.38 10.6157 1220.78 10.1127L1220.98 10.678ZM1217.09 12.4042L1208.25 21.5409L1207.82 21.123L1216.66 11.9864L1217.09 12.4042ZM1208.32 21.4308L1202.41 38.3856L1201.84 38.1878L1207.75 21.2331L1208.32 21.4308ZM1202.41 38.1911L1208.32 55.7927L1207.75 55.9839L1201.84 38.3823L1202.41 38.1911ZM1208.25 55.6831L1213.58 61.3857L1213.15 61.796L1207.81 56.0934L1208.25 55.6831ZM1213.36 61.5909C1213.15 61.7999 1213.15 61.8001 1213.15 61.8003C1213.15 61.8004 1213.15 61.8006 1213.15 61.8007C1213.15 61.8009 1213.15 61.8011 1213.15 61.8013C1213.15 61.8017 1213.15 61.802 1213.15 61.8023C1213.15 61.8028 1213.15 61.803 1213.15 61.803C1213.15 61.8029 1213.15 61.8018 1213.15 61.7997C1213.14 61.7956 1213.13 61.7874 1213.12 61.7756C1213.09 61.7521 1213.04 61.7139 1212.97 61.6642C1212.82 61.5646 1212.56 61.4186 1212.17 61.2495C1211.38 60.9109 1210.03 60.4815 1207.81 60.147L1207.9 59.5529C1210.15 59.893 1211.56 60.334 1212.41 60.6973C1212.83 60.8791 1213.12 61.0417 1213.3 61.1632C1213.39 61.224 1213.46 61.2744 1213.5 61.3118C1213.53 61.3305 1213.54 61.3459 1213.56 61.3577C1213.56 61.3636 1213.57 61.3685 1213.57 61.3726C1213.57 61.3746 1213.58 61.3764 1213.58 61.3779C1213.58 61.3787 1213.58 61.3794 1213.58 61.38C1213.58 61.3803 1213.58 61.3806 1213.58 61.3809C1213.58 61.3811 1213.58 61.3813 1213.58 61.3814C1213.58 61.3816 1213.58 61.3818 1213.36 61.5909ZM1208.09 59.6621C1209.58 61.5208 1211.27 63.1895 1213.13 64.6308L1212.76 65.1058C1210.86 63.6351 1209.14 61.933 1207.62 60.0379L1208.09 59.6621ZM1213.11 64.6174C1217.61 67.5794 1222.91 69.2854 1228.58 69.2854V69.8862C1222.79 69.8862 1217.37 68.1427 1212.78 65.1191L1213.11 64.6174ZM1228.58 69.2854C1244.59 69.2854 1257.79 55.6211 1257.79 38.5H1258.39C1258.39 55.9258 1244.95 69.8862 1228.58 69.8862V69.2854ZM1257.79 38.5C1257.79 28.271 1253.07 19.2719 1245.86 13.6871L1246.23 13.2122C1253.59 18.9101 1258.39 28.084 1258.39 38.5H1257.79ZM1246.21 13.1988C1254.61 18.7307 1260.23 28.5473 1260.23 39.8179H1259.63C1259.63 28.7494 1254.11 19.1214 1245.88 13.7005L1246.21 13.1988ZM1260.23 39.8179C1260.23 57.2436 1246.79 71.204 1230.42 71.204V70.6032C1246.43 70.6032 1259.63 56.9389 1259.63 39.8179H1260.23ZM1230.42 71.204C1223.83 71.204 1217.72 68.943 1212.76 65.1058L1213.13 64.6308C1217.99 68.391 1223.97 70.6032 1230.42 70.6032V71.204ZM1212.78 65.1191C1210.58 63.6686 1208.57 61.9235 1206.8 59.935L1207.25 59.5357C1208.98 61.4857 1210.95 63.1962 1213.11 64.6174L1212.78 65.1191ZM1206.99 60.0333C1206.31 59.9466 1205.55 59.8691 1204.73 59.8048L1204.77 59.2059C1205.61 59.2708 1206.37 59.3493 1207.06 59.4374L1206.99 60.0333ZM1204.73 59.8048C1203.17 59.6841 1201.33 59.6102 1199.18 59.6102V59.0094C1201.35 59.0094 1203.2 59.0837 1204.77 59.2059L1204.73 59.8048ZM1199.18 59.6102C1189.57 59.6102 1140.42 62.3053 1121.54 63.3614L1121.5 62.7615C1140.38 61.7063 1189.55 59.0094 1199.18 59.0094V59.6102ZM1121.54 63.3614C1120.25 63.4335 1119.1 63.4979 1118.12 63.5533L1118.08 62.9535C1119.07 62.8981 1120.21 62.8336 1121.5 62.7615L1121.54 63.3614ZM1118.3 63.4748C1113.05 68.2942 1106.19 71.204 1098.71 71.204V70.6032C1106.03 70.6032 1112.75 67.7564 1117.9 63.0321L1118.3 63.4748ZM1098.71 71.204C1092.13 71.204 1086.01 68.943 1081.06 65.1057L1081.42 64.6308C1086.28 68.391 1092.27 70.6032 1098.71 70.6032V71.204ZM1081.08 65.1191C1072.68 59.5871 1067.06 49.7706 1067.06 38.5H1067.66C1067.66 49.5685 1073.18 59.1965 1081.41 64.6174L1081.08 65.1191ZM1067.06 38.5C1067.06 21.0743 1080.5 7.11394 1096.87 7.11394V7.71473C1080.85 7.71473 1067.66 21.379 1067.66 38.5H1067.06ZM1096.87 7.11394C1103.46 7.11394 1109.57 9.37495 1114.53 13.2122L1114.16 13.6872C1109.3 9.92695 1103.32 7.71473 1096.87 7.71473V7.11394ZM1114.51 13.1988C1116.38 14.4303 1118.11 15.874 1119.67 17.4987L1119.24 17.9151C1117.71 16.3221 1116.01 14.9071 1114.18 13.7006L1114.51 13.1988ZM1119.39 18.0003C1119.12 17.9401 1118.85 17.8804 1118.59 17.8214L1118.72 17.2354C1118.98 17.2942 1119.25 17.3536 1119.52 17.4135L1119.39 18.0003ZM1119.67 17.4987C1120.03 17.8727 1120.38 18.2563 1120.72 18.6492L1120.27 19.0433C1119.93 18.658 1119.59 18.2819 1119.24 17.9151L1119.67 17.4987ZM1120.56 18.5532C1121.63 18.7942 1122.8 19.0465 1124.06 19.2981L1123.94 19.8872C1122.68 19.6346 1121.5 19.3813 1120.43 19.1393L1120.56 18.5532ZM1124.06 19.2981C1131.81 20.8503 1142.67 22.364 1151.33 21.035L1151.42 21.6288C1142.65 22.9748 1131.7 21.4415 1123.94 19.8872L1124.06 19.2981ZM1151.33 21.035C1164.01 19.0868 1182.68 14.3209 1199.05 6.40305L1199.31 6.94393C1182.87 14.8935 1164.14 19.6738 1151.42 21.6288L1151.33 21.035ZM1199.05 6.40305C1208.7 1.73956 1218.44 4.00512 1224.88 6.70015L1224.65 7.25439C1218.28 4.5886 1208.73 2.389 1199.31 6.94393L1199.05 6.40305ZM1224.88 6.70015C1225.32 6.88396 1225.74 7.06985 1226.15 7.25579L1225.9 7.80248C1225.5 7.61905 1225.08 7.43568 1224.65 7.25439L1224.88 6.70015ZM1226.05 7.82831C1223.66 8.04506 1221.34 8.56782 1219.14 9.3602L1218.94 8.79492C1221.19 7.98551 1223.55 7.45141 1226 7.22996L1226.05 7.82831ZM1219.06 8.7777L1224.36 9.0937L1224.33 9.69343L1219.02 9.37742L1219.06 8.7777ZM1224.28 9.10025C1225.67 8.79214 1227.1 8.58686 1228.56 8.49209L1228.6 9.09162C1227.17 9.18438 1225.77 9.38531 1224.41 9.68689L1224.28 9.10025ZM1228.72 8.52706C1229.36 8.87042 1229.93 9.19595 1230.42 9.48839L1230.11 10.0044C1229.63 9.7163 1229.07 9.39535 1228.44 9.05665L1228.72 8.52706ZM1230.25 10.0462L1224.33 9.69343L1224.36 9.0937L1230.29 9.44651L1230.25 10.0462ZM1224.41 9.68689C1223.24 9.94506 1222.1 10.277 1220.98 10.678L1220.78 10.1127C1221.92 9.70312 1223.09 9.36401 1224.28 9.10025L1224.41 9.68689ZM1218.76 9.96819L1220.9 10.0955L1220.86 10.6952L1218.73 10.5679L1218.76 9.96819ZM1216.66 11.9864L1218.53 10.0591L1218.96 10.477L1217.09 12.4042L1216.66 11.9864ZM1204.16 24.9467C1207.01 19.3804 1211.41 14.8347 1216.73 11.9315L1217.02 12.4591C1211.8 15.3029 1207.49 19.7587 1204.69 25.2205L1204.16 24.9467ZM1204.71 25.1825L1201.83 33.4277L1201.27 33.23L1204.14 24.9848L1204.71 25.1825ZM1200.62 38.8659C1200.68 36.9509 1200.89 35.0807 1201.26 33.2696L1201.85 33.3881C1201.49 35.1658 1201.28 37.002 1201.22 38.8829L1200.62 38.8659ZM1205.91 54.6661L1200.64 38.97L1201.21 38.7788L1206.48 54.4749L1205.91 54.6661ZM1211.3 60.4782L1205.97 54.7756L1206.41 54.3653L1211.74 60.0679L1211.3 60.4782ZM1207.02 58.3957C1208.88 58.7344 1210.04 59.1363 1210.75 59.4605C1211.1 59.6227 1211.34 59.7658 1211.5 59.8722C1211.57 59.9255 1211.63 59.9695 1211.67 60.0022C1211.69 60.0186 1211.7 60.0321 1211.72 60.0425C1211.72 60.0477 1211.73 60.0521 1211.73 60.0557C1211.73 60.0575 1211.73 60.0591 1211.73 60.0604C1211.74 60.0611 1211.74 60.0618 1211.74 60.0624C1211.74 60.0626 1211.74 60.0629 1211.74 60.0632C1211.74 60.0633 1211.74 60.0635 1211.74 60.0636C1211.74 60.0638 1211.74 60.064 1211.52 60.273C1211.31 60.4821 1211.31 60.4823 1211.31 60.4825C1211.31 60.4825 1211.31 60.4827 1211.31 60.4828C1211.31 60.483 1211.31 60.4832 1211.31 60.4834C1211.31 60.4838 1211.31 60.4841 1211.31 60.4843C1211.31 60.4848 1211.31 60.4851 1211.31 60.4852C1211.31 60.4853 1211.31 60.4845 1211.31 60.4828C1211.3 60.4795 1211.3 60.4728 1211.28 60.4629C1211.26 60.4432 1211.22 60.4108 1211.16 60.3681C1211.03 60.2827 1210.82 60.1561 1210.5 60.0067C1209.84 59.7076 1208.73 59.3186 1206.91 58.9867L1207.02 58.3957ZM1207.21 58.5145C1207.49 58.9046 1207.79 59.2872 1208.09 59.6621L1207.62 60.0379C1207.31 59.6556 1207.01 59.2655 1206.72 58.8678L1207.21 58.5145ZM1207.81 60.147C1207.55 60.1077 1207.27 60.0697 1206.99 60.0333L1207.06 59.4374C1207.35 59.4743 1207.63 59.5129 1207.9 59.5529L1207.81 60.147ZM1206.8 59.935C1206.45 59.5395 1206.11 59.1344 1205.77 58.7201L1206.24 58.3443C1206.57 58.7506 1206.9 59.1479 1207.25 59.5357L1206.8 59.935ZM1203.96 57.9783C1204.73 58.0535 1205.42 58.1404 1206.05 58.2351L1205.96 58.8292C1205.35 58.7362 1204.66 58.6505 1203.9 58.5762L1203.96 57.9783ZM1202.93 57.888C1203.29 57.9158 1203.63 57.946 1203.96 57.9783L1203.9 58.5762C1203.58 58.5443 1203.24 58.5145 1202.88 58.487L1202.93 57.888ZM1197.34 57.6916C1199.51 57.6916 1201.35 57.7659 1202.93 57.888L1202.88 58.487C1201.32 58.3662 1199.49 58.2924 1197.34 58.2924V57.6916ZM1122.81 61.2684C1143.49 60.1183 1188.2 57.6916 1197.34 57.6916V58.2924C1188.22 58.2924 1143.53 60.7174 1122.84 61.8683L1122.81 61.2684ZM1119.66 61.4437C1120.63 61.3894 1121.68 61.3308 1122.81 61.2684L1122.84 61.8683C1121.72 61.9306 1120.67 61.9893 1119.7 62.0435L1119.66 61.4437ZM1119.61 61.4465L1119.66 61.4437L1119.7 62.0435L1119.64 62.0464L1119.61 61.4465ZM1119.85 61.9529C1119.35 62.4791 1118.83 62.9867 1118.3 63.4748L1117.9 63.0321C1118.42 62.5537 1118.92 62.056 1119.41 61.54L1119.85 61.9529ZM1118.12 63.5533C1116.3 63.6555 1115.04 63.7269 1114.48 63.759L1114.44 63.1592C1115.01 63.1271 1116.27 63.0556 1118.08 62.9535L1118.12 63.5533ZM1114.64 63.6957C1109.67 67.5889 1103.51 69.8862 1096.87 69.8862V69.2854C1103.37 69.2854 1109.4 67.0377 1114.27 63.2225L1114.64 63.6957ZM1096.87 69.8862C1091.09 69.8862 1085.67 68.1427 1081.08 65.1191L1081.41 64.6174C1085.9 67.5793 1091.21 69.2854 1096.87 69.2854V69.8862ZM1081.06 65.1057C1073.7 59.4078 1068.9 50.2339 1068.9 39.8179H1069.5C1069.5 50.0469 1074.21 59.0459 1081.42 64.6308L1081.06 65.1057ZM1068.9 39.8179C1068.9 22.3921 1082.34 8.43175 1098.71 8.43175V9.03254C1082.7 9.03254 1069.5 22.6968 1069.5 39.8179H1068.9ZM1098.71 8.43175C1104.5 8.43175 1109.92 10.1753 1114.51 13.1988L1114.18 13.7006C1109.68 10.7386 1104.37 9.03254 1098.71 9.03254V8.43175ZM1114.53 13.2122C1116.1 14.4331 1117.56 15.8135 1118.88 17.3314L1118.43 17.7255C1117.13 16.2369 1115.7 14.8837 1114.16 13.6872L1114.53 13.2122ZM1121.76 46.1421L1119.63 49.8739L1119.11 49.5763L1121.24 45.8445L1121.76 46.1421ZM1121.8 30.6108V45.9933H1121.2V30.6108H1121.8ZM1112.54 15.7643L1121.75 30.4511L1121.25 30.7705L1112.03 16.0837L1112.54 15.7643ZM1118.59 17.8214C1116.64 17.3822 1115.04 16.9802 1113.93 16.6879C1113.38 16.5418 1112.95 16.4231 1112.65 16.3408C1112.5 16.2996 1112.39 16.2676 1112.31 16.2458C1112.27 16.2349 1112.25 16.2266 1112.23 16.221C1112.22 16.2182 1112.21 16.216 1112.2 16.2146C1112.2 16.2139 1112.2 16.2133 1112.2 16.2129C1112.2 16.2127 1112.2 16.2126 1112.2 16.2125C1112.2 16.2124 1112.2 16.2124 1112.2 16.2124C1112.2 16.2124 1112.2 16.2124 1112.2 16.2123C1112.2 16.2123 1112.2 16.2123 1112.28 15.924C1112.37 15.6357 1112.37 15.6357 1112.37 15.6357C1112.37 15.6357 1112.37 15.6357 1112.37 15.6357C1112.37 15.6357 1112.37 15.6357 1112.37 15.6358C1112.37 15.6359 1112.37 15.636 1112.37 15.6362C1112.37 15.6365 1112.37 15.637 1112.37 15.6377C1112.38 15.639 1112.38 15.6411 1112.39 15.6438C1112.41 15.6493 1112.44 15.6574 1112.48 15.6682C1112.55 15.6896 1112.66 15.7213 1112.81 15.762C1113.1 15.8436 1113.53 15.9616 1114.09 16.1069C1115.19 16.3977 1116.78 16.7979 1118.72 17.2354L1118.59 17.8214ZM1118.88 17.3314C1119.2 17.6957 1119.51 18.0679 1119.81 18.4477L1119.33 18.8203C1119.04 18.4477 1118.74 18.0827 1118.43 17.7255L1118.88 17.3314ZM1119.64 18.3414C1119.94 18.4108 1120.24 18.4815 1120.56 18.5532L1120.43 19.1393C1120.11 19.0673 1119.8 18.9963 1119.5 18.9266L1119.64 18.3414ZM1120.72 18.6492C1125.56 24.216 1128.52 31.6335 1128.52 39.8179H1127.92C1127.92 31.7804 1125.01 24.5024 1120.27 19.0433L1120.72 18.6492ZM1128.52 39.8179C1128.52 48.4854 1125.2 56.2928 1119.85 61.9529L1119.41 61.54C1124.66 55.99 1127.92 48.3298 1127.92 39.8179H1128.52ZM1116.24 61.6357C1117.21 61.581 1118.34 61.5175 1119.61 61.4465L1119.64 62.0464C1118.38 62.1173 1117.24 62.1808 1116.27 62.2355L1116.24 61.6357ZM1114.27 63.2225C1114.89 62.744 1115.48 62.2408 1116.05 61.7143L1116.46 62.1569C1115.87 62.694 1115.27 63.2074 1114.64 63.6957L1114.27 63.2225ZM1114.11 63.1783L1114.44 63.1592L1114.48 63.759L1114.14 63.7781L1114.11 63.1783ZM1115.22 62.1573L1114.38 63.627L1113.86 63.3294L1114.7 61.8597L1115.22 62.1573ZM1112.28 62.1604C1112.26 61.8605 1112.26 61.8605 1112.26 61.8605C1112.26 61.8605 1112.26 61.8605 1112.26 61.8605C1112.26 61.8605 1112.26 61.8605 1112.26 61.8605C1112.26 61.8605 1112.26 61.8605 1112.26 61.8604C1112.27 61.8604 1112.27 61.8604 1112.27 61.8603C1112.27 61.8602 1112.27 61.8601 1112.28 61.8598C1112.28 61.8594 1112.29 61.8588 1112.31 61.8579C1112.34 61.8562 1112.38 61.8537 1112.44 61.8504C1112.56 61.8437 1112.73 61.8339 1112.96 61.8209C1113.41 61.7951 1114.08 61.7571 1114.94 61.7086L1114.98 62.3085C1114.12 62.357 1113.45 62.3949 1112.99 62.4208C1112.77 62.4337 1112.59 62.4436 1112.48 62.4502C1112.42 62.4535 1112.37 62.4561 1112.34 62.4578C1112.33 62.4586 1112.32 62.4592 1112.31 62.4597C1112.31 62.4599 1112.3 62.46 1112.3 62.4601C1112.3 62.4602 1112.3 62.4602 1112.3 62.4603C1112.3 62.4603 1112.3 62.4603 1112.3 62.4603C1112.3 62.4603 1112.3 62.4603 1112.3 62.4603C1112.3 62.4603 1112.3 62.4603 1112.3 62.4603C1112.3 62.4603 1112.3 62.4603 1112.28 62.1604ZM1117.07 54.3598L1112.54 62.3092L1112.02 62.0116L1116.55 54.0622L1117.07 54.3598ZM1098.71 63.3512C1106 63.3512 1112.48 59.6993 1116.57 54.035L1117.06 54.3869C1112.86 60.1948 1106.21 63.952 1098.71 63.952V63.3512ZM1085.22 58.6095C1088.98 61.587 1093.65 63.3512 1098.71 63.3512V63.952C1093.51 63.952 1088.7 62.1373 1084.85 59.0802L1085.22 58.6095ZM1084.87 59.0976C1078.27 54.8544 1073.86 47.2142 1073.86 38.5005H1074.46C1074.46 47.0099 1078.76 54.4595 1085.2 58.5921L1084.87 59.0976ZM1073.86 38.5005C1073.86 25.3659 1083.87 14.6606 1096.35 14.3726L1096.37 14.9733C1084.24 15.2531 1074.46 25.6663 1074.46 38.5005H1073.86ZM1096.35 14.3726C1096.53 14.3684 1096.7 14.3663 1096.87 14.3663V14.9671C1096.7 14.9671 1096.54 14.9691 1096.37 14.9732L1096.35 14.3726ZM1096.87 14.3663C1097.04 14.3663 1097.21 14.3684 1097.39 14.3726L1097.37 14.9733C1097.2 14.9691 1097.04 14.9671 1096.87 14.9671V14.3663ZM1097.39 14.3726C1102.39 14.4882 1107.01 16.2827 1110.73 19.2385L1110.36 19.7092C1106.73 16.8303 1102.24 15.0856 1097.37 14.9733L1097.39 14.3726ZM1121.12 39.8183C1121.12 31.3088 1116.82 23.8592 1110.39 19.7266L1110.71 19.2211C1117.32 23.4644 1121.72 31.1045 1121.72 39.8183H1121.12ZM1119.1 49.6051C1120.4 46.6255 1121.12 43.3113 1121.12 39.8183H1121.72C1121.72 43.3949 1120.98 46.7908 1119.65 49.8452L1119.1 49.6051ZM1110.39 19.7266C1109.95 19.4478 1109.51 19.1842 1109.05 18.9363L1109.34 18.4093C1109.81 18.6639 1110.26 18.9348 1110.71 19.2211L1110.39 19.7266ZM1110.73 19.2385C1111.2 19.6091 1111.65 19.9979 1112.09 20.404L1111.69 20.8448C1111.26 20.4491 1110.82 20.0702 1110.36 19.7092L1110.73 19.2385ZM1112.07 20.3881C1117.58 24.7106 1121.27 31.67 1121.27 39.8179H1120.67C1120.67 31.8558 1117.07 25.0702 1111.7 20.8607L1112.07 20.3881ZM1121.27 39.8179C1121.27 53.5743 1110.75 63.9516 1098.71 63.9516V63.3508C1110.4 63.3508 1120.67 53.2667 1120.67 39.8179H1121.27ZM1098.71 63.9516C1094.17 63.9516 1089.84 62.473 1086.21 59.8934L1086.56 59.4039C1090.09 61.9154 1094.3 63.3508 1098.71 63.3508V63.9516ZM1086.24 59.9122C1085.78 59.6567 1085.32 59.385 1084.87 59.0976L1085.2 58.5921C1085.63 58.8719 1086.08 59.1364 1086.53 59.3851L1086.24 59.9122ZM1083.89 57.4688C1084.32 57.8664 1084.76 58.2469 1085.22 58.6095L1084.85 59.0802C1084.38 58.708 1083.92 58.3174 1083.48 57.9094L1083.89 57.4688ZM1083.5 57.9254C1078 53.6025 1074.31 46.645 1074.31 38.5H1074.91C1074.91 46.4593 1078.51 53.243 1083.87 57.4528L1083.5 57.9254ZM1074.31 38.5C1074.31 24.9403 1084.53 14.6644 1096.35 14.3726L1096.37 14.9732C1084.89 15.2564 1074.91 25.2441 1074.91 38.5H1074.31ZM1096.35 14.3726C1096.53 14.3687 1096.7 14.3667 1096.87 14.3667V14.9675C1096.7 14.9675 1096.54 14.9694 1096.37 14.9733L1096.35 14.3726ZM1096.87 14.3667C1097.04 14.3667 1097.21 14.3687 1097.39 14.3726L1097.37 14.9733C1097.21 14.9694 1097.04 14.9675 1096.87 14.9675V14.3667ZM1097.39 14.3726C1101.74 14.4801 1105.88 15.9443 1109.37 18.428L1109.02 18.9175C1105.63 16.4992 1101.6 15.0776 1097.37 14.9733L1097.39 14.3726ZM1109.05 18.9363C1106.1 17.3195 1102.76 16.3738 1099.22 16.2912L1099.23 15.6906C1102.88 15.7755 1106.31 16.7479 1109.34 18.4093L1109.05 18.9363ZM1109.37 18.428C1109.7 18.6603 1110.02 18.9016 1110.33 19.1514L1109.96 19.622C1109.65 19.3786 1109.34 19.1437 1109.02 18.9175L1109.37 18.428ZM1110.31 19.1339C1110.92 19.5227 1111.51 19.9413 1112.07 20.3881L1111.7 20.8607C1111.15 20.4256 1110.58 20.018 1109.99 19.6395L1110.31 19.1339ZM1112.09 20.404C1116.87 24.8274 1119.88 31.2969 1119.88 38.5005H1119.28C1119.28 31.4661 1116.34 25.1557 1111.69 20.8448L1112.09 20.404ZM1119.88 38.5005C1119.88 51.8153 1109.59 62.6342 1096.87 62.6342V62.0334C1109.23 62.0334 1119.28 51.5112 1119.28 38.5005H1119.88ZM1096.87 62.6342C1093.04 62.6342 1089.42 61.6509 1086.24 59.9122L1086.53 59.3851C1089.63 61.0772 1093.14 62.0334 1096.87 62.0334V62.6342ZM1086.21 59.8934C1085.89 59.6601 1085.56 59.4176 1085.25 59.1665L1085.62 58.696C1085.93 58.9406 1086.24 59.1766 1086.56 59.4039L1086.21 59.8934ZM1085.27 59.1841C1084.66 58.7939 1084.07 58.3738 1083.5 57.9254L1083.87 57.4528C1084.43 57.8896 1085 58.2986 1085.6 58.6784L1085.27 59.1841ZM1076.31 39.8183C1076.31 46.8498 1079.24 53.1579 1083.89 57.4688L1083.48 57.9094C1078.71 53.4862 1075.7 47.0189 1075.7 39.8183H1076.31ZM1098.21 16.2911C1086.08 16.5709 1076.31 26.9841 1076.31 39.8183H1075.7C1075.7 26.6837 1085.71 15.9784 1098.2 15.6904L1098.21 16.2911ZM1098.71 16.2849C1098.55 16.2849 1098.38 16.2869 1098.21 16.2911L1098.2 15.6905C1098.37 15.6862 1098.54 15.6841 1098.71 15.6841V16.2849ZM1099.22 16.2912C1099.05 16.287 1098.88 16.2849 1098.71 16.2849V15.6841C1098.89 15.6841 1099.06 15.6863 1099.23 15.6906L1099.22 16.2912ZM1098.71 15.6845C1098.89 15.6845 1099.06 15.6865 1099.23 15.6906L1099.22 16.2912C1099.05 16.2873 1098.88 16.2853 1098.71 16.2853V15.6845ZM1098.2 15.6904C1098.37 15.6865 1098.54 15.6845 1098.71 15.6845V16.2853C1098.54 16.2853 1098.38 16.2872 1098.21 16.2911L1098.2 15.6904ZM1076.15 39.8179C1076.15 26.2582 1086.37 15.9822 1098.2 15.6905L1098.21 16.2911C1086.74 16.5742 1076.76 26.5619 1076.76 39.8179H1076.15ZM1085.25 59.1665C1079.8 54.8383 1076.15 47.9149 1076.15 39.8179H1076.76C1076.76 47.7302 1080.31 54.4809 1085.62 58.696L1085.25 59.1665ZM1096.87 62.6338C1092.7 62.6338 1088.71 61.3863 1085.27 59.1841L1085.6 58.6784C1088.94 60.822 1092.82 62.033 1096.87 62.033V62.6338ZM1119.43 38.5C1119.43 52.2565 1108.91 62.6338 1096.87 62.6338V62.033C1108.56 62.033 1118.83 51.9489 1118.83 38.5H1119.43ZM1110.33 19.1514C1115.79 23.4797 1119.43 30.4031 1119.43 38.5H1118.83C1118.83 30.5877 1115.27 23.837 1109.96 19.622L1110.33 19.1514ZM1099.23 15.6906C1103.22 15.79 1107.02 17.0236 1110.31 19.1339L1109.99 19.6395C1106.78 17.5855 1103.09 16.3877 1099.22 16.2912L1099.23 15.6906ZM1116.55 54.0622L1119.11 49.5763L1119.63 49.8739L1117.07 54.3598L1116.55 54.0622ZM1119.65 49.8452C1118.94 51.4629 1118.07 52.9848 1117.06 54.3869L1116.57 54.035C1117.56 52.6677 1118.41 51.1833 1119.1 49.6051L1119.65 49.8452ZM1116.27 62.2355L1114.98 62.3085L1114.94 61.7086L1116.24 61.6357L1116.27 62.2355ZM1126.68 38.5C1126.68 47.9733 1122.71 56.4192 1116.46 62.1569L1116.05 61.7143C1122.18 56.0891 1126.08 47.8032 1126.08 38.5H1126.68ZM1119.81 18.4477C1124.09 23.8723 1126.68 30.8514 1126.68 38.5H1126.08C1126.08 30.9885 1123.54 24.1403 1119.33 18.8203L1119.81 18.4477ZM1114.12 17.2418C1114.21 16.9535 1114.21 16.9535 1114.21 16.9535C1114.21 16.9535 1114.21 16.9535 1114.21 16.9535C1114.21 16.9535 1114.21 16.9535 1114.21 16.9536C1114.21 16.9536 1114.21 16.9537 1114.21 16.9539C1114.21 16.9542 1114.21 16.9546 1114.21 16.9552C1114.22 16.9563 1114.22 16.958 1114.23 16.9603C1114.25 16.9649 1114.27 16.9718 1114.3 16.9809C1114.37 16.999 1114.46 17.0259 1114.58 17.0605C1114.83 17.1299 1115.2 17.2305 1115.67 17.3555C1116.61 17.6055 1117.97 17.9528 1119.64 18.3414L1119.5 18.9266C1117.82 18.5363 1116.46 18.1875 1115.51 17.9361C1115.04 17.8104 1114.67 17.7091 1114.42 17.6391C1114.3 17.6041 1114.2 17.5769 1114.14 17.5585C1114.11 17.5493 1114.08 17.5422 1114.06 17.5375C1114.06 17.5351 1114.05 17.5333 1114.05 17.532C1114.04 17.5314 1114.04 17.531 1114.04 17.5306C1114.04 17.5305 1114.04 17.5304 1114.04 17.5303C1114.04 17.5302 1114.04 17.5302 1114.04 17.5302C1114.04 17.5302 1114.04 17.5302 1114.04 17.5302C1114.04 17.5301 1114.04 17.5301 1114.12 17.2418ZM1123.09 32.0883L1113.87 17.4015L1114.38 17.0821L1123.6 31.7689L1123.09 32.0883ZM1123.04 47.3111V31.9286H1123.64V47.3111H1123.04ZM1114.7 61.8597L1123.08 47.1623L1123.6 47.4599L1115.22 62.1573L1114.7 61.8597ZM1214.82 10.6686L1215.39 10.0765L1215.82 10.4943L1215.25 11.0864L1214.82 10.6686ZM1215.39 10.0765L1216.69 8.74132L1217.12 9.15918L1215.82 10.4943L1215.39 10.0765ZM1216.92 8.65039L1218.17 8.725L1218.14 9.32473L1216.88 9.25011L1216.92 8.65039ZM1218.17 8.725L1219.06 8.7777L1219.02 9.37742L1218.14 9.32473L1218.17 8.725ZM1219.14 9.3602C1217.77 9.85262 1216.45 10.4492 1215.18 11.1413L1214.89 10.6137C1216.19 9.90718 1217.54 9.29791 1218.94 8.79492L1219.14 9.3602ZM1198.77 38.5C1198.77 26.3099 1205.34 15.8204 1214.89 10.6137L1215.18 11.1413C1205.82 16.2419 1199.37 26.5282 1199.37 38.5H1198.77ZM1205.77 58.7201C1201.41 53.272 1198.77 46.2278 1198.77 38.5H1199.37C1199.37 46.0892 1201.96 53.0012 1206.24 58.3443L1205.77 58.7201ZM1206.05 58.2351C1206.39 58.2866 1206.72 58.3403 1207.02 58.3957L1206.91 58.9867C1206.62 58.9325 1206.3 58.8798 1205.96 58.8292L1206.05 58.2351ZM1201.21 39.8179C1201.21 46.8746 1203.45 53.3458 1207.21 58.5145L1206.72 58.8678C1202.89 53.5979 1200.61 47.0033 1200.61 39.8179H1201.21ZM1201.22 38.8829C1201.21 39.1933 1201.21 39.505 1201.21 39.8179H1200.61C1200.61 39.4994 1200.61 39.182 1200.62 38.8659L1201.22 38.8829ZM1200.57 36.8733L1201.21 38.7788L1200.64 38.97L1200 37.0645L1200.57 36.8733ZM1201.83 33.4277L1200.57 37.0677L1200 36.87L1201.27 33.23L1201.83 33.4277ZM1201.26 33.2696C1201.85 30.3175 1202.84 27.5227 1204.16 24.9467L1204.69 25.2205C1203.4 27.7479 1202.43 30.4904 1201.85 33.3881L1201.26 33.2696ZM1206.47 20.113L1204.71 25.1825L1204.14 24.9848L1205.91 19.9153L1206.47 20.113ZM1215.25 11.0864L1206.41 20.2231L1205.98 19.8052L1214.82 10.6686L1215.25 11.0864ZM1079.77 35.8651C1079.77 35.6531 1079.76 35.5046 1079.74 35.4044C1079.72 35.2984 1079.69 35.2744 1079.7 35.2816C1079.72 35.3064 1079.77 35.3281 1079.81 35.3228C1079.83 35.3203 1079.83 35.3147 1079.78 35.3457C1079.7 35.4056 1079.61 35.5186 1079.52 35.6361C1079.48 35.6915 1079.45 35.742 1079.42 35.7787C1079.41 35.7969 1079.4 35.8115 1079.4 35.8212C1079.39 35.8261 1079.39 35.8297 1079.39 35.832C1079.39 35.8331 1079.39 35.8339 1079.39 35.8343C1079.39 35.8345 1079.39 35.8346 1079.39 35.8346C1079.39 35.8347 1079.39 35.8346 1079.39 35.8346C1079.39 35.8346 1079.39 35.8346 1079.39 35.8345C1079.39 35.8345 1079.39 35.8344 1079.13 35.6809C1078.87 35.5274 1078.87 35.5273 1078.87 35.5272C1078.87 35.5272 1078.87 35.5271 1078.87 35.5271C1078.87 35.5269 1078.87 35.5268 1078.87 35.5266C1078.87 35.5262 1078.87 35.5258 1078.87 35.5252C1078.88 35.5241 1078.88 35.5226 1078.88 35.5208C1078.88 35.5171 1078.88 35.512 1078.89 35.5056C1078.89 35.4928 1078.91 35.4748 1078.92 35.4528C1078.95 35.4091 1078.99 35.3488 1079.04 35.2823C1079.13 35.156 1079.27 34.9812 1079.42 34.8647C1079.5 34.8076 1079.61 34.7417 1079.74 34.7262C1079.9 34.7079 1080.05 34.764 1080.15 34.8899C1080.25 34.9983 1080.3 35.1421 1080.33 35.2903C1080.36 35.4442 1080.37 35.6361 1080.37 35.8701L1079.77 35.8651ZM1080.04 38.4426C1079.74 38.4373 1079.74 38.4373 1079.74 38.4373C1079.74 38.4373 1079.74 38.4373 1079.74 38.4373C1079.74 38.4373 1079.74 38.4372 1079.74 38.4372C1079.74 38.4371 1079.74 38.437 1079.74 38.4368C1079.74 38.4364 1079.74 38.4358 1079.74 38.4351C1079.74 38.4336 1079.74 38.4313 1079.74 38.4282C1079.74 38.422 1079.74 38.4127 1079.74 38.4002C1079.74 38.3752 1079.74 38.3375 1079.74 38.2866C1079.74 38.1848 1079.74 38.0305 1079.75 37.8203C1079.75 37.4001 1079.76 36.7567 1079.77 35.8651L1080.37 35.8701C1080.36 36.7626 1080.35 37.4068 1080.35 37.828C1080.34 38.0386 1080.34 38.1935 1080.34 38.2958C1080.34 38.3469 1080.34 38.3849 1080.34 38.4101C1080.34 38.4228 1080.34 38.4322 1080.34 38.4385C1080.34 38.4416 1080.34 38.444 1080.34 38.4456C1080.34 38.4464 1080.34 38.447 1080.34 38.4474C1080.34 38.4476 1080.34 38.4477 1080.34 38.4478C1080.34 38.4479 1080.34 38.4479 1080.34 38.448C1080.34 38.448 1080.34 38.448 1080.34 38.448C1080.34 38.448 1080.34 38.448 1080.04 38.4426ZM1079.74 40.6413L1079.74 38.4431L1080.34 38.4422L1080.34 40.6404L1079.74 40.6413ZM1079.74 41.6569L1079.74 40.6418L1080.34 40.6399L1080.34 41.6549L1079.74 41.6569ZM1079.77 42.7673L1079.74 41.663L1080.34 41.6488L1080.37 42.7531L1079.77 42.7673ZM1079.26 42.4732L1080.07 42.4599L1080.08 43.0606L1079.27 43.0739L1079.26 42.4732ZM1087.57 55.2827C1083.31 52.6216 1080.11 48.1808 1078.97 42.8361L1079.56 42.711C1080.67 47.8975 1083.77 52.199 1087.89 54.7731L1087.57 55.2827ZM1087.54 55.2609C1083.21 51.7351 1080.36 46.1911 1080.36 39.8183H1080.96C1080.96 46.009 1083.73 51.3823 1087.92 54.7948L1087.54 55.2609ZM1080.36 39.8183C1080.36 28.8609 1088.78 20.3444 1098.71 20.3444V20.9451C1089.13 20.9451 1080.96 29.1671 1080.96 39.8183H1080.36ZM1098.71 20.3444C1102.07 20.3444 1105.26 21.3204 1108.01 23.0361L1107.69 23.5457C1105.04 21.8866 1101.96 20.9451 1098.71 20.9451V20.3444ZM1096.87 19.0266C1101.03 19.0266 1104.92 20.5194 1108.04 23.0578L1107.66 23.5239C1104.64 21.0672 1100.88 19.6273 1096.87 19.6273V19.0266ZM1078.52 38.5005C1078.52 27.5431 1086.93 19.0266 1096.87 19.0266V19.6273C1087.29 19.6273 1079.12 27.8493 1079.12 38.5005H1078.52ZM1078.84 42.1228C1078.63 40.9525 1078.52 39.7421 1078.52 38.5005H1079.12C1079.12 39.7072 1079.23 40.8828 1079.43 42.0186L1078.84 42.1228ZM1079.43 35.6809V42.0707H1078.83V35.6809H1079.43ZM1108.01 23.0361C1113.38 26.3891 1117.06 32.5672 1117.06 39.8183H1116.46C1116.46 32.7744 1112.89 26.7889 1107.69 23.5457L1108.01 23.0361ZM1117.06 39.8183C1117.06 50.7756 1108.65 59.2922 1098.71 59.2922V58.6914C1108.29 58.6914 1116.46 50.4694 1116.46 39.8183H1117.06ZM1098.71 59.2922C1094.55 59.2922 1090.66 57.7993 1087.54 55.2609L1087.92 54.7948C1090.94 57.2515 1094.7 58.6914 1098.71 58.6914V59.2922ZM1096.87 57.9744C1093.51 57.9744 1090.32 56.9984 1087.57 55.2827L1087.89 54.7731C1090.55 56.4321 1093.63 57.3736 1096.87 57.3736V57.9744ZM1115.22 38.5005C1115.22 49.4578 1106.81 57.9744 1096.87 57.9744V57.3736C1106.45 57.3736 1114.62 49.1516 1114.62 38.5005H1115.22ZM1108.04 23.0578C1112.37 26.5836 1115.22 32.1276 1115.22 38.5005H1114.62C1114.62 32.3098 1111.86 26.9364 1107.66 23.5239L1108.04 23.0578ZM1078.83 42.7758V42.0707H1079.43V42.7758H1078.83ZM1079.27 43.0739L1079.14 43.0761L1079.13 42.4754L1079.26 42.4732L1079.27 43.0739ZM1079.43 42.0186C1079.47 42.2511 1079.51 42.4819 1079.56 42.711L1078.97 42.8361C1078.92 42.6001 1078.88 42.3622 1078.84 42.1227L1079.43 42.0186ZM1219.28 55.2826C1213.91 51.9296 1210.23 45.7515 1210.23 38.5005H1210.83C1210.83 45.5442 1214.4 51.5297 1219.6 54.773L1219.28 55.2826ZM1212.67 39.8183C1212.67 46.0089 1215.43 51.3822 1219.63 54.7948L1219.25 55.2608C1214.91 51.7351 1212.07 46.1911 1212.07 39.8183H1212.67ZM1230.42 20.9451C1220.84 20.9451 1212.67 29.1671 1212.67 39.8183H1212.07C1212.07 28.8609 1220.48 20.3444 1230.42 20.3444V20.9451ZM1239.4 23.5457C1236.74 21.8866 1233.66 20.9451 1230.42 20.9451V20.3444C1233.78 20.3444 1236.97 21.3204 1239.72 23.0361L1239.4 23.5457ZM1228.58 19.0266C1232.73 19.0266 1236.63 20.5195 1239.75 23.0579L1239.37 23.5239C1236.35 21.0672 1232.59 19.6273 1228.58 19.6273V19.0266ZM1210.23 38.5005C1210.23 27.5431 1218.64 19.0266 1228.58 19.0266V19.6273C1219 19.6273 1210.83 27.8493 1210.83 38.5005H1210.23ZM1239.72 23.0361C1245.09 26.3891 1248.77 32.5672 1248.77 39.8183H1248.17C1248.17 32.7745 1244.59 26.7889 1239.4 23.5457L1239.72 23.0361ZM1246.32 38.5005C1246.32 32.3098 1243.56 26.9365 1239.37 23.5239L1239.75 23.0579C1244.08 26.5836 1246.92 32.1276 1246.92 38.5005H1246.32ZM1228.58 57.3736C1238.16 57.3736 1246.32 49.1516 1246.32 38.5005H1246.92C1246.92 49.4578 1238.51 57.9744 1228.58 57.9744V57.3736ZM1219.6 54.773C1222.25 56.4321 1225.33 57.3736 1228.58 57.3736V57.9744C1225.21 57.9744 1222.03 56.9983 1219.28 55.2826L1219.6 54.773ZM1230.42 59.2922C1226.26 59.2922 1222.37 57.7993 1219.25 55.2608L1219.63 54.7948C1222.65 57.2515 1226.41 58.6914 1230.42 58.6914V59.2922ZM1248.77 39.8183C1248.77 50.7756 1240.35 59.2922 1230.42 59.2922V58.6914C1240 58.6914 1248.17 50.4694 1248.17 39.8183H1248.77ZM1216.58 59.0975C1209.97 54.8542 1205.57 47.2141 1205.57 38.5005H1206.17C1206.17 47.0099 1210.47 54.4594 1216.9 58.592L1216.58 59.0975ZM1216.55 59.0801C1216.08 58.7079 1215.63 58.3172 1215.19 57.9092L1215.6 57.4686C1216.03 57.8662 1216.47 58.2468 1216.93 58.6094L1216.55 59.0801ZM1215.21 57.9252C1209.7 53.6022 1206.02 46.6449 1206.02 38.5H1206.62C1206.62 46.4592 1210.22 53.2428 1215.58 57.4526L1215.21 57.9252ZM1206.02 38.5C1206.02 24.9403 1216.24 14.6643 1228.06 14.3726L1228.07 14.9732C1216.6 15.2564 1206.62 25.244 1206.62 38.5H1206.02ZM1205.57 38.5005C1205.57 25.3659 1215.58 14.6606 1228.06 14.3726L1228.07 14.9733C1215.94 15.2531 1206.17 25.6663 1206.17 38.5005H1205.57ZM1228.58 14.3667C1228.75 14.3667 1228.92 14.3687 1229.09 14.3726L1229.08 14.9733C1228.91 14.9694 1228.74 14.9675 1228.58 14.9675V14.3667ZM1228.06 14.3726C1228.23 14.3687 1228.4 14.3667 1228.58 14.3667V14.9675C1228.41 14.9675 1228.24 14.9694 1228.07 14.9733L1228.06 14.3726ZM1228.06 14.3726C1228.23 14.3684 1228.4 14.3663 1228.58 14.3663V14.9671C1228.41 14.9671 1228.24 14.9691 1228.07 14.9732L1228.06 14.3726ZM1228.58 14.3663C1228.75 14.3663 1228.92 14.3684 1229.09 14.3726L1229.08 14.9733C1228.91 14.9691 1228.74 14.9671 1228.58 14.9671V14.3663ZM1229.09 14.3726C1233.45 14.4801 1237.59 15.9443 1241.08 18.428L1240.73 18.9175C1237.33 16.4992 1233.31 15.0776 1229.08 14.9733L1229.09 14.3726ZM1229.09 14.3726C1234.1 14.4882 1238.71 16.2827 1242.44 19.2386L1242.07 19.7093C1238.44 16.8303 1233.95 15.0857 1229.08 14.9733L1229.09 14.3726ZM1242.42 19.2212C1249.02 23.4644 1253.43 31.1045 1253.43 39.8183H1252.83C1252.83 31.3088 1248.53 23.8593 1242.09 19.7267L1242.42 19.2212ZM1253.43 39.8183C1253.43 53.1331 1243.14 63.952 1230.42 63.952V63.3512C1242.78 63.3512 1252.83 52.829 1252.83 39.8183H1253.43ZM1230.42 63.952C1225.21 63.952 1220.41 62.1373 1216.55 59.0801L1216.93 58.6094C1220.68 61.587 1225.35 63.3512 1230.42 63.3512V63.952ZM1217.95 59.9122C1217.48 59.6567 1217.03 59.3849 1216.58 59.0975L1216.9 58.592C1217.34 58.8718 1217.78 59.1364 1218.24 59.3852L1217.95 59.9122ZM1217.92 59.8935C1217.59 59.6601 1217.27 59.4177 1216.95 59.1665L1217.33 58.696C1217.64 58.9406 1217.95 59.1766 1218.27 59.4039L1217.92 59.8935ZM1216.98 59.1841C1216.37 58.7939 1215.78 58.3737 1215.21 57.9252L1215.58 57.4526C1216.14 57.8895 1216.71 58.2986 1217.3 58.6784L1216.98 59.1841ZM1215.19 57.9092C1210.42 53.486 1207.41 47.0188 1207.41 39.8183H1208.01C1208.01 46.8497 1210.95 53.1578 1215.6 57.4686L1215.19 57.9092ZM1207.41 39.8183C1207.41 26.6836 1217.42 15.9783 1229.9 15.6904L1229.92 16.2911C1217.79 16.5708 1208.01 26.984 1208.01 39.8183H1207.41ZM1229.9 15.6904C1230.07 15.6862 1230.25 15.6841 1230.42 15.6841V16.2849C1230.25 16.2849 1230.08 16.2869 1229.92 16.2911L1229.9 15.6904ZM1230.42 15.6841C1230.59 15.6841 1230.77 15.6863 1230.94 15.6906L1230.93 16.2912C1230.76 16.287 1230.59 16.2849 1230.42 16.2849V15.6841ZM1230.94 15.6906C1234.58 15.7755 1238.01 16.7479 1241.05 18.4093L1240.76 18.9363C1237.81 17.3195 1234.47 16.3738 1230.93 16.2912L1230.94 15.6906ZM1241.08 18.428C1241.41 18.6603 1241.73 18.9016 1242.04 19.1514L1241.67 19.6219C1241.36 19.3786 1241.05 19.1437 1240.73 18.9175L1241.08 18.428ZM1241.05 18.4093C1241.51 18.664 1241.97 18.9348 1242.42 19.2212L1242.09 19.7267C1241.66 19.4479 1241.21 19.1842 1240.76 18.9363L1241.05 18.4093ZM1242.44 19.2386C1242.91 19.6091 1243.36 19.998 1243.8 20.404L1243.39 20.8448C1242.96 20.4491 1242.52 20.0703 1242.07 19.7093L1242.44 19.2386ZM1243.78 20.3881C1249.29 24.7106 1252.98 31.6701 1252.98 39.8179H1252.38C1252.38 31.8558 1248.77 25.0702 1243.41 20.8607L1243.78 20.3881ZM1252.98 39.8179C1252.98 53.5743 1242.46 63.9516 1230.42 63.9516V63.3508C1242.1 63.3508 1252.38 53.2667 1252.38 39.8179H1252.98ZM1230.42 63.9516C1225.88 63.9516 1221.55 62.473 1217.92 59.8935L1218.27 59.4039C1221.8 61.9154 1226.01 63.3508 1230.42 63.3508V63.9516ZM1228.58 62.6342C1224.74 62.6342 1221.13 61.651 1217.95 59.9122L1218.24 59.3852C1221.33 61.0772 1224.85 62.0334 1228.58 62.0334V62.6342ZM1251.58 38.5005C1251.58 51.8153 1241.3 62.6342 1228.58 62.6342V62.0334C1240.94 62.0334 1250.98 51.5112 1250.98 38.5005H1251.58ZM1243.8 20.404C1248.57 24.8274 1251.58 31.2969 1251.58 38.5005H1250.98C1250.98 31.4661 1248.05 25.1557 1243.39 20.8448L1243.8 20.404ZM1242.02 19.1338C1242.62 19.5227 1243.21 19.9413 1243.78 20.3881L1243.41 20.8607C1242.86 20.4256 1242.28 20.018 1241.69 19.6395L1242.02 19.1338ZM1242.04 19.1514C1247.49 23.4797 1251.13 30.4031 1251.13 38.5H1250.53C1250.53 30.5877 1246.98 23.837 1241.67 19.6219L1242.04 19.1514ZM1251.13 38.5C1251.13 52.2565 1240.62 62.6338 1228.58 62.6338V62.033C1240.26 62.033 1250.53 51.9489 1250.53 38.5H1251.13ZM1228.58 62.6338C1224.4 62.6338 1220.41 61.3863 1216.98 59.1841L1217.3 58.6784C1220.64 60.822 1224.52 62.033 1228.58 62.033V62.6338ZM1216.95 59.1665C1211.5 54.8383 1207.86 47.9149 1207.86 39.8179H1208.46C1208.46 47.7303 1212.02 54.4809 1217.33 58.696L1216.95 59.1665ZM1207.86 39.8179C1207.86 26.2581 1218.08 15.982 1229.9 15.6904L1229.92 16.2911C1218.44 16.5741 1208.46 26.5618 1208.46 39.8179H1207.86ZM1229.9 15.6904C1230.07 15.6865 1230.25 15.6845 1230.42 15.6845V16.2853C1230.25 16.2853 1230.08 16.2872 1229.92 16.2911L1229.9 15.6904ZM1230.42 15.6845C1230.59 15.6845 1230.77 15.6865 1230.94 15.6906L1230.93 16.2912C1230.76 16.2873 1230.59 16.2853 1230.42 16.2853V15.6845ZM1230.94 15.6906C1234.92 15.79 1238.73 17.0236 1242.02 19.1338L1241.69 19.6395C1238.49 17.5855 1234.79 16.3877 1230.93 16.2912L1230.94 15.6906ZM1190.22 19.8475L1189.69 18.175L1190.26 17.9931L1190.79 19.6657L1190.22 19.8475ZM1190.43 19.4666L1191.74 19.1119L1191.89 19.6918L1190.58 20.0466L1190.43 19.4666ZM1192.1 19.3109L1193.24 22.8859L1192.66 23.0678L1191.53 19.4928L1192.1 19.3109ZM1193.06 23.2559L1164.68 34.5767L1164.45 34.0187L1192.84 22.6978L1193.06 23.2559ZM1164.6 34.5961L1133.94 38.1711L1133.87 37.5743L1164.53 33.9993L1164.6 34.5961ZM1133.67 37.6859L1135.02 35.9968L1135.49 36.3704L1134.14 38.0595L1133.67 37.6859ZM1132.03 36.2565L1135.22 35.8853L1135.29 36.482L1132.1 36.8533L1132.03 36.2565ZM1135.14 33.1667L1132.3 36.7417L1131.83 36.3681L1134.67 32.7931L1135.14 33.1667ZM1190.05 18.374L1134.98 33.2699L1134.83 32.6899L1189.89 17.7941L1190.05 18.374ZM1135.02 35.9968L1136.51 34.1109L1136.98 34.4845L1135.49 36.3704L1135.02 35.9968ZM1136.67 34.0077L1190.43 19.4666L1190.58 20.0466L1136.83 34.5877L1136.67 34.0077ZM1190.82 21.75L1190.22 19.8475L1190.79 19.6657L1191.39 21.5681L1190.82 21.75ZM1162.61 32.7009L1191 21.38L1191.22 21.9381L1162.83 33.2589L1162.61 32.7009ZM1135.22 35.8853L1162.69 32.6815L1162.76 33.2783L1135.29 36.482L1135.22 35.8853ZM1190.26 34.6759L1190.79 36.3485L1190.22 36.5303L1189.69 34.8578L1190.26 34.6759ZM1134.83 49.3727L1189.89 34.4769L1190.05 35.0568L1134.98 49.9527L1134.83 49.3727ZM1131.83 53.0509L1134.67 49.4759L1135.14 49.8495L1132.3 53.4245L1131.83 53.0509ZM1135.29 53.1648L1132.1 53.5361L1132.03 52.9393L1135.22 52.5681L1135.29 53.1648ZM1136.98 51.1673L1135.49 53.0532L1135.02 52.6797L1136.51 50.7937L1136.98 51.1673ZM1190.58 36.7294L1136.83 51.2705L1136.67 50.6905L1190.43 36.1494L1190.58 36.7294ZM1191.89 36.3746L1190.58 36.7294L1190.43 36.1494L1191.74 35.7947L1191.89 36.3746ZM1192.66 39.7506L1191.53 36.1756L1192.1 35.9937L1193.24 39.5687L1192.66 39.7506ZM1164.45 50.7015L1192.84 39.3806L1193.06 39.9387L1164.68 51.2595L1164.45 50.7015ZM1133.87 54.2571L1164.53 50.6821L1164.6 51.2789L1133.94 54.8539L1133.87 54.2571ZM1135.49 53.0532L1134.14 54.7423L1133.67 54.3687L1135.02 52.6797L1135.49 53.0532ZM1162.76 49.9611L1135.29 53.1648L1135.22 52.5681L1162.69 49.3643L1162.76 49.9611ZM1191.22 38.6209L1162.83 49.9417L1162.61 49.3837L1191 38.0628L1191.22 38.6209ZM1190.79 36.3485L1191.39 38.2509L1190.82 38.4328L1190.22 36.5303L1190.79 36.3485Z" fill="#15F1FF"/>
</g>
<g opacity="0.8">
<g filter="url(#filter2_b)">
<path fill-rule="evenodd" clip-rule="evenodd" d="M1210.78 5.16376C1204.34 2.4771 1194.64 0.239282 1185.05 4.85922C1168.55 12.8114 1149.74 17.5956 1136.96 19.5517C1128.57 20.8362 1118.14 19.488 1110.42 18.0034C1110.72 18.372 1111 18.7474 1111.28 19.1292C1119.08 20.6861 1130.05 22.2132 1138.81 20.8726C1151.59 18.9164 1170.4 14.1323 1186.9 6.18011C1195.13 2.2159 1203.44 3.30089 1209.7 5.3861C1210.06 5.30572 1210.42 5.23157 1210.78 5.16376Z" fill="url(#paint5_linear)" fill-opacity="0.5"/>
<path d="M1185.05 4.85922L1184.57 3.86708L1185.05 4.85922ZM1210.78 5.16376L1211.2 4.14726C1211.65 4.33459 1211.93 4.79471 1211.88 5.27887C1211.82 5.76302 1211.46 6.15633 1210.98 6.24616L1210.78 5.16376ZM1136.96 19.5517L1137.12 20.6403L1136.96 19.5517ZM1110.42 18.0034L1109.56 18.6897C1109.27 18.3291 1109.24 17.8278 1109.48 17.4334C1109.72 17.0389 1110.18 16.8348 1110.63 16.9219L1110.42 18.0034ZM1111.28 19.1292L1111.06 20.2093C1110.79 20.1552 1110.55 20.0015 1110.39 19.7784L1111.28 19.1292ZM1138.81 20.8726L1138.98 21.9612L1138.81 20.8726ZM1186.9 6.18011L1187.38 7.17225L1186.9 6.18011ZM1209.7 5.3861L1209.95 6.46049C1209.75 6.50456 1209.55 6.49437 1209.36 6.43103L1209.7 5.3861ZM1184.57 3.86708C1194.57 -0.950635 1204.63 1.40728 1211.2 4.14726L1210.36 6.18027C1204.04 3.54693 1194.71 1.4292 1185.53 5.85136L1184.57 3.86708ZM1136.79 18.4631C1149.49 16.5194 1168.19 11.7614 1184.57 3.86708L1185.53 5.85136C1168.9 13.8614 1149.98 18.6717 1137.12 20.6403L1136.79 18.4631ZM1110.63 16.9219C1118.33 18.4022 1128.6 19.7175 1136.79 18.4631L1137.12 20.6403C1128.54 21.9549 1117.96 20.5738 1110.21 19.0849L1110.63 16.9219ZM1110.39 19.7784C1110.12 19.4092 1109.84 19.0462 1109.56 18.6897L1111.28 17.317C1111.59 17.6979 1111.88 18.0856 1112.17 18.4801L1110.39 19.7784ZM1138.98 21.9612C1130.02 23.3328 1118.89 21.77 1111.06 20.2093L1111.5 18.0492C1119.28 19.6023 1130.09 21.0936 1138.65 19.784L1138.98 21.9612ZM1187.38 7.17225C1170.76 15.1823 1151.84 19.9926 1138.98 21.9612L1138.65 19.784C1151.34 17.8403 1170.04 13.0823 1186.43 5.18797L1187.38 7.17225ZM1209.36 6.43103C1203.24 4.39637 1195.26 3.37809 1187.38 7.17225L1186.43 5.18797C1195.01 1.05371 1203.64 2.20541 1210.05 4.34117L1209.36 6.43103ZM1210.98 6.24616C1210.64 6.31153 1210.29 6.38301 1209.95 6.46049L1209.46 4.31171C1209.83 4.22844 1210.2 4.15161 1210.58 4.08136L1210.98 6.24616Z" fill="url(#paint6_linear)"/>
</g>
</g>
<path d="M605.144 193V180.24H606.948V193H605.144ZM605.144 177.864V176.06H606.948V177.864H605.144ZM622.776 193V178.722C622.776 177.974 623.033 177.343 623.546 176.83C624.06 176.317 624.69 176.06 625.438 176.06H630.102V177.864H625.438C625.204 177.864 624.998 177.952 624.822 178.128C624.661 178.289 624.58 178.487 624.58 178.722V180.24H630.102V182.044H624.58V193H622.776ZM635.233 193V180.24H637.037V193H635.233ZM635.233 177.864V176.06H637.037V177.864H635.233ZM645.441 198.038V196.212H653.405C653.64 196.212 653.838 196.124 653.999 195.948C654.175 195.787 654.263 195.589 654.263 195.354V193H645.749C645.016 193 644.385 192.743 643.857 192.23C643.344 191.702 643.087 191.071 643.087 190.338V182.902C643.087 182.169 643.344 181.545 643.857 181.032C644.385 180.504 645.016 180.24 645.749 180.24H653.405C654.153 180.24 654.784 180.504 655.297 181.032C655.811 181.545 656.067 182.169 656.067 182.902V195.354C656.067 196.102 655.811 196.733 655.297 197.246C654.784 197.774 654.153 198.038 653.405 198.038H645.441ZM645.749 191.196H653.405C653.64 191.196 653.838 191.115 653.999 190.954C654.175 190.778 654.263 190.573 654.263 190.338V182.902C654.263 182.667 654.175 182.469 653.999 182.308C653.838 182.132 653.64 182.044 653.405 182.044H645.749C645.515 182.044 645.309 182.132 645.133 182.308C644.972 182.469 644.891 182.667 644.891 182.902V190.338C644.891 190.573 644.972 190.778 645.133 190.954C645.309 191.115 645.515 191.196 645.749 191.196ZM661.911 193V176.06H663.715V180.24H672.251C672.97 180.24 673.593 180.504 674.121 181.032C674.649 181.545 674.913 182.169 674.913 182.902V193H673.109V182.902C673.109 182.667 673.021 182.469 672.845 182.308C672.684 182.132 672.486 182.044 672.251 182.044H664.595C664.36 182.044 664.155 182.132 663.979 182.308C663.803 182.469 663.715 182.667 663.715 182.902V193H661.911ZM682.766 193C682.018 193 681.388 192.743 680.874 192.23C680.361 191.702 680.104 191.071 680.104 190.338V176.06H681.908V180.24H687.43V182.044H681.908V190.338C681.908 190.573 681.989 190.778 682.15 190.954C682.326 191.115 682.532 191.196 682.766 191.196H687.43V193H682.766ZM702.162 193V178.722C702.162 177.974 702.419 177.343 702.932 176.83C703.445 176.317 704.076 176.06 704.824 176.06H709.488V177.864H704.824C704.589 177.864 704.384 177.952 704.208 178.128C704.047 178.289 703.966 178.487 703.966 178.722V180.24H709.488V182.044H703.966V193H702.162ZM717.259 193C716.526 193 715.895 192.743 715.367 192.23C714.854 191.702 714.597 191.071 714.597 190.338V182.902C714.597 182.169 714.854 181.545 715.367 181.032C715.895 180.504 716.526 180.24 717.259 180.24H724.915C725.663 180.24 726.294 180.504 726.807 181.032C727.335 181.545 727.599 182.169 727.599 182.902V190.338C727.599 191.071 727.335 191.702 726.807 192.23C726.294 192.743 725.663 193 724.915 193H717.259ZM717.259 191.196H724.915C725.15 191.196 725.348 191.115 725.509 190.954C725.685 190.778 725.773 190.573 725.773 190.338V182.902C725.773 182.667 725.685 182.469 725.509 182.308C725.348 182.132 725.15 182.044 724.915 182.044H717.259C717.024 182.044 716.819 182.132 716.643 182.308C716.482 182.469 716.401 182.667 716.401 182.902V190.338C716.401 190.573 716.482 190.778 716.643 190.954C716.819 191.115 717.024 191.196 717.259 191.196ZM733.156 193V182.902C733.156 182.169 733.413 181.545 733.926 181.032C734.454 180.504 735.085 180.24 735.818 180.24H742.99V182.044H735.818C735.584 182.044 735.378 182.132 735.202 182.308C735.041 182.469 734.96 182.667 734.96 182.902V193H733.156ZM760.132 193C759.384 193 758.754 192.743 758.24 192.23C757.727 191.702 757.47 191.071 757.47 190.338V176.06H759.274V180.24H764.796V182.044H759.274V190.338C759.274 190.573 759.355 190.778 759.516 190.954C759.692 191.115 759.898 191.196 760.132 191.196H764.796V193H760.132ZM770.143 193V176.06H771.947V180.24H780.483C781.202 180.24 781.825 180.504 782.353 181.032C782.881 181.545 783.145 182.169 783.145 182.902V193H781.341V182.902C781.341 182.667 781.253 182.469 781.077 182.308C780.916 182.132 780.718 182.044 780.483 182.044H772.827C772.593 182.044 772.387 182.132 772.211 182.308C772.035 182.469 771.947 182.667 771.947 182.902V193H770.143ZM790.955 193C790.221 193 789.591 192.743 789.063 192.23C788.549 191.702 788.293 191.071 788.293 190.338V182.902C788.293 182.169 788.549 181.545 789.063 181.032C789.591 180.504 790.221 180.24 790.955 180.24H798.611C799.359 180.24 799.989 180.504 800.503 181.032C801.031 181.545 801.295 182.169 801.295 182.902V187.522H790.097V190.338C790.097 190.573 790.177 190.778 790.339 190.954C790.515 191.115 790.72 191.196 790.955 191.196H801.295V193H790.955ZM790.097 185.718H799.469V182.902C799.469 182.667 799.381 182.469 799.205 182.308C799.043 182.132 798.845 182.044 798.611 182.044H790.955C790.72 182.044 790.515 182.132 790.339 182.308C790.177 182.469 790.097 182.667 790.097 182.902V185.718ZM819.265 193C818.532 193 817.901 192.743 817.373 192.23C816.86 191.702 816.603 191.071 816.603 190.338V180.24H818.407V190.338C818.407 190.573 818.488 190.778 818.649 190.954C818.825 191.115 819.031 191.196 819.265 191.196H826.921C827.156 191.196 827.361 191.115 827.537 190.954C827.713 190.778 827.801 190.573 827.801 190.338V180.24H829.605V190.338C829.605 191.071 829.341 191.702 828.813 192.23C828.3 192.743 827.669 193 826.921 193H819.265ZM837.65 193C836.916 193 836.286 192.743 835.758 192.23C835.244 191.702 834.988 191.071 834.988 190.338V190.162H836.792V190.338C836.792 190.573 836.872 190.778 837.034 190.954C837.21 191.115 837.415 191.196 837.65 191.196H845.306C845.54 191.196 845.738 191.115 845.9 190.954C846.076 190.778 846.164 190.573 846.164 190.338V188.38C846.164 188.145 846.076 187.947 845.9 187.786C845.738 187.61 845.54 187.522 845.306 187.522H837.65C836.916 187.522 836.286 187.265 835.758 186.752C835.244 186.224 834.988 185.593 834.988 184.86V182.902C834.988 182.169 835.244 181.545 835.758 181.032C836.286 180.504 836.916 180.24 837.65 180.24H845.306C846.054 180.24 846.684 180.504 847.198 181.032C847.726 181.545 847.99 182.169 847.99 182.902V183.078H846.164V182.902C846.164 182.667 846.076 182.469 845.9 182.308C845.738 182.132 845.54 182.044 845.306 182.044H837.65C837.415 182.044 837.21 182.132 837.034 182.308C836.872 182.469 836.792 182.667 836.792 182.902V184.86C836.792 185.095 836.872 185.3 837.034 185.476C837.21 185.637 837.415 185.718 837.65 185.718H845.306C846.054 185.718 846.684 185.982 847.198 186.51C847.726 187.023 847.99 187.647 847.99 188.38V190.338C847.99 191.071 847.726 191.702 847.198 192.23C846.684 192.743 846.054 193 845.306 193H837.65ZM855.996 193C855.262 193 854.632 192.743 854.104 192.23C853.59 191.702 853.334 191.071 853.334 190.338V182.902C853.334 182.169 853.59 181.545 854.104 181.032C854.632 180.504 855.262 180.24 855.996 180.24H863.652C864.4 180.24 865.03 180.504 865.544 181.032C866.072 181.545 866.336 182.169 866.336 182.902V187.522H855.138V190.338C855.138 190.573 855.218 190.778 855.38 190.954C855.556 191.115 855.761 191.196 855.996 191.196H866.336V193H855.996ZM855.138 185.718H864.51V182.902C864.51 182.667 864.422 182.469 864.246 182.308C864.084 182.132 863.886 182.044 863.652 182.044H855.996C855.761 182.044 855.556 182.132 855.38 182.308C855.218 182.469 855.138 182.667 855.138 182.902V185.718ZM872.001 193V182.902C872.001 182.169 872.257 181.545 872.771 181.032C873.299 180.504 873.929 180.24 874.663 180.24H881.835V182.044H874.663C874.428 182.044 874.223 182.132 874.047 182.308C873.885 182.469 873.805 182.667 873.805 182.902V193H872.001Z" fill="#15F1FF"/>
<defs>
<filter id="filter0_b" x="400.766" y="-8.70338" width="689.707" height="90.0136" filterUnits="userSpaceOnUse" color-interpolation-filters="sRGB">
<feFlood flood-opacity="0" result="BackgroundImageFix"/>
<feGaussianBlur in="BackgroundImage" stdDeviation="5.47915"/>
<feComposite in2="SourceAlpha" operator="in" result="effect1_backgroundBlur"/>
<feBlend mode="normal" in="SourceGraphic" in2="effect1_backgroundBlur" result="shape"/>
</filter>
<filter id="filter1_d" x="1059.95" y="0.127594" width="200.282" height="75.2815" filterUnits="userSpaceOnUse" color-interpolation-filters="sRGB">
<feFlood flood-opacity="0" result="BackgroundImageFix"/>
<feColorMatrix in="SourceAlpha" type="matrix" values="0 0 0 0 0 0 0 0 0 0 0 0 0 0 0 0 0 0 127 0"/>
<feOffset dx="-3.8763" dy="0.969074"/>
<feGaussianBlur stdDeviation="1.61801"/>
<feColorMatrix type="matrix" values="0 0 0 0 0.0823529 0 0 0 0 0.945098 0 0 0 0 1 0 0 0 0.8 0"/>
<feBlend mode="normal" in2="BackgroundImageFix" result="effect1_dropShadow"/>
<feBlend mode="normal" in="SourceGraphic" in2="effect1_dropShadow" result="shape"/>
</filter>
<filter id="filter2_b" x="1098.36" y="-9.86755" width="124.478" height="43.3141" filterUnits="userSpaceOnUse" color-interpolation-filters="sRGB">
<feFlood flood-opacity="0" result="BackgroundImageFix"/>
<feGaussianBlur in="BackgroundImage" stdDeviation="5.47915"/>
<feComposite in2="SourceAlpha" operator="in" result="effect1_backgroundBlur"/>
<feBlend mode="normal" in="SourceGraphic" in2="effect1_backgroundBlur" result="shape"/>
</filter>
<linearGradient id="paint0_linear" x1="-172.492" y1="45.1361" x2="590.717" y2="48.2547" gradientUnits="userSpaceOnUse">
<stop stop-color="#15F1FF" stop-opacity="0"/>
<stop offset="1" stop-color="#15F1FF"/>
</linearGradient>
<linearGradient id="paint1_linear" x1="-82.8974" y1="37.2841" x2="283.896" y2="38.0044" gradientUnits="userSpaceOnUse">
<stop stop-color="#15F1FF" stop-opacity="0"/>
<stop offset="1" stop-color="#15F1FF"/>
</linearGradient>
<linearGradient id="paint2_linear" x1="363.83" y1="41.1604" x2="714.281" y2="41.818" gradientUnits="userSpaceOnUse">
<stop stop-color="#15F1FF" stop-opacity="0"/>
<stop offset="1" stop-color="#15F1FF"/>
</linearGradient>
<linearGradient id="paint3_linear" x1="1064.97" y1="40.4383" x2="431.241" y2="38.1275" gradientUnits="userSpaceOnUse">
<stop offset="0.1875" stop-color="#15F1FF"/>
<stop offset="1" stop-color="#15F1FF" stop-opacity="0"/>
</linearGradient>
<linearGradient id="paint4_linear" x1="1061.66" y1="40.4278" x2="430.797" y2="34.5259" gradientUnits="userSpaceOnUse">
<stop offset="0.510417" stop-color="#15F1FF"/>
<stop offset="1" stop-color="#15F1FF" stop-opacity="0"/>
</linearGradient>
<linearGradient id="paint5_linear" x1="1208.33" y1="12.9692" x2="1089.62" y2="12.9469" gradientUnits="userSpaceOnUse">
<stop offset="0.1875" stop-color="#15F1FF"/>
<stop offset="1" stop-color="#15F1FF" stop-opacity="0"/>
</linearGradient>
<linearGradient id="paint6_linear" x1="1207.74" y1="12.9662" x2="1095.27" y2="12.3208" gradientUnits="userSpaceOnUse">
<stop offset="0.510417" stop-color="#15F1FF"/>
<stop offset="1" stop-color="#15F1FF" stop-opacity="0"/>
</linearGradient>
</defs>
</svg>
