<svg width="1370" height="58" viewBox="0 0 1370 58" fill="none" xmlns="http://www.w3.org/2000/svg">
<path d="M12.4512 32L4.46777 12.2246H4.35059C4.42871 13.4355 4.46777 14.6758 4.46777 15.9453V32H3.03223V10.584H5.34668L12.9346 29.4219H13.0225L20.6104 10.584H22.8662V32H21.3574V15.7695C21.3574 14.6367 21.416 13.4648 21.5332 12.2539H21.416L13.4033 32H12.4512ZM40.8146 32H39.3645V16.0771H40.8146V32ZM39.1594 11.6533C39.1594 10.7158 39.467 10.2471 40.0822 10.2471C40.385 10.2471 40.6193 10.3691 40.7854 10.6133C40.9611 10.8574 41.049 11.2041 41.049 11.6533C41.049 12.0928 40.9611 12.4395 40.7854 12.6934C40.6193 12.9473 40.385 13.0742 40.0822 13.0742C39.467 13.0742 39.1594 12.6006 39.1594 11.6533ZM63.3187 32.293C61.0434 32.293 59.2611 31.5752 57.9721 30.1396C56.683 28.7041 56.0385 26.7021 56.0385 24.1338C56.0385 21.4971 56.7074 19.4463 58.0453 17.9814C59.3832 16.5068 61.2143 15.7695 63.5385 15.7695C64.9154 15.7695 66.2338 16.0088 67.4936 16.4873L67.098 17.7764C65.7211 17.3174 64.5248 17.0879 63.5092 17.0879C61.5561 17.0879 60.0766 17.6934 59.0707 18.9043C58.0648 20.1055 57.5619 21.8389 57.5619 24.1045C57.5619 26.2529 58.0648 27.9375 59.0707 29.1582C60.0766 30.3691 61.4828 30.9746 63.2895 30.9746C64.7348 30.9746 66.0775 30.7158 67.3178 30.1982V31.5459C66.3021 32.0439 64.9691 32.293 63.3187 32.293ZM93.1324 32V21.6729C93.1324 20.0713 92.7955 18.9092 92.1217 18.1865C91.4479 17.4541 90.4029 17.0879 88.9869 17.0879C87.0826 17.0879 85.6861 17.5713 84.7975 18.5381C83.9186 19.4951 83.4791 21.0527 83.4791 23.2109V32H82.0289V9.20703H83.4791V16.458L83.4059 18.4941H83.5084C84.1041 17.5371 84.8561 16.8438 85.7643 16.4141C86.6725 15.9844 87.8004 15.7695 89.148 15.7695C92.7613 15.7695 94.568 17.708 94.568 21.585V32H93.1324ZM120.192 32L119.826 29.4805H119.709C118.908 30.5059 118.083 31.2334 117.233 31.6631C116.393 32.083 115.397 32.293 114.245 32.293C112.682 32.293 111.467 31.8926 110.597 31.0918C109.728 30.291 109.294 29.1826 109.294 27.7666C109.294 26.2139 109.938 25.0078 111.227 24.1484C112.526 23.2891 114.401 22.835 116.852 22.7861L119.885 22.6982V21.6436C119.885 20.1299 119.577 18.9873 118.962 18.2158C118.346 17.4443 117.355 17.0586 115.988 17.0586C114.513 17.0586 112.985 17.4688 111.403 18.2891L110.861 17.0293C112.609 16.209 114.338 15.7988 116.047 15.7988C117.795 15.7988 119.098 16.2529 119.958 17.1611C120.827 18.0693 121.262 19.4854 121.262 21.4092V32H120.192ZM114.333 30.9746C116.032 30.9746 117.37 30.4912 118.346 29.5244C119.333 28.5479 119.826 27.1953 119.826 25.4668V23.8994L117.043 24.0166C114.806 24.124 113.21 24.4756 112.253 25.0713C111.305 25.6572 110.832 26.5752 110.832 27.8252C110.832 28.8213 111.135 29.5977 111.74 30.1543C112.355 30.7012 113.22 30.9746 114.333 30.9746ZM143.663 32.293C141.349 32.293 139.542 31.5801 138.243 30.1543C136.954 28.7285 136.31 26.7314 136.31 24.1631C136.31 21.624 136.935 19.5928 138.185 18.0693C139.435 16.5361 141.119 15.7695 143.238 15.7695C145.113 15.7695 146.593 16.4238 147.677 17.7324C148.761 19.041 149.303 20.8184 149.303 23.0645V24.2363H137.833C137.853 26.4238 138.36 28.0938 139.356 29.2461C140.362 30.3984 141.798 30.9746 143.663 30.9746C144.571 30.9746 145.367 30.9111 146.051 30.7842C146.744 30.6572 147.618 30.3838 148.673 29.9639V31.2822C147.774 31.6729 146.944 31.9365 146.183 32.0732C145.421 32.2197 144.581 32.293 143.663 32.293ZM143.238 17.0586C141.705 17.0586 140.475 17.5664 139.547 18.582C138.619 19.5879 138.077 21.043 137.921 22.9473H147.765C147.765 21.1016 147.364 19.6611 146.563 18.626C145.763 17.5811 144.654 17.0586 143.238 17.0586ZM165.947 32H164.497V9.20703H165.947V32ZM201.053 32V10.584H202.547V30.5938H212.757V32H201.053ZM240.066 24.0166C240.066 26.6143 239.436 28.6455 238.177 30.1104C236.917 31.5654 235.179 32.293 232.962 32.293C231.565 32.293 230.335 31.9561 229.27 31.2822C228.206 30.6084 227.39 29.6416 226.824 28.3818C226.258 27.1221 225.974 25.667 225.974 24.0166C225.974 21.4189 226.604 19.3975 227.864 17.9521C229.124 16.4971 230.852 15.7695 233.05 15.7695C235.237 15.7695 236.951 16.5068 238.191 17.9814C239.441 19.4463 240.066 21.458 240.066 24.0166ZM227.498 24.0166C227.498 26.2041 227.976 27.9131 228.933 29.1436C229.9 30.3643 231.262 30.9746 233.02 30.9746C234.778 30.9746 236.136 30.3643 237.093 29.1436C238.059 27.9131 238.543 26.2041 238.543 24.0166C238.543 21.8193 238.054 20.1152 237.078 18.9043C236.111 17.6934 234.749 17.0879 232.991 17.0879C231.233 17.0879 229.876 17.6934 228.919 18.9043C227.971 20.1055 227.498 21.8096 227.498 24.0166ZM268.005 32L264.519 21.3506C264.294 20.6279 264.006 19.5684 263.654 18.1719H263.566L263.259 19.2559L262.6 21.3799L259.055 32H257.619L253.063 16.0771H254.616L257.165 25.3057C257.761 27.5908 258.151 29.2705 258.337 30.3447H258.425C259.001 28.0596 259.421 26.541 259.685 25.7891L262.966 16.0771H264.284L267.404 25.7598C268.107 28.0547 268.537 29.5732 268.693 30.3154H268.781C268.859 29.6807 269.25 27.9814 269.953 25.2178L272.385 16.0771H273.85L269.528 32H268.005ZM294.215 32.293C291.901 32.293 290.094 31.5801 288.795 30.1543C287.506 28.7285 286.862 26.7314 286.862 24.1631C286.862 21.624 287.487 19.5928 288.737 18.0693C289.987 16.5361 291.671 15.7695 293.79 15.7695C295.665 15.7695 297.145 16.4238 298.229 17.7324C299.313 19.041 299.855 20.8184 299.855 23.0645V24.2363H288.385C288.404 26.4238 288.912 28.0938 289.908 29.2461C290.914 30.3984 292.35 30.9746 294.215 30.9746C295.123 30.9746 295.919 30.9111 296.603 30.7842C297.296 30.6572 298.17 30.3838 299.225 29.9639V31.2822C298.326 31.6729 297.496 31.9365 296.735 32.0732C295.973 32.2197 295.133 32.293 294.215 32.293ZM293.79 17.0586C292.257 17.0586 291.027 17.5664 290.099 18.582C289.171 19.5879 288.629 21.043 288.473 22.9473H298.317C298.317 21.1016 297.916 19.6611 297.115 18.626C296.315 17.5811 295.206 17.0586 293.79 17.0586ZM316.499 32H315.049V9.20703H316.499V32ZM334.096 32H332.646V9.20703H334.096V32Z" fill="#15F1FF"/>
<line x1="332.996" y1="31.5" x2="1390" y2="31.5" stroke="#15F1FF"/>
<path d="M1043.99 52.352L1043.88 52.5174L1043.44 52.2216L1043.97 52.154L1057.59 50.3974L1059.61 44.1868L1056.09 35.4577L1056.45 35.3001C1056.46 35.297 1056.46 35.297 1056.46 35.2969L1056.46 35.2966L1056.46 35.2961L1056.46 35.3032C1056.47 35.3109 1056.47 35.3242 1056.49 35.3421C1056.51 35.3779 1056.55 35.4328 1056.61 35.5006C1056.73 35.6359 1056.95 35.8242 1057.29 36.0154C1057.97 36.398 1059.18 36.7965 1061.27 36.7965C1063.37 36.7965 1070.56 36.3938 1077.24 35.9903C1080.57 35.7887 1083.78 35.5871 1086.15 35.4359C1087.33 35.3603 1088.31 35.2973 1088.99 35.2532L1089.78 35.202L1089.98 35.1885L1090.03 35.1851L1090.05 35.1842L1090.05 35.184L1090.05 35.1839C1090.05 35.1839 1090.05 35.1839 1090.07 35.3831L1090.05 35.1839L1090.38 35.1621L1090.25 35.4655L1087.82 40.8163V46.5156L1092.47 53.0348L1092.9 53.6454L1092.22 53.332L1092.3 53.1506C1092.22 53.332 1092.22 53.332 1092.22 53.3319L1092.22 53.3318L1092.22 53.331L1092.21 53.328L1092.18 53.3158C1092.16 53.305 1092.12 53.289 1092.08 53.2681C1091.99 53.2264 1091.85 53.1654 1091.67 53.0883C1091.32 52.9341 1090.81 52.7156 1090.18 52.4589C1088.92 51.9455 1087.19 51.2799 1085.3 50.6705C1083.41 50.0609 1081.37 49.509 1079.47 49.2212C1077.57 48.9324 1075.85 48.9137 1074.6 49.3466C1070.64 50.7162 1067.11 52.5628 1062.69 54.8748C1061.81 55.3386 1060.88 55.8212 1059.92 56.3223C1058.42 57.096 1056.66 57.2319 1054.88 57.0139C1053.1 56.7958 1051.29 56.2214 1049.66 55.5563C1048.03 54.8908 1046.59 54.1316 1045.55 53.5392C1045.03 53.2428 1044.62 52.9879 1044.33 52.8069C1044.18 52.7163 1044.07 52.6443 1044 52.5947C1043.96 52.5699 1043.93 52.5507 1043.91 52.5377L1043.89 52.5228L1043.88 52.5189L1043.88 52.5179L1043.88 52.5176C1043.88 52.5175 1043.88 52.5174 1043.99 52.352ZM1056.46 35.2954C1056.46 35.2952 1056.46 35.2954 1056.46 35.2959L1056.46 35.2954Z" fill="#2E2E2E" stroke="#56ACB8" stroke-width="0.399269"/>
<mask id="path-4-inside-1" fill="white">
<path fill-rule="evenodd" clip-rule="evenodd" d="M1098 52H1286.82L1361.21 50.7883L1361.3 51.9949C1366.13 51.8341 1370 47.8685 1370 43C1370 38.1622 1366.18 34.2159 1361.4 34.0086L1361.27 35.6894L1257.55 34H1098L1103.06 37.4574L1106.37 43.3475L1103.06 49.2375L1098 52Z"/>
</mask>
<path fill-rule="evenodd" clip-rule="evenodd" d="M1098 52H1286.82L1361.21 50.7883L1361.3 51.9949C1366.13 51.8341 1370 47.8685 1370 43C1370 38.1622 1366.18 34.2159 1361.4 34.0086L1361.27 35.6894L1257.55 34H1098L1103.06 37.4574L1106.37 43.3475L1103.06 49.2375L1098 52Z" fill="url(#paint0_linear)" fill-opacity="0.5"/>
<path d="M1286.82 52L1286.84 52.7985H1286.82V52ZM1098 52V52.7985L1097.62 51.2993L1098 52ZM1361.21 50.7883L1361.2 49.9899L1361.95 49.9776L1362.01 50.7287L1361.21 50.7883ZM1361.3 51.9949L1361.33 52.793L1360.57 52.8185L1360.51 52.0545L1361.3 51.9949ZM1361.4 34.0086L1360.6 33.9489L1360.66 33.1773L1361.43 33.2108L1361.4 34.0086ZM1361.27 35.6894L1362.07 35.749L1362.01 36.5001L1361.26 36.4878L1361.27 35.6894ZM1257.55 34V33.2014L1257.56 33.2016L1257.55 34ZM1098 34L1097.55 34.6591L1095.42 33.2015H1098V34ZM1103.06 37.4574L1103.51 36.7983L1103.66 36.9035L1103.75 37.0661L1103.06 37.4574ZM1106.37 43.3475L1107.06 42.9562L1107.28 43.3475L1107.06 43.7387L1106.37 43.3475ZM1103.06 49.2375L1103.75 49.6288L1103.64 49.8284L1103.44 49.9382L1103.06 49.2375ZM1286.82 52.7985H1098V51.2015H1286.82V52.7985ZM1361.23 51.5868L1286.84 52.7984L1286.81 51.2016L1361.2 49.9899L1361.23 51.5868ZM1360.51 52.0545L1360.42 50.8479L1362.01 50.7287L1362.1 51.9353L1360.51 52.0545ZM1370.8 43C1370.8 48.3006 1366.59 52.6179 1361.33 52.793L1361.28 51.1968C1365.68 51.0503 1369.2 47.4364 1369.2 43H1370.8ZM1361.43 33.2108C1366.64 33.4366 1370.8 37.7328 1370.8 43H1369.2C1369.2 38.5917 1365.72 34.9953 1361.36 34.8064L1361.43 33.2108ZM1360.47 35.6298L1360.6 33.9489L1362.19 34.0682L1362.07 35.749L1360.47 35.6298ZM1257.56 33.2016L1361.28 34.891L1361.26 36.4878L1257.53 34.7984L1257.56 33.2016ZM1098 33.2015H1257.55V34.7985H1098V33.2015ZM1102.6 38.1165L1097.55 34.6591L1098.45 33.3409L1103.51 36.7983L1102.6 38.1165ZM1105.67 43.7387L1102.36 37.8487L1103.75 37.0661L1107.06 42.9562L1105.67 43.7387ZM1102.36 48.8462L1105.67 42.9562L1107.06 43.7387L1103.75 49.6288L1102.36 48.8462ZM1097.62 51.2993L1102.67 48.5368L1103.44 49.9382L1098.38 52.7007L1097.62 51.2993Z" fill="url(#paint1_linear)" mask="url(#path-4-inside-1)"/>
<g filter="url(#filter0_d)">
<circle r="7.38648" transform="matrix(1 0 0 -1 1050.18 43.5681)" stroke="#15F1FF" stroke-width="1.19781"/>
</g>
<g filter="url(#filter1_d)">
<circle r="7.38648" transform="matrix(1 0 0 -1 1096.49 43.5681)" stroke="#15F1FF" stroke-width="1.19781"/>
</g>
<circle r="9.58246" transform="matrix(1 0 0 -1 1050.18 43.568)" stroke="#2E2E2E" stroke-width="3.19415"/>
<g filter="url(#filter2_d)">
<circle r="9.58246" transform="matrix(1 0 0 -1 1096.49 43.568)" stroke="#2E2E2E" stroke-width="3.19415"/>
</g>
<circle r="10.9799" transform="matrix(1 0 0 -1 1050.18 43.568)" stroke="#56ACB8" stroke-width="0.399269"/>
<circle r="10.9799" transform="matrix(1 0 0 -1 1096.49 43.568)" stroke="#56ACB8" stroke-width="0.399269"/>
<path d="M1063.36 47.5612L1063.75 48.759L1083.12 43.7682L1084.12 42.5704L1073.34 43.7682L1063.36 47.5612Z" fill="#15F1FF" stroke="#15F1FF" stroke-width="0.201295" stroke-linejoin="round"/>
<path d="M1063.36 41.9716L1063.75 43.1694L1083.12 38.1786L1084.12 36.9808L1073.34 38.1786L1063.36 41.9716Z" fill="#15F1FF" stroke="#15F1FF" stroke-width="0.201295" stroke-linejoin="round"/>
<defs>
<filter id="filter0_d" x="1040.6" y="32.3886" width="22.3591" height="22.3591" filterUnits="userSpaceOnUse" color-interpolation-filters="sRGB">
<feFlood flood-opacity="0" result="BackgroundImageFix"/>
<feColorMatrix in="SourceAlpha" type="matrix" values="0 0 0 0 0 0 0 0 0 0 0 0 0 0 0 0 0 0 127 0"/>
<feOffset dx="1.59708"/>
<feGaussianBlur stdDeviation="1.59708"/>
<feColorMatrix type="matrix" values="0 0 0 0 0.0823529 0 0 0 0 0.945098 0 0 0 0 1 0 0 0 0.6 0"/>
<feBlend mode="normal" in2="BackgroundImageFix" result="effect1_dropShadow"/>
<feBlend mode="normal" in="SourceGraphic" in2="effect1_dropShadow" result="shape"/>
</filter>
<filter id="filter1_d" x="1083.72" y="32.3886" width="22.3591" height="22.3591" filterUnits="userSpaceOnUse" color-interpolation-filters="sRGB">
<feFlood flood-opacity="0" result="BackgroundImageFix"/>
<feColorMatrix in="SourceAlpha" type="matrix" values="0 0 0 0 0 0 0 0 0 0 0 0 0 0 0 0 0 0 127 0"/>
<feOffset dx="-1.59708"/>
<feGaussianBlur stdDeviation="1.59708"/>
<feColorMatrix type="matrix" values="0 0 0 0 0.0823529 0 0 0 0 0.945098 0 0 0 0 1 0 0 0 0.6 0"/>
<feBlend mode="normal" in2="BackgroundImageFix" result="effect1_dropShadow"/>
<feBlend mode="normal" in="SourceGraphic" in2="effect1_dropShadow" result="shape"/>
</filter>
<filter id="filter2_d" x="1083.72" y="29.1943" width="28.7474" height="28.7474" filterUnits="userSpaceOnUse" color-interpolation-filters="sRGB">
<feFlood flood-opacity="0" result="BackgroundImageFix"/>
<feColorMatrix in="SourceAlpha" type="matrix" values="0 0 0 0 0 0 0 0 0 0 0 0 0 0 0 0 0 0 127 0"/>
<feOffset dx="1.59708"/>
<feGaussianBlur stdDeviation="1.59708"/>
<feColorMatrix type="matrix" values="0 0 0 0 0.0823529 0 0 0 0 0.945098 0 0 0 0 1 0 0 0 0.25 0"/>
<feBlend mode="normal" in2="BackgroundImageFix" result="effect1_dropShadow"/>
<feBlend mode="normal" in="SourceGraphic" in2="effect1_dropShadow" result="shape"/>
</filter>
<linearGradient id="paint0_linear" x1="1217.47" y1="34.3859" x2="1356.82" y2="34.3859" gradientUnits="userSpaceOnUse">
<stop stop-color="#15F1FF"/>
<stop offset="1" stop-color="#15F1FF" stop-opacity="0"/>
</linearGradient>
<linearGradient id="paint1_linear" x1="1223.06" y1="52.7523" x2="1362.21" y2="52.7523" gradientUnits="userSpaceOnUse">
<stop stop-color="#15F1FF"/>
<stop offset="1" stop-color="#15F1FF" stop-opacity="0"/>
</linearGradient>
</defs>
</svg>
