<svg width="335" height="51" viewBox="0 0 335 51" fill="none" xmlns="http://www.w3.org/2000/svg">
<g opacity="0.5">
<path d="M4.83588 45.071L4.72757 45.2313L4.30343 44.9446L4.81114 44.8792L18.0108 43.1771L19.9712 37.1594L16.5616 28.7016L16.9095 28.5489C16.9155 28.5459 16.9155 28.5459 16.9155 28.5458L16.9153 28.5455L16.9151 28.545L16.9189 28.5519C16.9231 28.5594 16.9306 28.5722 16.9422 28.5896C16.9652 28.6243 17.0041 28.6775 17.0641 28.7431C17.1837 28.8743 17.3882 29.0567 17.7191 29.242C18.3807 29.6127 19.5552 29.9988 21.5772 29.9988C23.6159 29.9988 30.5832 29.6087 37.0509 29.2177C40.2826 29.0224 43.3864 28.827 45.6823 28.6805C46.8303 28.6072 47.7762 28.5462 48.4352 28.5035L49.1978 28.4539L49.3977 28.4408L49.4488 28.4374L49.4618 28.4366L49.465 28.4364L49.4658 28.4363C49.466 28.4363 49.4661 28.4363 49.4788 28.6293L49.4661 28.4363L49.7882 28.4152L49.6549 28.7092L47.305 33.8937V39.4159L51.8038 45.7326L52.2252 46.3242L51.5654 46.0205L51.6463 45.8448C51.5654 46.0205 51.5654 46.0205 51.5653 46.0204L51.5649 46.0203L51.5634 46.0195L51.5569 46.0166L51.5311 46.0048C51.5081 45.9944 51.4739 45.9788 51.4289 45.9586C51.339 45.9182 51.2062 45.8591 51.0353 45.7844C50.6936 45.6349 50.1993 45.4232 49.5905 45.1746C48.3724 44.6771 46.6968 44.0322 44.8652 43.4417C43.0327 42.851 41.0489 42.3163 39.2134 42.0374C37.3721 41.7576 35.7059 41.7395 34.4942 42.1589C30.6604 43.486 27.2399 45.2752 22.9575 47.5153C22.0984 47.9648 21.2046 48.4323 20.2658 48.9179C18.8165 49.6676 17.1131 49.7993 15.3898 49.588C13.6655 49.3766 11.9057 48.8202 10.3296 48.1757C8.75253 47.5309 7.353 46.7953 6.34812 46.2212C5.84548 45.9341 5.44108 45.6871 5.16203 45.5117C5.0225 45.424 4.91427 45.3541 4.84074 45.3061C4.80397 45.2821 4.77587 45.2635 4.75687 45.2509L4.73524 45.2364L4.72964 45.2327L4.72816 45.2317L4.72775 45.2314C4.72764 45.2313 4.72757 45.2313 4.83588 45.071ZM16.9148 28.5444C16.9147 28.5442 16.9147 28.5443 16.915 28.5448L16.9148 28.5444Z" fill="#2E2E2E" stroke="#56ACB8" stroke-width="0.386863"/>
<mask id="path-2-inside-1" fill="white">
<path fill-rule="evenodd" clip-rule="evenodd" d="M57.1669 44.7295H263.944L345.38 43.5558L345.479 44.7295H346.28C351.096 44.7295 355 40.8253 355 36.0091C355 31.193 351.096 27.2888 346.28 27.2888H345.58L345.442 28.9255L231.881 27.2888H57.1669L62.7024 30.6388L64.5 36.4429L62.7024 42.0528L57.1669 44.7295Z"/>
</mask>
<path fill-rule="evenodd" clip-rule="evenodd" d="M57.1669 44.7295H263.944L345.38 43.5558L345.479 44.7295H346.28C351.096 44.7295 355 40.8253 355 36.0091C355 31.193 351.096 27.2888 346.28 27.2888H345.58L345.442 28.9255L231.881 27.2888H57.1669L62.7024 30.6388L64.5 36.4429L62.7024 42.0528L57.1669 44.7295Z" fill="url(#paint0_linear)" fill-opacity="0.5"/>
<path d="M263.944 44.7295L263.955 45.5032H263.944V44.7295ZM57.1669 44.7295V45.5032L56.8301 44.0329L57.1669 44.7295ZM345.38 43.5558L345.369 42.7821L346.09 42.7717L346.151 43.4906L345.38 43.5558ZM345.479 44.7295V45.5032H344.768L344.708 44.7947L345.479 44.7295ZM345.58 27.2888L344.809 27.2236L344.869 26.5151H345.58V27.2888ZM345.442 28.9255L346.212 28.9908L346.152 29.7096L345.43 29.6992L345.442 28.9255ZM231.881 27.2888V26.515L231.892 26.5152L231.881 27.2888ZM57.1669 27.2888L56.7663 27.9507L54.394 26.5151H57.1669V27.2888ZM62.7024 30.6388L63.103 29.9768L63.3545 30.129L63.4415 30.4099L62.7024 30.6388ZM64.5 36.4429L65.2391 36.214L65.3112 36.4468L65.2368 36.679L64.5 36.4429ZM62.7024 42.0528L63.4392 42.2889L63.338 42.6049L63.0392 42.7494L62.7024 42.0528ZM263.944 45.5032H57.1669V43.9558H263.944V45.5032ZM345.391 44.3294L263.955 45.5031L263.933 43.9558L345.369 42.7821L345.391 44.3294ZM344.708 44.7947L344.609 43.621L346.151 43.4906L346.25 44.6643L344.708 44.7947ZM346.28 45.5032H345.479V43.9558H346.28V45.5032ZM355.774 36.0091C355.774 41.2526 351.523 45.5032 346.28 45.5032V43.9558C350.668 43.9558 354.226 40.3979 354.226 36.0091H355.774ZM346.28 26.5151C351.523 26.5151 355.774 30.7657 355.774 36.0091H354.226C354.226 31.6203 350.668 28.0625 346.28 28.0625V26.5151ZM345.58 26.5151H346.28V28.0625H345.58V26.5151ZM344.671 28.8603L344.809 27.2236L346.351 27.354L346.212 28.9908L344.671 28.8603ZM231.892 26.5152L345.453 28.1519L345.43 29.6992L231.869 28.0624L231.892 26.5152ZM57.1669 26.5151H231.881V28.0625H57.1669V26.5151ZM62.3018 31.3007L56.7663 27.9507L57.5675 26.6269L63.103 29.9768L62.3018 31.3007ZM63.7609 36.6718L61.9633 30.8677L63.4415 30.4099L65.2391 36.214L63.7609 36.6718ZM61.9656 41.8167L63.7632 36.2068L65.2368 36.679L63.4392 42.2889L61.9656 41.8167ZM56.8301 44.0329L62.3656 41.3563L63.0392 42.7494L57.5038 45.4261L56.8301 44.0329Z" fill="url(#paint1_linear)" mask="url(#path-2-inside-1)"/>
<g filter="url(#filter0_d)">
<circle r="7.15696" transform="matrix(1 0 0 -1 10.8323 36.5596)" stroke="#15F1FF" stroke-width="1.16059"/>
</g>
<g filter="url(#filter1_d)">
<circle r="7.15696" transform="matrix(1 0 0 -1 55.7086 36.5596)" stroke="#15F1FF" stroke-width="1.16059"/>
</g>
<circle r="9.28471" transform="matrix(1 0 0 -1 10.8322 36.5597)" stroke="#2E2E2E" stroke-width="3.0949"/>
<g filter="url(#filter2_d)">
<circle r="9.28471" transform="matrix(1 0 0 -1 55.7084 36.5597)" stroke="#2E2E2E" stroke-width="3.0949"/>
</g>
<circle r="10.6387" transform="matrix(1 0 0 -1 10.8322 36.5597)" stroke="#56ACB8" stroke-width="0.386863"/>
<circle r="10.6387" transform="matrix(1 0 0 -1 55.7084 36.5597)" stroke="#56ACB8" stroke-width="0.386863"/>
<path d="M23.5987 40.429L23.9856 41.5896L42.7484 36.7538L43.7156 35.5932L33.2703 36.7538L23.5987 40.429Z" fill="#15F1FF" stroke="#15F1FF" stroke-width="0.19504" stroke-linejoin="round"/>
<path d="M23.5987 35.0128L23.9856 36.1733L42.7484 31.3376L43.7156 30.177L33.2703 31.3376L23.5987 35.0128Z" fill="#15F1FF" stroke="#15F1FF" stroke-width="0.19504" stroke-linejoin="round"/>
</g>
<g opacity="0.5">
<path d="M9.13086 24L3.27637 9.49805H3.19043C3.24772 10.3861 3.27637 11.2956 3.27637 12.2266V24H2.22363V8.29492H3.9209L9.48535 22.1094H9.5498L15.1143 8.29492H16.7686V24H15.6621V12.0977C15.6621 11.2669 15.7051 10.4076 15.791 9.51953H15.7051L9.8291 24H9.13086ZM29.9307 24H28.8673V12.3232H29.9307V24ZM28.7169 9.0791C28.7169 8.3916 28.9425 8.04785 29.3936 8.04785C29.6156 8.04785 29.7875 8.13737 29.9093 8.31641C30.0382 8.49544 30.1026 8.74967 30.1026 9.0791C30.1026 9.40137 30.0382 9.6556 29.9093 9.8418C29.7875 10.028 29.6156 10.1211 29.3936 10.1211C28.9425 10.1211 28.7169 9.77376 28.7169 9.0791ZM46.4338 24.2148C44.7651 24.2148 43.4582 23.6885 42.5129 22.6357C41.5675 21.583 41.0949 20.1149 41.0949 18.2314C41.0949 16.2979 41.5854 14.7939 42.5666 13.7197C43.5477 12.6383 44.8905 12.0977 46.5949 12.0977C47.6046 12.0977 48.5714 12.2731 49.4953 12.624L49.2052 13.5693C48.1955 13.2327 47.3182 13.0645 46.5734 13.0645C45.1411 13.0645 44.0561 13.5085 43.3185 14.3965C42.5809 15.2773 42.2121 16.5485 42.2121 18.21C42.2121 19.7855 42.5809 21.0208 43.3185 21.916C44.0561 22.804 45.0874 23.248 46.4123 23.248C47.4722 23.248 48.4569 23.0583 49.3664 22.6787V23.667C48.6216 24.0322 47.644 24.2148 46.4338 24.2148ZM68.2971 24V16.4268C68.2971 15.2523 68.05 14.4001 67.5559 13.8701C67.0618 13.333 66.2955 13.0645 65.2571 13.0645C63.8606 13.0645 62.8365 13.4189 62.1848 14.1279C61.5403 14.8298 61.218 15.972 61.218 17.5547V24H60.1545V7.28516H61.218V12.6025L61.1643 14.0957H61.2395C61.6763 13.3939 62.2278 12.8854 62.8938 12.5703C63.5598 12.2552 64.387 12.0977 65.3752 12.0977C68.025 12.0977 69.3498 13.5192 69.3498 16.3623V24H68.2971ZM88.1409 24L87.8724 22.1523H87.7864C87.1992 22.9043 86.5941 23.4378 85.971 23.7529C85.3551 24.0609 84.6247 24.2148 83.7796 24.2148C82.6338 24.2148 81.7422 23.9212 81.1048 23.334C80.4674 22.7467 80.1488 21.9339 80.1488 20.8955C80.1488 19.7568 80.6214 18.8724 81.5667 18.2422C82.5192 17.612 83.8942 17.279 85.6917 17.2432L87.9154 17.1787V16.4053C87.9154 15.2952 87.6898 14.4574 87.2386 13.8916C86.7874 13.3258 86.0605 13.043 85.0579 13.043C83.9765 13.043 82.8558 13.3438 81.6956 13.9453L81.2982 13.0215C82.5801 12.4199 83.8476 12.1191 85.1009 12.1191C86.3828 12.1191 87.3389 12.4521 87.9691 13.1182C88.6064 13.7842 88.9251 14.8226 88.9251 16.2334V24H88.1409ZM83.8441 23.248C85.0902 23.248 86.0713 22.8936 86.7874 22.1846C87.5107 21.4684 87.8724 20.4766 87.8724 19.209V18.0596L85.8314 18.1455C84.1914 18.2243 83.0205 18.4821 82.3187 18.9189C81.624 19.3486 81.2767 20.0218 81.2767 20.9385C81.2767 21.6689 81.4987 22.2383 81.9427 22.6465C82.3939 23.0475 83.0277 23.248 83.8441 23.248ZM105.353 24.2148C103.656 24.2148 102.331 23.6921 101.378 22.6465C100.433 21.6009 99.9604 20.1364 99.9604 18.2529C99.9604 16.391 100.419 14.9014 101.335 13.7842C102.252 12.6598 103.487 12.0977 105.041 12.0977C106.416 12.0977 107.501 12.5775 108.296 13.5371C109.091 14.4967 109.489 15.8001 109.489 17.4473V18.3066H101.078C101.092 19.9108 101.464 21.1354 102.195 21.9805C102.932 22.8255 103.985 23.248 105.353 23.248C106.019 23.248 106.603 23.2015 107.104 23.1084C107.612 23.0153 108.253 22.8148 109.027 22.5068V23.4736C108.368 23.7601 107.759 23.9535 107.201 24.0537C106.642 24.1611 106.026 24.2148 105.353 24.2148ZM105.041 13.043C103.917 13.043 103.015 13.4154 102.334 14.1602C101.654 14.8978 101.257 15.9648 101.142 17.3613H108.361C108.361 16.0078 108.067 14.9515 107.48 14.1924C106.893 13.4261 106.08 13.043 105.041 13.043ZM121.695 24H120.631V7.28516H121.695V24ZM147.439 24V8.29492H148.535V22.9688H156.022V24H147.439ZM176.049 18.1455C176.049 20.0505 175.587 21.54 174.663 22.6143C173.739 23.6813 172.464 24.2148 170.839 24.2148C169.815 24.2148 168.912 23.9678 168.132 23.4736C167.351 22.9795 166.753 22.2705 166.338 21.3467C165.922 20.4229 165.715 19.3558 165.715 18.1455C165.715 16.2406 166.176 14.7581 167.1 13.6982C168.024 12.6312 169.292 12.0977 170.903 12.0977C172.507 12.0977 173.764 12.6383 174.674 13.7197C175.59 14.7939 176.049 16.2692 176.049 18.1455ZM166.832 18.1455C166.832 19.7497 167.183 21.0029 167.884 21.9053C168.593 22.8005 169.592 23.248 170.882 23.248C172.171 23.248 173.166 22.8005 173.868 21.9053C174.577 21.0029 174.931 19.7497 174.931 18.1455C174.931 16.5342 174.573 15.2845 173.857 14.3965C173.148 13.5085 172.149 13.0645 170.86 13.0645C169.571 13.0645 168.576 13.5085 167.874 14.3965C167.179 15.2773 166.832 16.527 166.832 18.1455ZM196.537 24L193.98 16.1904C193.816 15.6605 193.604 14.8835 193.346 13.8594H193.282L193.056 14.6543L192.573 16.2119L189.973 24H188.921L185.58 12.3232H186.719L188.588 19.0908C189.025 20.7666 189.311 21.9984 189.447 22.7861H189.512C189.934 21.1104 190.242 19.9967 190.435 19.4453L192.842 12.3232H193.808L196.096 19.4238C196.612 21.1068 196.927 22.2204 197.042 22.7646H197.106C197.164 22.2992 197.45 21.0531 197.966 19.0264L199.749 12.3232H200.823L197.654 24H196.537ZM215.758 24.2148C214.06 24.2148 212.736 23.6921 211.783 22.6465C210.838 21.6009 210.365 20.1364 210.365 18.2529C210.365 16.391 210.823 14.9014 211.74 13.7842C212.657 12.6598 213.892 12.0977 215.446 12.0977C216.821 12.0977 217.906 12.5775 218.701 13.5371C219.496 14.4967 219.893 15.8001 219.893 17.4473V18.3066H211.482C211.497 19.9108 211.869 21.1354 212.599 21.9805C213.337 22.8255 214.39 23.248 215.758 23.248C216.424 23.248 217.007 23.2015 217.509 23.1084C218.017 23.0153 218.658 22.8148 219.432 22.5068V23.4736C218.773 23.7601 218.164 23.9535 217.605 24.0537C217.047 24.1611 216.431 24.2148 215.758 24.2148ZM215.446 13.043C214.322 13.043 213.419 13.4154 212.739 14.1602C212.059 14.8978 211.661 15.9648 211.547 17.3613H218.766C218.766 16.0078 218.472 14.9515 217.885 14.1924C217.297 13.4261 216.485 13.043 215.446 13.043ZM232.1 24H231.036V7.28516H232.1V24ZM245.004 24H243.94V7.28516H245.004V24Z" fill="#15F1FF"/>
<line x1="244" y1="23.5" x2="355" y2="23.5" stroke="#15F1FF"/>
</g>
<defs>
<filter id="filter0_d" x="1.54764" y="25.7274" width="21.6643" height="21.6643" filterUnits="userSpaceOnUse" color-interpolation-filters="sRGB">
<feFlood flood-opacity="0" result="BackgroundImageFix"/>
<feColorMatrix in="SourceAlpha" type="matrix" values="0 0 0 0 0 0 0 0 0 0 0 0 0 0 0 0 0 0 127 0"/>
<feOffset dx="1.54745"/>
<feGaussianBlur stdDeviation="1.54745"/>
<feColorMatrix type="matrix" values="0 0 0 0 0.0823529 0 0 0 0 0.945098 0 0 0 0 1 0 0 0 0.6 0"/>
<feBlend mode="normal" in2="BackgroundImageFix" result="effect1_dropShadow"/>
<feBlend mode="normal" in="SourceGraphic" in2="effect1_dropShadow" result="shape"/>
</filter>
<filter id="filter1_d" x="43.329" y="25.7274" width="21.6643" height="21.6643" filterUnits="userSpaceOnUse" color-interpolation-filters="sRGB">
<feFlood flood-opacity="0" result="BackgroundImageFix"/>
<feColorMatrix in="SourceAlpha" type="matrix" values="0 0 0 0 0 0 0 0 0 0 0 0 0 0 0 0 0 0 127 0"/>
<feOffset dx="-1.54745"/>
<feGaussianBlur stdDeviation="1.54745"/>
<feColorMatrix type="matrix" values="0 0 0 0 0.0823529 0 0 0 0 0.945098 0 0 0 0 1 0 0 0 0.6 0"/>
<feBlend mode="normal" in2="BackgroundImageFix" result="effect1_dropShadow"/>
<feBlend mode="normal" in="SourceGraphic" in2="effect1_dropShadow" result="shape"/>
</filter>
<filter id="filter2_d" x="43.3288" y="22.6326" width="27.8541" height="27.8541" filterUnits="userSpaceOnUse" color-interpolation-filters="sRGB">
<feFlood flood-opacity="0" result="BackgroundImageFix"/>
<feColorMatrix in="SourceAlpha" type="matrix" values="0 0 0 0 0 0 0 0 0 0 0 0 0 0 0 0 0 0 127 0"/>
<feOffset dx="1.54745"/>
<feGaussianBlur stdDeviation="1.54745"/>
<feColorMatrix type="matrix" values="0 0 0 0 0.0823529 0 0 0 0 0.945098 0 0 0 0 1 0 0 0 0.25 0"/>
<feBlend mode="normal" in2="BackgroundImageFix" result="effect1_dropShadow"/>
<feBlend mode="normal" in="SourceGraphic" in2="effect1_dropShadow" result="shape"/>
</filter>
<linearGradient id="paint0_linear" x1="187.987" y1="27.6627" x2="340.566" y2="27.6627" gradientUnits="userSpaceOnUse">
<stop stop-color="#15F1FF"/>
<stop offset="1" stop-color="#15F1FF" stop-opacity="0"/>
</linearGradient>
<linearGradient id="paint1_linear" x1="194.108" y1="45.4584" x2="346.468" y2="45.4584" gradientUnits="userSpaceOnUse">
<stop stop-color="#15F1FF"/>
<stop offset="1" stop-color="#15F1FF" stop-opacity="0"/>
</linearGradient>
</defs>
</svg>
